<svg width="48" height="48" viewBox="0 0 48 48" fill="none" xmlns="http://www.w3.org/2000/svg">
<path d="M32.2353 15H15.7647C14.79 15 14 15.79 14 16.7647C14 17.7394 14.79 18.5293 15.7647 18.5293H32.2353C33.21 18.5293 34 17.7394 34 16.7647C34 15.79 33.21 15 32.2353 15Z" fill="#243B98"/>
<path d="M32.2353 22.0593H15.7647C14.79 22.0593 14 22.8493 14 23.824C14 24.7987 14.79 25.5887 15.7647 25.5887H32.2353C33.21 25.5887 34 24.7987 34 23.824C34 22.8493 33.21 22.0593 32.2353 22.0593Z" fill="#243B98"/>
<path d="M32.2353 29.1174H15.7647C14.79 29.1174 14 29.9074 14 30.8821C14 31.8568 14.79 32.6468 15.7647 32.6468H32.2353C33.21 32.6468 34 31.8568 34 30.8821C34 29.9074 33.21 29.1174 32.2353 29.1174Z" fill="#243B98"/>
</svg>
