<svg width="42" height="42" viewBox="0 0 42 42" fill="none" xmlns="http://www.w3.org/2000/svg">
<g clip-path="url(#clip0_667_14175)">
<path d="M37.625 23.5817V11.3255C39.7419 11.0205 41.375 9.19986 41.375 7.00049C41.375 4.58861 39.4125 2.62549 37 2.62549C34.5875 2.62549 32.625 4.58861 32.625 7.00049H2.625V32.0005H21.4069C21.7319 37.223 26.0725 41.3755 31.375 41.3755C36.8887 41.3755 41.375 36.8892 41.375 31.3755C41.375 28.2261 39.9081 25.4161 37.625 23.5817ZM37 3.87549C38.7231 3.87549 40.125 5.27736 40.125 7.00049C40.125 8.72361 38.7231 10.1255 37 10.1255C35.2769 10.1255 33.875 8.72361 33.875 7.00049C33.875 5.27736 35.2769 3.87549 37 3.87549ZM3.875 8.25049H32.8094C32.9587 8.74924 33.1963 9.20861 33.5013 9.61611L29.6787 13.4386C29.4337 13.3211 29.1638 13.2505 28.875 13.2505C28.5862 13.2505 28.3163 13.3211 28.0719 13.4386L26.8125 12.1792C26.9294 11.9342 27 11.6642 27 11.3755C27 10.3417 26.1588 9.50049 25.125 9.50049C24.0912 9.50049 23.25 10.3417 23.25 11.3755C23.25 11.6642 23.3206 11.9342 23.4381 12.1786L20.3037 15.313C20.0587 15.1961 19.7888 15.1255 19.5 15.1255C18.4662 15.1255 17.625 15.9667 17.625 17.0005C17.625 18.0342 18.4662 18.8755 19.5 18.8755C20.5338 18.8755 21.375 18.0342 21.375 17.0005C21.375 16.7117 21.3044 16.4417 21.1869 16.1974L24.3213 13.063C24.5663 13.1799 24.8362 13.2505 25.125 13.2505C25.4138 13.2505 25.6837 13.1799 25.9281 13.0624L27.1875 14.3217C27.0706 14.5667 27 14.8367 27 15.1255C27 16.1592 27.8412 17.0005 28.875 17.0005C29.9088 17.0005 30.75 16.1592 30.75 15.1255C30.75 14.8367 30.6794 14.5667 30.5619 14.3224L34.385 10.4999C34.9569 10.9286 35.6356 11.2192 36.375 11.3261V22.7292C34.9019 21.8736 33.1975 21.3755 31.375 21.3755C28.3875 21.3755 25.7088 22.6992 23.875 24.7836V22.0005H20.125V29.5005H21.5575C21.48 29.9086 21.4331 30.3267 21.4069 30.7505H3.875V8.25049ZM28.875 14.5005C29.2194 14.5005 29.5 14.7805 29.5 15.1255C29.5 15.4705 29.2194 15.7505 28.875 15.7505C28.5306 15.7505 28.25 15.4705 28.25 15.1255C28.25 14.7805 28.5306 14.5005 28.875 14.5005ZM24.5 11.3755C24.5 11.0305 24.7806 10.7505 25.125 10.7505C25.4694 10.7505 25.75 11.0305 25.75 11.3755C25.75 11.7205 25.4694 12.0005 25.125 12.0005C24.7806 12.0005 24.5 11.7205 24.5 11.3755ZM20.125 17.0005C20.125 17.3455 19.8444 17.6255 19.5 17.6255C19.1556 17.6255 18.875 17.3455 18.875 17.0005C18.875 16.6555 19.1556 16.3755 19.5 16.3755C19.8444 16.3755 20.125 16.6555 20.125 17.0005ZM31.375 36.3755C28.6181 36.3755 26.375 34.1324 26.375 31.3755C26.375 28.6186 28.6181 26.3755 31.375 26.3755C34.1319 26.3755 36.375 28.6186 36.375 31.3755C36.375 34.1324 34.1319 36.3755 31.375 36.3755ZM22.625 26.5449C22.3256 27.0849 22.0781 27.6555 21.8819 28.2505H21.375V23.2505H22.625V26.5449ZM30.75 22.6574V25.1574C27.5962 25.4724 25.125 28.1405 25.125 31.3755C25.125 32.2899 25.3275 33.1567 25.6819 33.9405L23.5138 35.1924C22.95 34.0374 22.625 32.7449 22.625 31.3755C22.625 26.7617 26.2169 22.9799 30.75 22.6574ZM31.375 40.1255C28.3662 40.1255 25.7075 38.5986 24.1325 36.2786L26.3094 35.0217C27.4456 36.5955 29.29 37.6255 31.375 37.6255C33.46 37.6255 35.3044 36.5955 36.4406 35.0217L38.6175 36.2786C37.0425 38.5986 34.3838 40.1255 31.375 40.1255V40.1255ZM39.2362 35.1924L37.0681 33.9405C37.4225 33.1567 37.625 32.2899 37.625 31.3755C37.625 28.1405 35.1538 25.4717 32 25.1574V22.6574C36.5331 22.9799 40.125 26.7617 40.125 31.3755C40.125 32.7449 39.8 34.0374 39.2362 35.1924Z" fill="white"/>
<path d="M31.375 27.6255C29.3069 27.6255 27.625 29.3074 27.625 31.3755C27.625 33.4436 29.3069 35.1255 31.375 35.1255C33.4431 35.1255 35.125 33.4436 35.125 31.3755C35.125 29.3074 33.4431 27.6255 31.375 27.6255ZM31.375 33.8755C29.9962 33.8755 28.875 32.7542 28.875 31.3755C28.875 29.9967 29.9962 28.8755 31.375 28.8755C32.7537 28.8755 33.875 29.9967 33.875 31.3755C33.875 32.7542 32.7537 33.8755 31.375 33.8755Z" fill="white"/>
<path d="M5.125 9.50049H6.375V10.7505H5.125V9.50049Z" fill="white"/>
<path d="M7.625 9.50049H16.375V10.7505H7.625V9.50049Z" fill="white"/>
<path d="M5.125 12.0005H6.375V13.2505H5.125V12.0005Z" fill="white"/>
<path d="M7.625 12.0005H16.375V13.2505H7.625V12.0005Z" fill="white"/>
<path d="M5.125 14.5005H6.375V15.7505H5.125V14.5005Z" fill="white"/>
<path d="M7.625 14.5005H16.375V15.7505H7.625V14.5005Z" fill="white"/>
<path d="M5.125 17.0005H6.375V18.2505H5.125V17.0005Z" fill="white"/>
<path d="M7.625 17.0005H16.375V18.2505H7.625V17.0005Z" fill="white"/>
<path d="M5.125 29.5005H8.875V23.2505H5.125V29.5005ZM6.375 24.5005H7.625V28.2505H6.375V24.5005Z" fill="white"/>
<path d="M10.125 29.5005H13.875V24.5005H10.125V29.5005ZM11.375 25.7505H12.625V28.2505H11.375V25.7505Z" fill="white"/>
<path d="M15.125 29.5005H18.875V19.5005H15.125V29.5005ZM16.375 20.7505H17.625V28.2505H16.375V20.7505Z" fill="white"/>
</g>
<defs>
<clipPath id="clip0_667_14175">
<rect width="40" height="40" fill="white" transform="translate(2 2.00049)"/>
</clipPath>
</defs>
</svg>
