<svg width="42" height="41" viewBox="0 0 42 41" fill="none" xmlns="http://www.w3.org/2000/svg">
<path d="M29.317 2.43305C29.2589 2.37501 29.19 2.32898 29.1142 2.29757C29.0384 2.26616 28.9571 2.25 28.875 2.25H11.375C10.2151 2.2513 9.10304 2.71266 8.28285 3.53285C7.46266 4.35304 7.0013 5.46508 7 6.625V35.375C7.0013 36.5349 7.46266 37.647 8.28285 38.4672C9.10304 39.2873 10.2151 39.7487 11.375 39.75H32.625C33.7849 39.7487 34.897 39.2873 35.7172 38.4672C36.5373 37.647 36.9987 36.5349 37 35.375V10.375C37 10.2929 36.9838 10.2116 36.9524 10.1358C36.921 10.06 36.875 9.99109 36.817 9.93305L29.317 2.43305ZM29.5 4.38383L34.8662 9.75H32.625C31.7965 9.74907 31.0022 9.41953 30.4163 8.83368C29.8305 8.24783 29.5009 7.45352 29.5 6.625V4.38383ZM11.375 3.5H28.25V6.625C28.2513 7.78492 28.7127 8.89696 29.5328 9.71715C30.353 10.5373 31.4651 10.9987 32.625 11H35.75V28.5H8.25V6.625C8.25093 5.79648 8.58047 5.00217 9.16632 4.41632C9.75217 3.83047 10.5465 3.50093 11.375 3.5ZM32.625 38.5H11.375C10.5465 38.4991 9.75217 38.1695 9.16632 37.5837C8.58047 36.9978 8.25093 36.2035 8.25 35.375V29.75H35.75V35.375C35.7491 36.2035 35.4195 36.9978 34.8337 37.5837C34.2478 38.1695 33.4535 38.4991 32.625 38.5Z" fill="#243B98"/>
<path d="M20.75 36H18.875V31.625C18.875 31.4592 18.8092 31.3003 18.6919 31.1831C18.5747 31.0658 18.4158 31 18.25 31C18.0842 31 17.9253 31.0658 17.8081 31.1831C17.6908 31.3003 17.625 31.4592 17.625 31.625V36.625C17.625 36.7908 17.6908 36.9497 17.8081 37.0669C17.9253 37.1842 18.0842 37.25 18.25 37.25H20.75C20.9158 37.25 21.0747 37.1842 21.1919 37.0669C21.3092 36.9497 21.375 36.7908 21.375 36.625C21.375 36.4592 21.3092 36.3003 21.1919 36.1831C21.0747 36.0658 20.9158 36 20.75 36Z" fill="#243B98"/>
<path d="M16.0295 31.066C15.8813 30.9919 15.7096 30.9797 15.5524 31.0321C15.3951 31.0845 15.2651 31.1972 15.191 31.3454L14.5 32.7274L13.809 31.3454C13.7341 31.1985 13.6041 31.0872 13.4475 31.0356C13.2908 30.9841 13.1201 30.9966 12.9726 31.0703C12.8251 31.1441 12.7128 31.2732 12.66 31.4294C12.6072 31.5857 12.6184 31.7564 12.691 31.9045L13.8012 34.125L12.691 36.3454C12.6535 36.4189 12.631 36.4991 12.6246 36.5813C12.6183 36.6636 12.6283 36.7463 12.6541 36.8246C12.6799 36.903 12.7209 36.9754 12.7748 37.0379C12.8287 37.1003 12.8945 37.1514 12.9683 37.1883C13.042 37.2252 13.1224 37.2471 13.2047 37.2528C13.287 37.2585 13.3696 37.2479 13.4477 37.2215C13.5259 37.1951 13.598 37.1535 13.66 37.0991C13.722 37.0447 13.7726 36.9785 13.809 36.9045L14.5 35.5225L15.191 36.9045C15.2273 36.9785 15.2779 37.0447 15.3399 37.0991C15.4019 37.1535 15.4741 37.1951 15.5522 37.2215C15.6304 37.2479 15.713 37.2585 15.7953 37.2528C15.8776 37.2471 15.9579 37.2252 16.0317 37.1883C16.1055 37.1514 16.1712 37.1003 16.2251 37.0379C16.2791 36.9754 16.3201 36.903 16.3459 36.8246C16.3716 36.7463 16.3817 36.6636 16.3753 36.5813C16.369 36.4991 16.3464 36.4189 16.309 36.3454L15.1987 34.125L16.309 31.9045C16.3831 31.7563 16.3953 31.5846 16.3429 31.4274C16.2905 31.2701 16.1778 31.1401 16.0295 31.066Z" fill="#243B98"/>
<path d="M31.0295 31.066C30.8813 30.9919 30.7096 30.9797 30.5524 31.0321C30.3951 31.0845 30.2651 31.1972 30.191 31.3454L29.5 32.7274L28.809 31.3454C28.7341 31.1985 28.6041 31.0872 28.4475 31.0356C28.2908 30.9841 28.1201 30.9966 27.9726 31.0703C27.8251 31.1441 27.7127 31.2732 27.66 31.4294C27.6072 31.5857 27.6184 31.7564 27.691 31.9045L28.8012 34.125L27.691 36.3454C27.6535 36.4189 27.631 36.4991 27.6246 36.5813C27.6183 36.6636 27.6283 36.7463 27.6541 36.8246C27.6799 36.903 27.7209 36.9754 27.7748 37.0379C27.8287 37.1003 27.8945 37.1514 27.9683 37.1883C28.042 37.2252 28.1224 37.2471 28.2047 37.2528C28.287 37.2585 28.3696 37.2479 28.4477 37.2215C28.5259 37.1951 28.598 37.1535 28.66 37.0991C28.722 37.0447 28.7726 36.9785 28.809 36.9045L29.5 35.5225L30.191 36.9045C30.2273 36.9785 30.2779 37.0447 30.3399 37.0991C30.4019 37.1535 30.4741 37.1951 30.5522 37.2215C30.6304 37.2479 30.713 37.2585 30.7953 37.2528C30.8776 37.2471 30.9579 37.2252 31.0317 37.1883C31.1055 37.1514 31.1712 37.1003 31.2251 37.0379C31.279 36.9754 31.3201 36.903 31.3459 36.8246C31.3716 36.7463 31.3816 36.6636 31.3753 36.5813C31.369 36.4991 31.3464 36.4189 31.309 36.3454L30.1987 34.125L31.309 31.9045C31.3831 31.7563 31.3953 31.5846 31.3429 31.4274C31.2905 31.2701 31.1778 31.1401 31.0295 31.066Z" fill="#243B98"/>
<path d="M24.5 32.25H25.75C25.9158 32.25 26.0747 32.1842 26.1919 32.0669C26.3092 31.9497 26.375 31.7908 26.375 31.625C26.375 31.4592 26.3092 31.3003 26.1919 31.1831C26.0747 31.0658 25.9158 31 25.75 31H24.5C24.0027 31 23.5258 31.1975 23.1742 31.5492C22.8225 31.9008 22.625 32.3777 22.625 32.875C22.625 33.3723 22.8225 33.8492 23.1742 34.2008C23.5258 34.5525 24.0027 34.75 24.5 34.75C24.6658 34.75 24.8247 34.8158 24.9419 34.9331C25.0592 35.0503 25.125 35.2092 25.125 35.375C25.125 35.5408 25.0592 35.6997 24.9419 35.8169C24.8247 35.9342 24.6658 36 24.5 36H23.25C23.0842 36 22.9253 36.0658 22.8081 36.1831C22.6908 36.3003 22.625 36.4592 22.625 36.625C22.625 36.7908 22.6908 36.9497 22.8081 37.0669C22.9253 37.1842 23.0842 37.25 23.25 37.25H24.5C24.9973 37.25 25.4742 37.0525 25.8258 36.7008C26.1775 36.3492 26.375 35.8723 26.375 35.375C26.375 34.8777 26.1775 34.4008 25.8258 34.0492C25.4742 33.6975 24.9973 33.5 24.5 33.5C24.3342 33.5 24.1753 33.4342 24.0581 33.3169C23.9408 33.1997 23.875 33.0408 23.875 32.875C23.875 32.7092 23.9408 32.5503 24.0581 32.4331C24.1753 32.3158 24.3342 32.25 24.5 32.25Z" fill="#243B98"/>
<path d="M12 24.75H32C32.1658 24.75 32.3247 24.6842 32.4419 24.5669C32.5592 24.4497 32.625 24.2908 32.625 24.125V12.875C32.625 12.7092 32.5592 12.5503 32.4419 12.4331C32.3247 12.3158 32.1658 12.25 32 12.25H17.625V9.125C17.625 8.95924 17.5592 8.80027 17.4419 8.68306C17.3247 8.56585 17.1658 8.5 17 8.5H12C11.8342 8.5 11.6753 8.56585 11.5581 8.68306C11.4408 8.80027 11.375 8.95924 11.375 9.125V24.125C11.375 24.2908 11.4408 24.4497 11.5581 24.5669C11.6753 24.6842 11.8342 24.75 12 24.75ZM26.375 19.75H22.625V17.25H26.375V19.75ZM27.625 17.25H31.375V19.75H27.625V17.25ZM12.625 17.25H16.375V19.75H12.625V17.25ZM17.625 17.25H21.375V19.75H17.625V17.25ZM21.375 21V23.5H17.625V21H21.375ZM22.625 21H26.375V23.5H22.625V21ZM22.625 16V13.5H26.375V16H22.625ZM21.375 16H17.625V13.5H21.375V16ZM16.375 16H12.625V13.5H16.375V16ZM12.625 21H16.375V23.5H12.625V21ZM27.625 23.5V21H31.375V23.5H27.625ZM31.375 16H27.625V13.5H31.375V16ZM12.625 9.75H16.375V12.25H12.625V9.75Z" fill="#243B98"/>
</svg>
