<svg width="24" height="24" viewBox="0 0 24 24" fill="none" xmlns="http://www.w3.org/2000/svg">
<path d="M12.8975 11.4262L3.77606 2.30484C3.36993 1.89839 2.71096 1.89839 2.30484 2.30484C1.89839 2.71096 1.89839 3.36993 2.30484 3.77606L10.6903 12.1619L2.30489 20.5477C1.89843 20.9538 1.89843 21.6127 2.30489 22.0189C2.50776 22.2221 2.77415 22.3237 3.0405 22.3237C3.30684 22.3237 3.57323 22.2221 3.77611 22.0189L12.8975 12.8975C13.3039 12.4913 13.3039 11.8324 12.8975 11.4262Z" fill="#243B98"/>
<path d="M11.3047 12.8975L20.4261 22.0189C20.8322 22.4253 21.4912 22.4253 21.8973 22.0189C22.3038 21.6128 22.3038 20.9538 21.8973 20.5477L13.5118 12.1619L21.8973 3.77608C22.3037 3.36995 22.3037 2.71099 21.8973 2.30486C21.6944 2.10161 21.428 1.99998 21.1617 1.99998C20.8953 1.99998 20.6289 2.10161 20.426 2.30486L11.3046 11.4263C10.8982 11.8324 10.8982 12.4914 11.3047 12.8975Z" fill="#243B98"/>
</svg>
