<svg width="12" height="20" viewBox="0 0 12 20" fill="none" xmlns="http://www.w3.org/2000/svg">
<path d="M8.2101 5.59365C8.35408 5.5417 8.50753 5.52124 8.6601 5.53365H10.1401C10.2815 5.53498 10.4217 5.50827 10.5526 5.45509C10.6836 5.40191 10.8028 5.32331 10.9032 5.22382C11.0036 5.12433 11.0833 5.00592 11.1377 4.87545C11.1921 4.74497 11.2201 4.60501 11.2201 4.46365V1.87365C11.2201 1.73229 11.1921 1.59233 11.1377 1.46186C11.0833 1.33139 11.0036 1.21298 10.9032 1.11349C10.8028 1.014 10.6836 0.935396 10.5526 0.882215C10.4217 0.829034 10.2815 0.802333 10.1401 0.803654H7.9501C7.30852 0.778484 6.66861 0.885317 6.07001 1.11753C5.4714 1.34975 4.92686 1.70241 4.4701 2.15365C3.58406 3.11561 3.11019 4.38643 3.1501 5.69365V6.89365H1.6701C1.38632 6.89365 1.11416 7.00639 0.913493 7.20705C0.712829 7.40771 0.600098 7.67987 0.600098 7.96365V10.7537C0.600098 11.0374 0.712829 11.3096 0.913493 11.5103C1.11416 11.7109 1.38632 11.8237 1.6701 11.8237H3.1501V18.1237C3.15271 18.4093 3.26733 18.6825 3.46931 18.8844C3.67128 19.0864 3.94447 19.201 4.2301 19.2037H7.1101C7.39479 19.201 7.66693 19.0861 7.86732 18.8838C8.0677 18.6816 8.18011 18.4084 8.1801 18.1237V11.8237H10.0401C10.3239 11.8237 10.596 11.7109 10.7967 11.5103C10.9974 11.3096 11.1101 11.0374 11.1101 10.7537V7.96365C11.1115 7.82191 11.0844 7.68134 11.0305 7.55025C10.9765 7.41916 10.8969 7.30022 10.7962 7.20045C10.6955 7.10069 10.5758 7.02214 10.4442 6.96944C10.3126 6.91674 10.1718 6.89097 10.0301 6.89365H8.1801V6.03365C8.18009 5.88648 8.19012 5.73947 8.2101 5.59365ZM3.8001 10.3637H2.0601V8.36365H3.8001C4.00697 8.36365 4.20536 8.28148 4.35164 8.1352C4.49792 7.98892 4.5801 7.79052 4.5801 7.58365V5.69365C4.53661 5.23711 4.59333 4.77658 4.7463 4.34424C4.89927 3.91189 5.1448 3.51816 5.46574 3.19056C5.78667 2.86296 6.17527 2.60939 6.60438 2.44756C7.03349 2.28573 7.49276 2.21956 7.9501 2.25365H9.8001V4.08365H8.6601C8.3815 4.06178 8.1014 4.09853 7.83788 4.19153C7.57435 4.28454 7.33324 4.43175 7.1301 4.62365C6.82315 5.02611 6.68021 5.52997 6.7301 6.03365V7.56365C6.7301 7.77052 6.81228 7.96892 6.95855 8.1152C7.10483 8.26148 7.30323 8.34365 7.5101 8.34365H9.6601V10.3437H7.5101C7.30231 10.3463 7.10393 10.4307 6.95794 10.5785C6.81194 10.7264 6.73008 10.9259 6.7301 11.1337V17.7237H4.6101V11.1537C4.61013 11.0482 4.58905 10.9438 4.54811 10.8466C4.50716 10.7495 4.44718 10.6615 4.37169 10.5878C4.2962 10.5142 4.20673 10.4565 4.10856 10.418C4.0104 10.3794 3.90551 10.361 3.8001 10.3637Z" fill="white"/>
</svg>
