<svg width="32" height="32" viewBox="0 0 32 32" fill="none" xmlns="http://www.w3.org/2000/svg">
<path d="M26.9579 18.3956L26.8096 18.4756C26.2108 17.7489 25.1732 17.4673 24.3827 17.8679C24.3799 17.8693 24.3771 17.8708 24.3743 17.8722L24.0243 18.0606C23.6069 17.7072 23.0906 17.4912 22.5459 17.4419C22.0012 17.3927 21.4546 17.5127 20.9806 17.7856L19.0959 18.8106H16.588C16.045 18.8099 15.5091 18.6871 15.0199 18.4513L14.6749 18.2845C13.6927 17.8066 12.5974 17.6098 11.5102 17.716C10.4231 17.8221 9.38656 18.2271 8.51538 18.886C8.50719 18.8923 8.49919 18.8985 8.49157 18.9056L7.65863 19.6471C7.34385 19.9267 6.97177 20.1341 6.56844 20.2548L6.09538 18.7019C6.07194 18.625 6.02443 18.5577 5.95986 18.5099C5.89528 18.4621 5.81705 18.4363 5.73669 18.4363H1.70838C1.6553 18.4363 1.60283 18.4475 1.55443 18.4693C1.50603 18.4911 1.46281 18.5229 1.42763 18.5627C1.39244 18.6024 1.36609 18.6492 1.35032 18.6998C1.33454 18.7505 1.32971 18.804 1.33613 18.8566L2.67888 29.8666C2.68996 29.9576 2.73394 30.0413 2.80252 30.102C2.8711 30.1627 2.95953 30.1963 3.05113 30.1963H9.09326C9.15186 30.1963 9.20964 30.1825 9.26198 30.1562C9.31431 30.1298 9.35974 30.0915 9.39461 30.0444C9.42949 29.9973 9.45284 29.9427 9.4628 29.885C9.47275 29.8272 9.46904 29.7679 9.45194 29.7119L8.65819 27.1073L11.1303 25.5448C11.4611 25.3617 11.8492 25.3115 12.2156 25.4043C12.2234 25.4063 12.2312 25.408 12.2391 25.4094L17.2678 26.3354C18.6344 26.5799 20.0433 26.381 21.2888 25.7676C21.3047 25.7598 21.3201 25.7508 21.3347 25.7408L30.0324 19.7688C30.1112 19.7147 30.1664 19.6325 30.1867 19.5391C30.2069 19.4457 30.1907 19.3481 30.1414 19.2662C29.825 18.7391 29.3173 18.3544 28.7243 18.1922C28.1313 18.0301 27.4985 18.1029 26.9579 18.3956ZM24.7256 18.5349C25.1828 18.306 25.7583 18.4936 26.1259 18.8445L22.8277 20.6238L22.6339 20.7259C22.5295 20.4294 22.3769 20.1521 22.1822 19.9052L24.7256 18.5349ZM21.3435 18.4421C21.3464 18.4404 21.3498 18.4388 21.3524 18.437C21.6478 18.2663 21.9836 18.1779 22.3248 18.1811C22.666 18.1843 23.0001 18.279 23.2922 18.4553L21.6153 19.3581C21.2956 19.1248 20.9308 18.9606 20.5441 18.8761L21.3435 18.4421ZM3.38288 29.4463L2.13194 19.1863H5.45875L8.58688 29.4463H3.38288ZM20.9319 25.1068C19.8368 25.6399 18.6008 25.8116 17.4019 25.5973L12.3856 24.6736C11.8339 24.5374 11.2509 24.6164 10.7553 24.8945C10.7495 24.8977 10.7437 24.9012 10.738 24.9048L8.43082 26.3634L6.78707 20.9727C7.29392 20.82 7.76138 20.5585 8.15688 20.2066L8.97807 19.4754C9.73889 18.9034 10.6428 18.5525 11.5903 18.4614C12.5378 18.3702 13.492 18.5424 14.3479 18.9588L14.6929 19.1257C15.2839 19.4106 15.9314 19.559 16.5876 19.5598H19.9329C20.4245 19.5605 20.9005 19.7324 21.2792 20.0459C21.6578 20.3595 21.9155 20.7951 22.0079 21.278L19.5832 21.1683C18.7017 21.1287 17.8185 21.1695 16.9444 21.2902C16.8467 21.3047 16.7586 21.3572 16.6994 21.4363C16.6401 21.5154 16.6145 21.6147 16.628 21.7126C16.6416 21.8105 16.6932 21.8991 16.7718 21.9591C16.8503 22.0191 16.9493 22.0457 17.0473 22.0331C17.876 21.9185 18.7135 21.8799 19.5493 21.9176L22.4028 22.0466C22.4084 22.0466 22.4141 22.047 22.4198 22.047C22.5192 22.047 22.6146 22.0075 22.6849 21.9372C22.7552 21.8669 22.7948 21.7715 22.7948 21.672C22.7948 21.6113 22.7922 21.5512 22.7885 21.4914L23.1798 21.2851L27.3141 19.0554C27.6316 18.8835 27.9971 18.8212 28.3536 18.8784C28.7101 18.9355 29.0378 19.1088 29.2856 19.3714L20.9319 25.1068Z" fill="#243B98" stroke="#243B98" stroke-width="0.2"/>
<path d="M4.57507 27.8955C4.57507 28.129 4.64432 28.3572 4.77404 28.5514C4.90377 28.7455 5.08816 28.8969 5.30389 28.9862C5.51962 29.0756 5.75701 29.099 5.98602 29.0534C6.21504 29.0078 6.42541 28.8954 6.59052 28.7303C6.75563 28.5652 6.86808 28.3548 6.91363 28.1258C6.95919 27.8968 6.93581 27.6594 6.84645 27.4437C6.75709 27.2279 6.60577 27.0435 6.41161 26.9138C6.21746 26.7841 5.9892 26.7148 5.7557 26.7148C5.44268 26.7152 5.14259 26.8397 4.92125 27.061C4.69992 27.2824 4.57542 27.5825 4.57507 27.8955ZM5.7557 27.4648C5.84086 27.4648 5.92412 27.4901 5.99494 27.5374C6.06575 27.5847 6.12095 27.652 6.15354 27.7307C6.18613 27.8094 6.19466 27.8959 6.17805 27.9795C6.16143 28.063 6.12042 28.1397 6.06019 28.2C5.99997 28.2602 5.92324 28.3012 5.83971 28.3178C5.75617 28.3344 5.66959 28.3259 5.5909 28.2933C5.51222 28.2607 5.44496 28.2055 5.39764 28.1347C5.35033 28.0639 5.32507 27.9806 5.32507 27.8955C5.32527 27.7813 5.37071 27.6719 5.45142 27.5912C5.53214 27.5105 5.64156 27.4651 5.7557 27.465V27.4648Z" fill="#243B98" stroke="#243B98" stroke-width="0.2"/>
<path d="M18.6154 5.40241V4.16666C18.6119 3.41404 18.3104 2.69345 17.777 2.16251C17.2436 1.63157 16.5216 1.3335 15.769 1.3335C15.0163 1.3335 14.2943 1.63157 13.7609 2.16251C13.2275 2.69345 12.926 3.41404 12.9225 4.16666V5.40241C12.926 6.15503 13.2275 6.87562 13.7609 7.40656C14.2943 7.9375 15.0163 8.23557 15.769 8.23557C16.5216 8.23557 17.2436 7.9375 17.777 7.40656C18.3104 6.87562 18.6119 6.15503 18.6154 5.40241ZM13.6725 5.40241V4.16666C13.6755 3.61262 13.8977 3.08231 14.2906 2.69161C14.6834 2.30092 15.2149 2.0816 15.769 2.0816C16.323 2.0816 16.8545 2.30092 17.2473 2.69161C17.6402 3.08231 17.8624 3.61262 17.8654 4.16666V5.40241C17.8624 5.95644 17.6402 6.48676 17.2473 6.87745C16.8545 7.26815 16.323 7.48746 15.769 7.48746C15.2149 7.48746 14.6834 7.26815 14.2906 6.87745C13.8977 6.48676 13.6755 5.95644 13.6725 5.40241Z" fill="#243B98" stroke="#243B98" stroke-width="0.2"/>
<path d="M11.1809 15.9725H20.3573C20.4567 15.9725 20.5521 15.933 20.6224 15.8626C20.6928 15.7923 20.7323 15.6969 20.7323 15.5975V14.7367H27.0142C27.1136 14.7367 27.209 14.6972 27.2793 14.6269C27.3497 14.5566 27.3892 14.4612 27.3892 14.3617V11.9277C27.3888 11.2135 27.1165 10.5263 26.6277 10.0055C26.1389 9.48484 25.4702 9.16972 24.7574 9.12423C24.5574 9.10954 24.4546 9.23616 24.3712 9.33785C24.2053 9.54056 23.9953 9.70271 23.7573 9.81197C23.5192 9.92122 23.2593 9.97469 22.9975 9.96829C22.7356 9.9619 22.4786 9.89581 22.2462 9.77506C22.0137 9.65432 21.8119 9.4821 21.6561 9.27154C21.6203 9.22308 21.5733 9.18396 21.5192 9.15749C21.4651 9.13102 21.4054 9.11798 21.3452 9.11948C20.858 9.13041 20.3823 9.2692 19.9657 9.52191C19.6907 9.20209 19.3542 8.94071 18.9763 8.75328C18.5985 8.56584 18.1868 8.45616 17.7657 8.43073C17.572 8.42285 17.474 8.54048 17.379 8.65573C17.1844 8.89362 16.938 9.08394 16.6586 9.21216C16.3792 9.34039 16.0743 9.40314 15.767 9.39563C15.4597 9.38813 15.1582 9.31056 14.8854 9.16885C14.6126 9.02714 14.3758 8.82503 14.193 8.57791C14.1572 8.52939 14.1103 8.49023 14.0562 8.46377C14.002 8.4373 13.9423 8.42431 13.882 8.42591C13.0597 8.44493 12.2776 8.78607 11.7042 9.37591C11.6568 9.42435 11.6119 9.47454 11.5681 9.52548C11.1809 9.28973 10.742 9.15196 10.2895 9.1241C10.0902 9.10941 9.98666 9.23604 9.90335 9.33773C9.73745 9.54043 9.52746 9.70259 9.2894 9.81184C9.05133 9.92109 8.79147 9.97456 8.52961 9.96817C8.26775 9.96177 8.0108 9.89568 7.77836 9.77494C7.54591 9.65419 7.34409 9.48197 7.18829 9.27141C7.15243 9.22301 7.10547 9.18393 7.05136 9.15747C6.99725 9.13101 6.93757 9.11793 6.87735 9.11935C6.14486 9.138 5.44864 9.44205 4.93712 9.96668C4.4256 10.4913 4.13927 11.195 4.13916 11.9277V14.3617C4.13916 14.4612 4.17867 14.5566 4.249 14.6269C4.31932 14.6972 4.4147 14.7367 4.51416 14.7367H10.8059V15.5975C10.8059 15.6969 10.8454 15.7923 10.9157 15.8626C10.9861 15.933 11.0815 15.9725 11.1809 15.9725ZM21.185 9.88135C21.4162 10.1438 21.7005 10.3541 22.019 10.4985C22.3376 10.6429 22.6831 10.718 23.0329 10.7189C23.3826 10.7199 23.7285 10.6465 24.0478 10.5038C24.3671 10.3611 24.6525 10.1522 24.885 9.89104C25.3727 9.96461 25.8178 10.2105 26.1396 10.5842C26.4615 10.9579 26.6387 11.4346 26.6392 11.9277V13.9867H20.7323V11.581C20.7327 11.0817 20.6139 10.5894 20.3857 10.1452C20.6308 10.0023 20.9031 9.91239 21.185 9.88135ZM13.7204 9.18729C13.9797 9.48745 14.3004 9.72843 14.6609 9.89391C15.0214 10.0594 15.4132 10.1455 15.8098 10.1465C16.2065 10.1474 16.5987 10.0631 16.96 9.89937C17.3212 9.73561 17.6431 9.49616 17.9038 9.19723C18.4796 9.27686 19.0072 9.56204 19.3892 10.0001C19.7713 10.4383 19.982 10.9997 19.9825 11.581V15.2225H11.5559V11.581C11.5596 10.9858 11.7823 10.4128 12.1816 9.9713C12.5808 9.52979 13.1286 9.25071 13.7204 9.18729ZM4.88916 13.9867V11.9277C4.89233 11.4225 5.07986 10.9358 5.41652 10.559C5.75318 10.1822 6.21582 9.94136 6.71754 9.8816C6.94873 10.1439 7.23297 10.3542 7.55147 10.4985C7.86996 10.6429 8.21546 10.718 8.56513 10.7189C8.9148 10.7197 9.26068 10.6464 9.57991 10.5037C9.89913 10.361 10.1844 10.1522 10.417 9.89104C10.6752 9.92964 10.9236 10.0173 11.1488 10.1493C10.9228 10.5926 10.8052 11.0834 10.8059 11.581V13.9867H4.88916Z" fill="#243B98" stroke="#243B98" stroke-width="0.2"/>
<path d="M25.5363 6.51984V5.43815C25.5363 4.76497 25.2689 4.11935 24.7929 3.64334C24.3169 3.16732 23.6713 2.8999 22.9981 2.8999C22.3249 2.8999 21.6793 3.16732 21.2033 3.64334C20.7273 4.11935 20.4598 4.76497 20.4598 5.43815V6.51984C20.4598 7.19303 20.7273 7.83864 21.2033 8.31465C21.6793 8.79067 22.3249 9.05809 22.9981 9.05809C23.6713 9.05809 24.3169 8.79067 24.7929 8.31465C25.2689 7.83864 25.5363 7.19303 25.5363 6.51984ZM21.2098 6.51984V5.43815C21.2098 4.96388 21.3982 4.50903 21.7336 4.17367C22.069 3.83831 22.5238 3.6499 22.9981 3.6499C23.4724 3.6499 23.9272 3.83831 24.2626 4.17367C24.5979 4.50903 24.7863 4.96388 24.7863 5.43815V6.51984C24.7863 6.99411 24.5979 7.44896 24.2626 7.78432C23.9272 8.11969 23.4724 8.30809 22.9981 8.30809C22.5238 8.30809 22.069 8.11969 21.7336 7.78432C21.3982 7.44896 21.2098 6.99411 21.2098 6.51984Z" fill="#243B98" stroke="#243B98" stroke-width="0.2"/>
<path d="M11.0686 6.51984V5.43815C11.0686 5.10482 11.0029 4.77476 10.8753 4.46681C10.7478 4.15885 10.5608 3.87904 10.3251 3.64334C10.0894 3.40764 9.80961 3.22067 9.50166 3.09312C9.1937 2.96556 8.86364 2.8999 8.53031 2.8999C8.19698 2.8999 7.86692 2.96556 7.55897 3.09312C7.25101 3.22067 6.9712 3.40764 6.7355 3.64334C6.4998 3.87904 6.31284 4.15885 6.18528 4.46681C6.05772 4.77476 5.99207 5.10482 5.99207 5.43815V6.51984C5.99207 6.85317 6.05772 7.18323 6.18528 7.49119C6.31284 7.79914 6.4998 8.07896 6.7355 8.31465C6.9712 8.55035 7.25101 8.73732 7.55897 8.86488C7.86692 8.99244 8.19698 9.05809 8.53031 9.05809C8.86364 9.05809 9.1937 8.99244 9.50166 8.86488C9.80961 8.73732 10.0894 8.55035 10.3251 8.31465C10.5608 8.07896 10.7478 7.79914 10.8753 7.49119C11.0029 7.18323 11.0686 6.85317 11.0686 6.51984ZM6.74206 6.51984V5.43815C6.74206 4.96388 6.93047 4.50903 7.26583 4.17367C7.60119 3.83831 8.05604 3.6499 8.53031 3.6499C9.00458 3.6499 9.45943 3.83831 9.79479 4.17367C10.1302 4.50903 10.3186 4.96388 10.3186 5.43815V6.51984C10.3186 6.75468 10.2723 6.98721 10.1824 7.20417C10.0926 7.42113 9.96085 7.61827 9.79479 7.78432C9.62874 7.95038 9.4316 8.0821 9.21464 8.17197C8.99768 8.26184 8.76515 8.30809 8.53031 8.30809C8.29547 8.30809 8.06294 8.26184 7.84598 8.17197C7.62902 8.0821 7.43188 7.95038 7.26583 7.78432C7.09977 7.61827 6.96805 7.42113 6.87819 7.20417C6.78832 6.98721 6.74206 6.75468 6.74206 6.51984Z" fill="#243B98" stroke="#243B98" stroke-width="0.2"/>
</svg>
