<svg width="40" height="48" viewBox="0 0 40 48" fill="none" xmlns="http://www.w3.org/2000/svg">
<path d="M26.2651 14.313H5.73495C4.93775 14.313 4.28918 14.9616 4.28918 15.7588V34.5539C4.28918 35.3512 4.93775 35.9998 5.73495 35.9998H26.2651C27.0623 35.9998 27.7108 35.3512 27.7108 34.554V15.7588C27.7108 14.9616 27.0623 14.313 26.2651 14.313ZM25.9759 34.2648H6.02412V16.0479H25.976V34.2648H25.9759Z" fill="#243B98"/>
<path d="M26.8434 20.0962H5.15662V21.8311H26.8434V20.0962Z" fill="#243B98"/>
<path d="M10.3615 12C9.88238 12 9.49402 12.3884 9.49402 12.8675V17.494C9.49402 17.9731 9.88238 18.3615 10.3615 18.3615C10.8406 18.3615 11.229 17.9731 11.229 17.494V12.8675C11.229 12.3884 10.8406 12 10.3615 12Z" fill="#243B98"/>
<path d="M21.9277 12C21.4485 12 21.0602 12.3884 21.0602 12.8675V17.494C21.0602 17.9731 21.4485 18.3615 21.9277 18.3615C22.4068 18.3615 22.7951 17.9731 22.7951 17.494V12.8675C22.7951 12.3884 22.4068 12 21.9277 12Z" fill="#243B98"/>
<path d="M19.3253 29.3491H12.9639C12.4848 29.3491 12.0964 29.7375 12.0964 30.2166C12.0964 30.6957 12.4848 31.0841 12.9639 31.0841H19.3253C19.8045 31.0841 20.1928 30.6957 20.1928 30.2166C20.1928 29.7375 19.8045 29.3491 19.3253 29.3491Z" fill="#243B98"/>
<path d="M19.3253 25.3013H12.9639C12.4848 25.3013 12.0964 25.6896 12.0964 26.1687C12.0964 26.6478 12.4848 27.0362 12.9639 27.0362H19.3253C19.8045 27.0362 20.1928 26.6479 20.1928 26.1687C20.1928 25.6896 19.8045 25.3013 19.3253 25.3013Z" fill="#243B98"/>
</svg>
