<svg width="17" height="17" viewBox="0 0 17 17" fill="none" xmlns="http://www.w3.org/2000/svg">
<g clip-path="url(#clip0_620_21083)">
<path d="M13.168 16.9999C13.241 16.9999 16.5411 16.9992 16.4688 16.9992C16.7621 16.9992 17.0001 16.7612 17.0001 16.468C16.7522 10.9026 18.3048 5.02979 12.5107 5.02979C11.3965 5.02979 10.5089 5.41016 9.86928 5.91308C9.86928 4.8782 8.75082 5.45054 6.16895 5.29683C5.8757 5.29683 5.6377 5.53483 5.6377 5.82808C5.85162 15.8623 5.16028 16.9992 6.16895 16.9992H9.46978C10.4282 16.9992 9.81828 15.6477 10.001 11.1994C10.001 9.36195 10.5323 9.00212 11.4503 9.00212C12.466 9.00212 12.6367 9.70762 12.6367 11.2886C12.8188 15.6569 12.2132 16.9999 13.168 16.9999ZM11.4503 7.93962C8.26916 7.93962 8.93853 11.4374 8.93853 15.9367H6.7002V6.35933H8.80678V7.27875C8.80678 7.78875 9.58382 8.0395 9.85441 7.52666C10.2029 6.86508 11.1082 6.09229 12.5107 6.09229C15.009 6.09229 15.9376 7.31983 15.9376 10.6228V15.9374H13.6992C13.6992 10.8771 14.2347 7.93962 11.4503 7.93962Z" fill="white"/>
<path d="M0.794755 5.29754C-0.211079 5.29754 0.477421 6.42025 0.263505 16.4687C0.263505 16.7619 0.501505 16.9999 0.794755 16.9999H4.09913C5.10496 16.9999 4.41646 15.8772 4.63038 5.82879C4.63038 4.9115 3.298 5.45267 0.794755 5.29754ZM3.56788 15.9374H1.326V6.36004H3.56788V15.9374Z" fill="white"/>
<path d="M2.44505 0C-0.796281 0 -0.776447 4.90804 2.44505 4.90804C5.66443 4.90804 5.68993 0 2.44505 0ZM2.44505 3.84554C0.626052 3.84554 0.609053 1.0625 2.44505 1.0625C4.28459 1.0625 4.26122 3.84554 2.44505 3.84554Z" fill="white"/>
</g>
<defs>
<clipPath id="clip0_620_21083">
<rect width="17" height="17" fill="white"/>
</clipPath>
</defs>
</svg>
