<svg width="24" height="24" viewBox="0 0 24 24" fill="none" xmlns="http://www.w3.org/2000/svg">
<path d="M12 0C6.26441 0 1.59814 4.47755 1.59814 9.98133C1.59814 17.4508 11.1421 23.61 11.5486 23.8685C11.6863 23.9563 11.843 24 12 24C12.1568 24 12.3138 23.956 12.4514 23.8685C12.858 23.61 22.4019 17.4508 22.4019 9.98133C22.4019 4.47755 17.7359 0 12 0ZM11.9998 22.1434C10.1524 20.857 3.28039 15.6849 3.28039 9.98133C3.28039 5.40506 7.19188 1.68225 12 1.68225C16.8082 1.68225 20.7197 5.40506 20.7197 9.98133C20.7197 15.6757 13.8463 20.8553 11.9998 22.1434Z" fill="#243B98"/>
<path d="M12 4.57031C9.38722 4.57031 7.26172 6.69581 7.26172 9.30863C7.26172 11.9212 9.38722 14.0467 12 14.0467C14.6128 14.0467 16.7383 11.9212 16.7383 9.30863C16.7383 6.69614 14.6128 4.57031 12 4.57031ZM12 12.3642C10.315 12.3642 8.94397 10.9934 8.94397 9.30839C8.94397 7.62333 10.315 6.25233 12 6.25233C13.6851 6.25233 15.0561 7.62309 15.0561 9.30839C15.0561 10.9934 13.6851 12.3642 12 12.3642Z" fill="#243B98"/>
</svg>
