<svg width="79" height="48" viewBox="0 0 79 48" fill="none" xmlns="http://www.w3.org/2000/svg">
<path d="M22.0882 1.85685L12.9351 1.80493L0 35.0068L9.98174 35.0546L10.5072 32.9132C11.1303 31.3576 11.068 31.1935 11.5457 29.4697H23.2305L25.133 35.0546L35.4055 34.9694L22.0882 1.85685ZM13.8698 22.4434L17.2344 12.8376L17.4587 12.2394L21.0476 22.4164L13.8698 22.4434Z" fill="#243B98"/>
<path d="M61.3692 9.89244L61.5437 10.5425C62.5614 14.3641 65.7266 16.8232 69.6146 16.8232H69.6832C70.7862 16.8203 71.8773 16.5956 72.8917 16.1624C73.9061 15.7293 74.823 15.0965 75.5879 14.3018C77.1386 12.7122 77.9998 10.5751 77.9847 8.35443C77.9695 6.13377 77.0792 4.00868 75.5069 2.4404V2.42794C73.9405 0.881209 71.8305 0.00963094 69.6292 0H69.5523C65.6747 0.0290771 62.5572 2.46532 61.6122 6.20796L61.4668 6.7895H65.5584L65.5791 6.73134C66.2022 4.97217 67.627 3.99602 69.5897 3.98148H69.6209C70.1882 3.98281 70.7497 4.09677 71.2728 4.31675C71.7958 4.53672 72.2699 4.85834 72.6677 5.26295C73.0816 5.67023 73.411 6.15509 73.6373 6.68982C73.8636 7.22454 73.9823 7.79864 73.9865 8.37927C73.9908 8.95989 73.8805 9.53565 73.6621 10.0736C73.4436 10.6116 73.1212 11.1012 72.7134 11.5145C72.3183 11.9293 71.8439 12.2605 71.3184 12.4884C70.7928 12.7164 70.2269 12.8365 69.6541 12.8417H69.6146C67.6644 12.8417 66.1191 11.7721 65.4774 9.97136L65.4483 9.89244H61.3692Z" fill="#243B98"/>
<path d="M56.2828 29.9308L56.1084 30.5808C55.0907 34.4024 51.9254 36.8615 48.0374 36.8615H47.9689C46.8659 36.8586 45.7747 36.6339 44.7603 36.2008C43.7459 35.7676 42.829 35.1348 42.0642 34.3401C40.5134 32.7505 39.6522 30.6134 39.6674 28.3928C39.6825 26.1721 40.5729 24.047 42.1451 22.4787L42.1555 22.4663C43.7219 20.9195 45.8319 20.048 48.0333 20.0383H48.0914C51.969 20.0674 55.0865 22.5037 56.0315 26.2463L56.1769 26.8278H52.0937L52.0729 26.7697C51.4498 25.0105 50.025 24.0344 48.0623 24.0198H48.0312C47.4638 24.0211 46.9023 24.1351 46.3793 24.3551C45.8562 24.5751 45.3821 24.8967 44.9843 25.3013C44.5705 25.7086 44.241 26.1934 44.0147 26.7282C43.7884 27.2629 43.6697 27.837 43.6655 28.4176C43.6612 28.9982 43.7715 29.574 43.99 30.112C44.2084 30.6499 44.5308 31.1396 44.9386 31.5528C45.3338 31.9676 45.8081 32.2988 46.3337 32.5268C46.8592 32.7547 47.4251 32.8749 47.9979 32.88H48.0374C49.9876 32.88 51.5329 31.8104 52.1747 30.0097L52.2037 29.9308H56.2828Z" fill="#243B98"/>
<path d="M67.2511 35.3722L54.0792 1.32715H50.2909L63.4503 35.3722H67.2511Z" fill="#243B98"/>
<path d="M4.56509 45.7902H1.99177C1.71346 46.4465 1.35415 47.3105 1.12776 47.9066H0.00830078L2.89731 40.6187H3.65331L6.53818 47.9128H5.42702L4.56509 45.7902ZM2.37392 44.812H4.16424L3.27947 42.274L2.37392 44.812Z" fill="#243B98"/>
<path d="M9.13849 41.7483C9.46084 41.4119 9.84764 41.1438 10.2758 40.96C10.704 40.7762 11.1648 40.6806 11.6308 40.6787C13.2757 40.6787 14.5717 41.7172 14.983 43.333H13.9549C13.7986 42.8451 13.4867 42.4219 13.0669 42.1282C12.6472 41.8345 12.1427 41.6865 11.6308 41.7068C11.2992 41.7092 10.9716 41.7789 10.6678 41.9117C10.364 42.0445 10.0903 42.2377 9.86334 42.4794C9.38764 42.9739 9.12193 43.6334 9.12193 44.3196C9.12193 45.0057 9.38764 45.6652 9.86334 46.1597C10.1594 46.4711 10.5314 46.7002 10.9428 46.8244C11.3542 46.9486 11.7908 46.9637 12.2098 46.8681C12.6287 46.7726 13.0156 46.5698 13.3325 46.2795C13.6494 45.9893 13.8854 45.6216 14.0172 45.2127H15.0349C14.6195 46.8472 13.3069 47.9584 11.6308 47.9584C11.1645 47.9588 10.703 47.8642 10.2745 47.6803C9.84596 47.4964 9.45943 47.227 9.13849 46.8887C8.47834 46.1959 8.11011 45.2756 8.11011 44.3185C8.11011 43.3615 8.47834 42.4412 9.13849 41.7483Z" fill="#243B98"/>
<path d="M24.0259 44.3301C24.0171 45.2839 23.6459 46.1987 22.9875 46.8889C22.6665 47.2271 22.28 47.4965 21.8515 47.6804C21.423 47.8643 20.9615 47.9589 20.4952 47.9585C18.8191 47.9585 17.5044 46.8473 17.0931 45.2128H18.1108C18.2422 45.6222 18.4779 45.9903 18.7947 46.2809C19.1116 46.5715 19.4987 46.7746 19.9178 46.8702C20.337 46.9658 20.7739 46.9505 21.1854 46.826C21.5969 46.7014 21.9689 46.4718 22.2647 46.1599C22.7404 45.6654 23.0061 45.0059 23.0061 44.3197C23.0061 43.6335 22.7404 42.974 22.2647 42.4795C22.038 42.2374 21.7644 42.044 21.4605 41.9112C21.1567 41.7783 20.8289 41.7088 20.4972 41.7069C19.9872 41.6917 19.4862 41.8433 19.0701 42.1387C18.6541 42.434 18.3457 42.8571 18.1918 43.3435H17.1534C17.5688 41.7173 18.8606 40.6892 20.5055 40.6892C20.9715 40.6911 21.4323 40.7867 21.8605 40.9705C22.2887 41.1543 22.6755 41.4224 22.9979 41.7588C23.6538 42.4548 24.0212 43.3737 24.0259 44.3301Z" fill="#243B98"/>
<path d="M27.1227 41.7069C27.4616 41.3623 27.8656 41.0886 28.3114 40.9017C28.7571 40.7149 29.2356 40.6187 29.7189 40.6187C30.2022 40.6187 30.6807 40.7149 31.1264 40.9017C31.5721 41.0886 31.9762 41.3623 32.315 41.7069C32.9969 42.399 33.3792 43.3315 33.3792 44.3031C33.3792 45.2746 32.9969 46.2072 32.315 46.8992C31.9765 47.2444 31.5725 47.5186 31.1267 47.7057C30.681 47.8929 30.2023 47.9893 29.7189 47.9893C29.2354 47.9893 28.7568 47.8929 28.311 47.7057C27.8652 47.5186 27.4613 47.2444 27.1227 46.8992C26.4408 46.2072 26.0586 45.2746 26.0586 44.3031C26.0586 43.3315 26.4408 42.399 27.1227 41.7069ZM31.5736 42.4484C31.3288 42.2015 31.0376 42.0055 30.7169 41.8715C30.3961 41.7375 30.052 41.6681 29.7043 41.6674C29.3611 41.6686 29.0215 41.7383 28.7055 41.8724C28.3896 42.0065 28.1035 42.2023 27.8642 42.4484C27.6198 42.6927 27.4259 42.9829 27.2936 43.3022C27.1613 43.6215 27.0932 43.9637 27.0932 44.3093C27.0932 44.6549 27.1613 44.9972 27.2936 45.3165C27.4259 45.6358 27.6198 45.9259 27.8642 46.1702C28.1038 46.4159 28.3899 46.6115 28.7058 46.7456C29.0217 46.8796 29.3612 46.9495 29.7043 46.9512C30.2246 46.948 30.7324 46.7916 31.1643 46.5014C31.5961 46.2113 31.9328 45.8002 32.1323 45.3197C32.3318 44.8392 32.3852 44.3105 32.2858 43.7998C32.1864 43.2891 31.9387 42.819 31.5736 42.4484Z" fill="#243B98"/>
<path d="M35.7461 45.7487V40.7205H36.7949V45.7591C36.7949 46.5504 37.6486 46.9409 38.4087 46.9409C39.1689 46.9409 40.0121 46.54 40.0121 45.7487V40.7205H41.061V45.7591C41.061 47.213 39.6424 47.9793 38.4087 47.9793C37.1439 47.9793 35.7461 47.2192 35.7461 45.7487Z" fill="#243B98"/>
<path d="M43.4785 47.9128V40.7058L44.2802 40.7162L47.7861 45.786V40.71H48.8245V47.9128H47.9938L44.517 42.8866V47.9128H43.4785Z" fill="#243B98"/>
<path d="M53.0283 47.9378V41.7589H50.8496V40.7205H56.2372V41.7589H54.0668V47.9378H53.0283Z" fill="#243B98"/>
<path d="M61.5104 45.7902H58.9309C58.6526 46.4465 58.2932 47.3105 58.0669 47.9066H56.9453L59.8343 40.6187H60.5945L63.4835 47.9128H62.3744L61.5104 45.7902ZM59.3151 44.812H61.1033L60.2186 42.274L59.3151 44.812Z" fill="#243B98"/>
<path d="M65.2946 47.9128V40.7058L66.0963 40.7162L69.6021 45.786V40.71H70.6406V47.9128H69.8098L66.3351 42.8866V47.9128H65.2946Z" fill="#243B98"/>
<path d="M74.8443 47.9378V41.7589H72.6656V40.7205H78.0532V41.7589H75.8828V47.9378H74.8443Z" fill="#243B98"/>
<defs>
</defs>
</svg>
