<svg width="32" height="32" viewBox="0 0 32 32" fill="none" xmlns="http://www.w3.org/2000/svg">
<path d="M3.42643 11.3939L6.58537 12.0251C6.68289 12.0446 6.78417 12.0246 6.86692 11.9694C6.94967 11.9142 7.00712 11.8285 7.02662 11.7309L7.33362 10.1954L8.09681 10.2891C8.4225 10.7834 8.85255 11.2002 9.35669 11.5104C9.86082 11.8205 10.4268 12.0164 11.0148 12.0843L10.5124 17.2455C10.5074 17.2976 10.5133 17.3501 10.5297 17.3998C10.5462 17.4494 10.5728 17.4951 10.608 17.5338C10.6431 17.5725 10.686 17.6035 10.7338 17.6247C10.7816 17.6459 10.8334 17.6568 10.8857 17.6568C10.8948 17.6568 10.9041 17.6568 10.9132 17.6558C11.6945 17.5984 12.4312 17.2702 12.9964 16.7278C12.7672 17.2968 12.6591 17.9073 12.6789 18.5203C12.6987 19.1334 12.846 19.7357 13.1115 20.2887C13.3769 20.8416 13.7546 21.3333 14.2206 21.7322C14.6865 22.1312 15.2305 22.4286 15.8178 22.6057C16.405 22.7828 17.0228 22.8356 17.6316 22.7607C18.2404 22.6859 18.827 22.485 19.3538 22.1709C19.8807 21.8568 20.3364 21.4364 20.6918 20.9365C21.0472 20.4365 21.2946 19.868 21.4181 19.2672C21.4778 18.9744 21.5079 18.6764 21.5078 18.3776C21.5085 17.629 21.3177 16.8927 20.9535 16.2387C21.3462 16.5145 21.7845 16.7189 22.2483 16.8424C22.3095 16.8587 22.3737 16.8593 22.4351 16.844C22.4966 16.8288 22.5531 16.7983 22.5995 16.7553C22.646 16.7123 22.6808 16.6583 22.7007 16.5982C22.7207 16.5381 22.7251 16.474 22.7136 16.4118L21.7595 11.2542L23.4493 13.2192C23.8828 13.7268 24.4761 14.0717 25.1316 14.1972C25.7872 14.3226 26.4659 14.2212 27.0562 13.9096C27.1052 13.8839 27.1479 13.8477 27.1813 13.8036C27.2147 13.7595 27.2379 13.7085 27.2492 13.6544C27.2606 13.6002 27.2598 13.5442 27.247 13.4904C27.2341 13.4366 27.2095 13.3862 27.1749 13.3431L24.4194 9.90012L25.4632 10.3413C25.7929 10.4912 26.151 10.5687 26.5132 10.5687C27.0011 10.5691 27.4791 10.4305 27.8912 10.1691C28.3032 9.90773 28.6323 9.53437 28.8398 9.09274C28.8616 9.04604 28.8736 8.99534 28.8749 8.94382C28.8762 8.8923 28.8669 8.84105 28.8476 8.79328C28.8282 8.74551 28.7992 8.70224 28.7624 8.66618C28.7256 8.63012 28.6817 8.60203 28.6336 8.58368L22.699 6.32574L24.8351 5.93305C25.4993 5.81992 26.0924 5.45018 26.4865 4.9036C26.8805 4.35703 27.0439 3.67744 26.9413 3.01149C26.9334 2.96104 26.9152 2.91275 26.888 2.86957C26.8607 2.82638 26.8249 2.78923 26.7828 2.76037C26.7406 2.73151 26.693 2.71157 26.6429 2.70175C26.5928 2.69194 26.5412 2.69247 26.4913 2.7033L18.1629 4.51793C17.8424 4.27773 17.4689 4.11786 17.0738 4.05174L11.6351 3.04693C11.0749 2.94394 10.498 2.98117 9.95581 3.1553L9.86475 3.18468H8.73525L9.08287 1.4458C9.09253 1.39751 9.09257 1.34779 9.08301 1.29947C9.07345 1.25116 9.05446 1.20521 9.02714 1.16423C8.99981 1.12326 8.96469 1.08806 8.92376 1.06067C8.88284 1.03327 8.83692 1.0142 8.78862 1.00455L5.62968 0.372989C5.53216 0.353508 5.43089 0.373564 5.34815 0.428746C5.26541 0.483928 5.20798 0.569716 5.18849 0.667239L3.13225 10.9528C3.1128 11.0503 3.13286 11.1515 3.18803 11.2342C3.2432 11.3169 3.32895 11.3744 3.42643 11.3939ZM20.6831 19.1169C20.4945 20.0389 19.9588 20.8533 19.1869 21.3917C18.4149 21.93 17.4657 22.1513 16.5352 22.0097C15.6048 21.868 14.7643 21.3744 14.1875 20.6307C13.6107 19.887 13.3417 18.9502 13.436 18.0138C13.5303 17.0773 13.9807 16.2129 14.6942 15.5992C15.4077 14.9854 16.3297 14.6693 17.2697 14.716C18.2096 14.7627 19.0958 15.1687 19.7449 15.8502C20.394 16.5317 20.7565 17.4365 20.7575 18.3776C20.7577 18.6259 20.7328 18.8736 20.6831 19.1169ZM13.8581 15.3738C13.9353 15.1458 13.9879 14.9102 14.0149 14.671L14.2836 12.2864C14.3654 11.5614 14.4766 10.8309 14.6143 10.1141C14.8336 9.73801 15.1608 9.43644 15.5536 9.24849C15.9463 9.06054 16.3864 8.99486 16.8169 9.05997C17.2474 9.12509 17.6484 9.31799 17.9679 9.61368C18.2875 9.90937 18.5109 10.2942 18.6092 10.7184L19.3291 13.8262C19.409 14.171 19.5334 14.5039 19.6991 14.8166C18.827 14.1759 17.7496 13.8786 16.6723 13.9813C15.5951 14.0841 14.5933 14.5798 13.8581 15.3738ZM26.2737 13.4176C25.8712 13.5302 25.4449 13.5253 25.0451 13.4035C24.6453 13.2817 24.2887 13.048 24.0174 12.7301L21.809 10.1618L21.4891 9.79512L21.2616 8.56518L22.9678 9.28624L26.2737 13.4176ZM27.946 9.12449C27.6949 9.44371 27.344 9.66958 26.9495 9.76601C26.5549 9.86244 26.1394 9.82388 25.7694 9.65649C25.7662 9.65499 25.7631 9.65362 25.7597 9.65224L21.0839 7.67593C20.9839 7.32659 20.8184 6.99949 20.596 6.71212L21.2766 6.58712L27.946 9.12449ZM24.7085 5.19324C24.7063 5.19324 24.7042 5.19393 24.7022 5.19437L19.9439 6.06937L18.8737 5.13061L26.2174 3.53018C26.1889 3.93649 26.0246 4.32142 25.751 4.62315C25.4774 4.92487 25.1103 5.12587 24.7087 5.19386L24.7085 5.19324ZM9.92368 3.93468C9.96274 3.93466 10.0016 3.92857 10.0387 3.91661L10.1859 3.86918C10.6098 3.73305 11.0609 3.70393 11.4988 3.78443L16.9409 4.78987L16.9477 4.79111C17.2717 4.84466 17.5742 4.98789 17.821 5.20455L19.7305 6.88018C20.0832 7.19062 20.3217 7.61032 20.4079 8.07224L21.8562 15.9017C21.4075 15.6864 21.013 15.3728 20.702 14.9842C20.391 14.5956 20.1715 14.142 20.0598 13.657L19.3399 10.5491C19.2062 9.97229 18.9006 9.44964 18.4634 9.05033C18.0262 8.65103 17.478 8.3939 16.8915 8.31297C16.3049 8.23204 15.7076 8.33113 15.1787 8.59712C14.6497 8.86311 14.2139 9.28347 13.9291 9.80255C13.9104 9.83656 13.8971 9.87327 13.8897 9.91137C13.7428 10.6667 13.6246 11.4376 13.5384 12.2024L13.2697 14.5871C13.2096 15.117 12.9895 15.6161 12.6386 16.0179C12.2877 16.4196 11.8227 16.7048 11.3056 16.8356L11.7987 11.7731C11.8037 11.7216 11.798 11.6696 11.782 11.6205C11.7659 11.5713 11.7399 11.526 11.7055 11.4874C11.6711 11.4488 11.6291 11.4177 11.5822 11.3961C11.5352 11.3744 11.4843 11.3628 11.4326 11.3618C10.8679 11.3526 10.315 11.1993 9.82624 10.9164C9.33751 10.6334 8.92922 10.2302 8.64012 9.74512C8.61076 9.69638 8.5707 9.65497 8.52297 9.62401C8.47524 9.59305 8.42109 9.57336 8.36462 9.56643L7.48118 9.45824L8.5855 3.93468H9.92368ZM5.85037 1.18199L8.27393 1.66649L6.36468 11.2165L3.94118 10.7321L5.85037 1.18199Z" fill="#243B98" stroke="#243B98" stroke-width="0.2"/>
<path d="M7.69792 3.06961C7.69792 2.87882 7.64135 2.69233 7.53536 2.5337C7.42937 2.37506 7.27872 2.25143 7.10246 2.17841C6.9262 2.1054 6.73225 2.0863 6.54513 2.12351C6.35802 2.16073 6.18614 2.25259 6.05123 2.38749C5.91632 2.52239 5.82445 2.69426 5.78722 2.88138C5.74999 3.06849 5.76909 3.26245 5.84209 3.43871C5.91509 3.61497 6.03872 3.76563 6.19734 3.87163C6.35596 3.97763 6.54246 4.03422 6.73324 4.03423C6.98899 4.03395 7.23419 3.93223 7.41504 3.75139C7.59589 3.57055 7.69762 3.32536 7.69792 3.06961ZM6.51868 3.06961C6.51868 3.02715 6.53126 2.98566 6.55485 2.95036C6.57844 2.91506 6.61196 2.88755 6.65118 2.87131C6.6904 2.85507 6.73356 2.85082 6.77519 2.85911C6.81683 2.8674 6.85507 2.88784 6.88508 2.91786C6.9151 2.94789 6.93553 2.98614 6.94381 3.02777C6.95208 3.06941 6.94782 3.11257 6.93157 3.15178C6.91531 3.191 6.8878 3.22451 6.85249 3.24809C6.81719 3.27167 6.77569 3.28424 6.73324 3.28423C6.67635 3.28415 6.62182 3.26151 6.58161 3.22127C6.5414 3.18103 6.51879 3.12649 6.51874 3.06961H6.51868Z" fill="#243B98" stroke="#243B98" stroke-width="0.2"/>
<path d="M17.2006 24.0093C15.2784 24.0115 13.4356 24.776 12.0765 26.1352C10.7173 27.4943 9.95275 29.3371 9.95056 31.2593C9.95056 31.3587 9.99007 31.4541 10.0604 31.5244C10.1307 31.5948 10.2261 31.6343 10.3256 31.6343H24.0756C24.175 31.6343 24.2704 31.5948 24.3407 31.5244C24.4111 31.4541 24.4506 31.3587 24.4506 31.2593C24.4484 29.3371 23.6839 27.4943 22.3247 26.1352C20.9655 24.776 19.1227 24.0115 17.2006 24.0093ZM10.7113 30.8843C10.8064 29.2276 11.5315 27.67 12.738 26.5308C13.9446 25.3915 15.5412 24.7569 17.2006 24.7569C18.86 24.7569 20.4566 25.3915 21.6631 26.5308C22.8696 27.67 23.5948 29.2276 23.6899 30.8843H10.7113Z" fill="#243B98" stroke="#243B98" stroke-width="0.2"/>
</svg>
