<svg width="24" height="24" viewBox="0 0 24 24" fill="none" xmlns="http://www.w3.org/2000/svg">
<path d="M19.1605 14.2476C18.6897 13.7574 18.1217 13.4952 17.5198 13.4952C16.9227 13.4952 16.3499 13.7525 15.8596 14.2428L14.3256 15.7719C14.1994 15.7039 14.0732 15.6408 13.9519 15.5777C13.7771 15.4903 13.6121 15.4078 13.4713 15.3204C12.0344 14.4078 10.7286 13.2185 9.47618 11.6797C8.86939 10.9127 8.46163 10.2671 8.16552 9.61177C8.56357 9.2477 8.9325 8.86906 9.29172 8.50499C9.42764 8.36907 9.56356 8.22829 9.69948 8.09237C10.7189 7.07297 10.7189 5.7526 9.69948 4.73319L8.37425 3.40797C8.22377 3.25748 8.06843 3.10215 7.9228 2.94681C7.63154 2.64584 7.32572 2.33516 7.01019 2.04391C6.53932 1.57789 5.97622 1.33032 5.384 1.33032C4.79177 1.33032 4.21896 1.57789 3.73353 2.04391C3.72868 2.04876 3.72868 2.04876 3.72383 2.05361L2.07336 3.71864C1.45201 4.33999 1.09764 5.09727 1.01997 5.9759C0.903471 7.39335 1.32094 8.71373 1.64133 9.57779C2.42772 11.6991 3.60247 13.6651 5.35487 15.7719C7.48106 18.3107 10.0393 20.3155 12.9616 21.7281C14.0781 22.2572 15.5683 22.8835 17.2334 22.9902C17.3353 22.9951 17.4421 23 17.5392 23C18.6605 23 19.6023 22.5971 20.3401 21.7961C20.345 21.7864 20.3547 21.7815 20.3595 21.7718C20.612 21.466 20.9032 21.1893 21.209 20.8932C21.4178 20.6942 21.6314 20.4854 21.8401 20.267C22.3207 19.767 22.5731 19.1845 22.5731 18.5874C22.5731 17.9855 22.3158 17.4078 21.8255 16.9224L19.1605 14.2476ZM20.8984 19.3592C20.8935 19.3592 20.8935 19.3641 20.8984 19.3592C20.7091 19.5631 20.5149 19.7476 20.3061 19.9515C19.9906 20.2524 19.6702 20.5679 19.3693 20.9223C18.879 21.4466 18.3013 21.6941 17.544 21.6941C17.4712 21.6941 17.3936 21.6941 17.3207 21.6893C15.879 21.5971 14.5392 21.034 13.5344 20.5534C10.7868 19.2233 8.37425 17.335 6.36942 14.9418C4.7141 12.9467 3.60732 11.102 2.87432 9.12149C2.42287 7.91277 2.25782 6.97103 2.33064 6.08269C2.37918 5.51474 2.59763 5.04387 3.00053 4.64096L4.65585 2.98564C4.89371 2.76234 5.14614 2.64099 5.39371 2.64099C5.69953 2.64099 5.9471 2.82545 6.10244 2.98079C6.10729 2.98564 6.11215 2.9905 6.117 2.99535C6.41311 3.27205 6.69466 3.55845 6.99078 3.86427C7.14126 4.01961 7.2966 4.17495 7.45193 4.33514L8.77716 5.66037C9.29172 6.17492 9.29172 6.65065 8.77716 7.1652C8.63639 7.30598 8.50047 7.44675 8.35969 7.58267C7.95193 8.00014 7.56358 8.38849 7.14126 8.76712C7.13155 8.77683 7.12184 8.78169 7.11699 8.7914C6.69952 9.20887 6.77719 9.61663 6.86456 9.89332C6.86942 9.90789 6.87427 9.92245 6.87913 9.93701C7.22378 10.772 7.70921 11.5584 8.44707 12.4952L8.45192 12.5001C9.79171 14.1506 11.2043 15.4369 12.7626 16.4224C12.9616 16.5486 13.1655 16.6505 13.3596 16.7476C13.5344 16.835 13.6994 16.9175 13.8402 17.0049C13.8596 17.0146 13.879 17.0292 13.8985 17.0389C14.0635 17.1214 14.2188 17.1602 14.379 17.1602C14.7819 17.1602 15.0344 16.9078 15.1169 16.8253L16.7771 15.1651C16.9421 15.0001 17.2042 14.801 17.5101 14.801C17.811 14.801 18.0586 14.9903 18.2091 15.1554C18.2139 15.1602 18.2139 15.1602 18.2188 15.1651L20.8935 17.8398C21.3935 18.335 21.3935 18.8447 20.8984 19.3592Z" fill="#243B98" stroke="#243B98" stroke-width="0.2"/>
<path d="M13.4131 5.47116C14.6849 5.68475 15.8402 6.28669 16.7626 7.209C17.6849 8.13132 18.282 9.28665 18.5004 10.5585C18.5538 10.8789 18.8305 11.1022 19.146 11.1022C19.1849 11.1022 19.2188 11.0973 19.2577 11.0925C19.6169 11.0342 19.8548 10.6944 19.7965 10.3352C19.5344 8.79636 18.8062 7.39347 17.6946 6.28183C16.583 5.1702 15.1801 4.44205 13.6412 4.17992C13.282 4.12166 12.9471 4.35953 12.884 4.71389C12.8209 5.06825 13.0539 5.41291 13.4131 5.47116Z" fill="#243B98"/>
<path d="M23.9564 10.1458C23.5244 7.61184 22.3302 5.30604 20.4953 3.47111C18.6604 1.63618 16.3546 0.442024 13.8206 0.00999089C13.4663 -0.0531151 13.1313 0.1896 13.0682 0.543965C13.01 0.903184 13.2478 1.23813 13.607 1.30124C15.8692 1.68473 17.9322 2.75753 19.573 4.39343C21.2137 6.03419 22.2817 8.09727 22.6652 10.3594C22.7186 10.6798 22.9953 10.9031 23.3108 10.9031C23.3496 10.9031 23.3836 10.8982 23.4225 10.8934C23.7768 10.84 24.0195 10.5002 23.9564 10.1458Z" fill="#243B98"/>
</svg>
