<svg width="40" height="48" viewBox="0 0 40 48" fill="none" xmlns="http://www.w3.org/2000/svg">
<g clip-path="url(#clip0_1014_111394)">
<path d="M27.7381 24.7973L15.9468 13.006C15.8081 12.8673 15.6279 12.7779 15.4335 12.752L9.86534 12.0076C9.58874 11.9716 9.31209 12.0648 9.11526 12.2616L4.26178 17.1151C4.06467 17.3119 3.97088 17.5894 4.00777 17.8652L4.75217 23.4333C4.77838 23.6277 4.86739 23.8082 5.00618 23.9466L16.7975 35.7379C16.972 35.9124 17.2004 35.9997 17.429 35.9997C17.6574 35.9997 17.8861 35.9125 18.0609 35.7377L27.7381 26.0604C28.0871 25.7118 28.0871 25.146 27.7381 24.7973ZM17.4291 33.8433L6.48309 22.8973L5.83722 18.0665L10.0663 13.8377L14.8969 14.4835L25.8432 25.4292L17.4291 33.8433Z" fill="#243B98"/>
<path d="M13.5347 16.9072C13.186 16.5583 12.6203 16.5583 12.2716 16.9072L9.11537 20.0635C8.76639 20.4122 8.76639 20.9779 9.11537 21.3266C9.28955 21.5011 9.51825 21.5884 9.7469 21.5884C9.97527 21.5884 10.204 21.5011 10.3784 21.3266L13.5347 18.1704C13.8837 17.8217 13.8837 17.2559 13.5347 16.9072Z" fill="#243B98"/>
</g>
<defs>
<clipPath id="clip0_1014_111394">
<rect width="24" height="24" fill="white" transform="translate(4 12)"/>
</clipPath>
</defs>
</svg>
