<svg width="42" height="41" viewBox="0 0 42 41" fill="none" xmlns="http://www.w3.org/2000/svg">
<path d="M28.5006 15.6607C28.5006 9.09538 23.1783 3.77344 16.6133 3.77344C10.0479 3.77344 4.72595 9.09538 4.72595 15.6607C4.72595 22.2258 10.0479 27.5481 16.6133 27.5481C23.1751 27.5403 28.4928 22.2226 28.5006 15.6607ZM16.6133 26.2272C10.7773 26.2272 6.04676 21.4964 6.04676 15.6607C6.04676 9.8248 10.7773 5.09425 16.6133 5.09425C22.4489 5.09425 27.1798 9.8248 27.1798 15.6607C27.1727 21.4935 22.446 26.2202 16.6133 26.2272Z" fill="#243B98"/>
<path d="M40.8352 34.2785L33.6369 27.0801L34.1038 26.6132L31.3016 23.811L30.3693 24.7449L28.9427 23.3209C32.8571 17.0347 31.4344 8.81223 25.6356 4.2068C19.8367 -0.398948 11.5055 0.0770088 6.26866 5.31286C1.03217 10.549 0.554918 18.8799 5.15971 24.6794C9.7645 30.4792 17.9867 31.9029 24.2735 27.9895L25.7007 29.4164L24.7681 30.3496L27.5697 33.1512L28.0366 32.6842L35.235 39.8826C36.7825 41.4301 39.2916 41.4301 40.8394 39.8826C42.3869 38.3351 42.3869 35.826 40.8394 34.2785H40.8352ZM3.40486 15.6604C3.40937 8.37271 9.3195 2.46776 16.6072 2.46937C23.8949 2.47098 29.8024 8.3782 29.8037 15.6659C29.8053 22.9536 23.9007 28.8637 16.613 28.8685C9.32176 28.8601 3.41324 22.9513 3.40486 15.6604ZM26.6313 28.4829L25.3831 27.2346C26.4414 26.4323 27.3849 25.4888 28.1872 24.4305L29.4355 25.6787L26.6313 28.4829ZM31.3016 25.68L32.2361 26.6139L27.5665 31.2835L26.6326 30.3496L31.3016 25.68ZM39.9014 38.9487C38.8688 39.9784 37.1975 39.9784 36.165 38.9487L28.9666 31.7504L32.7024 28.0143L39.9007 35.213C40.9294 36.2459 40.9297 37.9156 39.9014 38.9487Z" fill="#243B98"/>
<path d="M23.2172 20.2833V8.396H19.2547V20.2833H18.5943V11.0376H14.6319V20.2833H13.9715V13.6792H10.009V20.2833H8.68823V21.6041H24.538V20.2833H23.2172ZM11.3299 20.2833V15.0001H12.6507V20.2833H11.3299ZM15.9527 20.2833V12.3584H17.2735V20.2833H15.9527ZM20.5756 20.2833V9.71681H21.8964V20.2833H20.5756Z" fill="#243B98"/>
<defs>
<rect width="40" height="40" fill="white" transform="translate(2 1)"/>
</defs>
</svg>
