<svg width="40" height="48" viewBox="0 0 40 48" fill="none" xmlns="http://www.w3.org/2000/svg">
<path d="M16 12C9.38336 12 4 17.3831 4 24C4 30.6169 9.38336 36 16 36C22.6169 36 28 30.6169 28 24C28 17.3831 22.6166 12 16 12ZM16 34.2482C10.3492 34.2482 5.75181 29.6508 5.75181 24C5.75181 18.3492 10.3492 13.7518 16 13.7518C21.6508 13.7518 26.2482 18.3492 26.2482 23.9997C26.2482 29.6508 21.6508 34.2482 16 34.2482Z" fill="#243B98"/>
<path d="M20.0877 24H16.2921V18.7446C16.2921 18.2608 15.9 17.8687 15.4162 17.8687C14.9324 17.8687 14.5403 18.2608 14.5403 18.7446V24.8759C14.5403 25.3597 14.9324 25.7519 15.4162 25.7519H20.0877C20.5715 25.7519 20.9636 25.3597 20.9636 24.8759C20.9636 24.3922 20.5715 24 20.0877 24Z" fill="#243B98"/>
</svg>
