<svg width="49" height="64" viewBox="0 0 49 64" fill="none" xmlns="http://www.w3.org/2000/svg">
<path d="M48.0647 23.5C49.5647 41.5 23.645 64 23.645 64C23.645 64 -1.4353 41.5 0.0646972 23.5C1.5647 5.5 13.5647 0 23.5647 0C33.5647 0 46.5647 5.5 48.0647 23.5Z" fill="white"/>
<g clip-path="url(#clip0_138_92521)">
<path d="M16.7551 11.8128L12.7127 11.79L7 26.3159L11.4084 26.3368L11.6404 25.3999C11.9156 24.7193 11.8881 24.6476 12.0991 23.8934H17.2596L18.0998 26.3368L22.6366 26.2995L16.7551 11.8128ZM13.1255 20.8194L14.6115 16.6168L14.7105 16.3551L16.2956 20.8076L13.1255 20.8194Z" fill="#243B98"/>
<path d="M34.1033 15.3279L34.1804 15.6124C34.6298 17.2843 36.0277 18.3601 37.7449 18.3601H37.7751C38.2623 18.3589 38.7442 18.2606 39.1922 18.0711C39.6402 17.8816 40.0451 17.6047 40.3829 17.257C41.0678 16.5616 41.4481 15.6266 41.4414 14.6551C41.4347 13.6835 41.0415 12.7538 40.3471 12.0677V12.0622C39.6553 11.3855 38.7235 11.0042 37.7513 11H37.7173C36.0048 11.0127 34.628 12.0786 34.2106 13.716L34.1464 13.9704H35.9534L35.9626 13.945C36.2378 13.1753 36.867 12.7483 37.7339 12.7419H37.7476C37.9982 12.7425 38.2462 12.7923 38.4772 12.8886C38.7082 12.9848 38.9176 13.1255 39.0932 13.3025C39.276 13.4807 39.4215 13.6929 39.5215 13.9268C39.6214 14.1607 39.6738 14.4119 39.6757 14.6659C39.6776 14.92 39.6289 15.1718 39.5324 15.4072C39.4359 15.6426 39.2935 15.8568 39.1134 16.0376C38.9389 16.2191 38.7294 16.364 38.4973 16.4637C38.2652 16.5634 38.0153 16.616 37.7623 16.6182H37.7449C36.8836 16.6182 36.2011 16.1503 35.9177 15.3625L35.9048 15.3279H34.1033Z" fill="#243B98"/>
<path d="M31.8571 24.0945L31.78 24.379C31.3305 26.0509 29.9326 27.1267 28.2155 27.1267H28.1853C27.6981 27.1255 27.2162 27.0272 26.7682 26.8377C26.3202 26.6482 25.9153 26.3713 25.5775 26.0236C24.8926 25.3282 24.5122 24.3932 24.5189 23.4217C24.5256 22.4501 24.9188 21.5204 25.6132 20.8343L25.6178 20.8288C26.3096 20.1521 27.2415 19.7708 28.2137 19.7666H28.2394C29.9519 19.7793 31.3287 20.8452 31.7461 22.4826L31.8103 22.737H30.0069L29.9978 22.7116C29.7226 21.9419 29.0933 21.5149 28.2265 21.5085H28.2128C27.9622 21.5091 27.7142 21.5589 27.4832 21.6552C27.2522 21.7514 27.0428 21.8921 26.8671 22.0691C26.6844 22.2473 26.5389 22.4595 26.4389 22.6934C26.339 22.9273 26.2866 23.1785 26.2847 23.4325C26.2828 23.6866 26.3315 23.9385 26.428 24.1738C26.5245 24.4092 26.6668 24.6234 26.847 24.8042C27.0215 24.9857 27.231 25.1306 27.4631 25.2303C27.6952 25.33 27.9451 25.3826 28.1981 25.3848H28.2155C29.0768 25.3848 29.7593 24.9169 30.0427 24.1291L30.0555 24.0945H31.8571Z" fill="#243B98"/>
<path d="M36.7009 26.4758L30.8836 11.5811H29.2106L35.0223 26.4758H36.7009Z" fill="#243B98"/>
<path d="M9.01614 31.0331H7.87965C7.75673 31.3202 7.59805 31.6982 7.49807 31.959H7.00366L8.27957 28.7705H8.61346L9.88754 31.9617H9.3968L9.01614 31.0331ZM8.04842 30.6051H8.8391L8.44835 29.4947L8.04842 30.6051Z" fill="#243B98"/>
<path d="M11.036 29.2648C11.1783 29.1176 11.3492 29.0003 11.5383 28.9199C11.7274 28.8395 11.9309 28.7977 12.1367 28.7969C12.8632 28.7969 13.4355 29.2512 13.6171 29.9581H13.1631C13.0941 29.7447 12.9563 29.5595 12.7709 29.431C12.5856 29.3025 12.3628 29.2378 12.1367 29.2467C11.9902 29.2477 11.8455 29.2782 11.7114 29.3363C11.5772 29.3944 11.4563 29.4789 11.3561 29.5847C11.146 29.801 11.0287 30.0896 11.0287 30.3898C11.0287 30.6899 11.146 30.9785 11.3561 31.1948C11.4869 31.3311 11.6512 31.4313 11.8328 31.4856C12.0145 31.5399 12.2073 31.5465 12.3924 31.5048C12.5774 31.463 12.7483 31.3742 12.8882 31.2472C13.0282 31.1203 13.1324 30.9594 13.1906 30.7805H13.6401C13.4566 31.4956 12.8769 31.9817 12.1367 31.9817C11.9307 31.9819 11.7269 31.9405 11.5377 31.8601C11.3484 31.7796 11.1777 31.6618 11.036 31.5138C10.7444 31.2106 10.5818 30.808 10.5818 30.3893C10.5818 29.9706 10.7444 29.568 11.036 29.2648V29.2648Z" fill="#243B98"/>
<path d="M17.6109 30.3946C17.607 30.8119 17.4431 31.2121 17.1523 31.5141C17.0105 31.6621 16.8398 31.7799 16.6506 31.8604C16.4613 31.9408 16.2575 31.9822 16.0516 31.9821C15.3113 31.9821 14.7307 31.4959 14.5491 30.7808H14.9985C15.0565 30.9599 15.1606 31.121 15.3006 31.2481C15.4405 31.3753 15.6115 31.4641 15.7966 31.5059C15.9817 31.5478 16.1746 31.5411 16.3564 31.4866C16.5381 31.4321 16.7024 31.3317 16.8331 31.1952C17.0431 30.9788 17.1605 30.6903 17.1605 30.3901C17.1605 30.0899 17.0431 29.8014 16.8331 29.585C16.733 29.4791 16.6121 29.3945 16.4779 29.3364C16.3437 29.2783 16.1989 29.2478 16.0525 29.247C15.8272 29.2404 15.6059 29.3067 15.4222 29.4359C15.2385 29.5651 15.1023 29.7502 15.0343 29.963H14.5757C14.7591 29.2515 15.3297 28.8018 16.0561 28.8018C16.2619 28.8026 16.4654 28.8444 16.6545 28.9248C16.8437 29.0052 17.0145 29.1225 17.1569 29.2697C17.4466 29.5742 17.6088 29.9762 17.6109 30.3946V30.3946Z" fill="#243B98"/>
<path d="M18.9785 29.2466C19.1282 29.0958 19.3066 28.9761 19.5035 28.8944C19.7003 28.8126 19.9116 28.7705 20.1251 28.7705C20.3385 28.7705 20.5498 28.8126 20.7467 28.8944C20.9436 28.9761 21.122 29.0958 21.2717 29.2466C21.5728 29.5494 21.7416 29.9574 21.7416 30.3824C21.7416 30.8075 21.5728 31.2155 21.2717 31.5183C21.1221 31.6693 20.9437 31.7892 20.7469 31.8711C20.55 31.953 20.3386 31.9952 20.1251 31.9952C19.9116 31.9952 19.7002 31.953 19.5033 31.8711C19.3064 31.7892 19.128 31.6693 18.9785 31.5183C18.6774 31.2155 18.5085 30.8075 18.5085 30.3824C18.5085 29.9574 18.6774 29.5494 18.9785 29.2466V29.2466ZM20.9442 29.571C20.8361 29.463 20.7075 29.3772 20.5658 29.3186C20.4242 29.26 20.2722 29.2297 20.1187 29.2294C19.9671 29.2299 19.8171 29.2604 19.6776 29.319C19.538 29.3777 19.4117 29.4634 19.306 29.571C19.198 29.6779 19.1124 29.8048 19.054 29.9445C18.9956 30.0842 18.9655 30.234 18.9655 30.3852C18.9655 30.5364 18.9956 30.6861 19.054 30.8258C19.1124 30.9655 19.198 31.0924 19.306 31.1993C19.4118 31.3068 19.5382 31.3924 19.6777 31.451C19.8172 31.5097 19.9671 31.5403 20.1187 31.541C20.3484 31.5396 20.5727 31.4712 20.7634 31.3442C20.9542 31.2173 21.1029 31.0374 21.191 30.8272C21.2791 30.617 21.3026 30.3857 21.2587 30.1623C21.2149 29.9388 21.1054 29.7332 20.9442 29.571Z" fill="#243B98"/>
<path d="M22.787 31.0153V28.8154H23.2502V31.0198C23.2502 31.366 23.6272 31.5369 23.9629 31.5369C24.2986 31.5369 24.671 31.3615 24.671 31.0153V28.8154H25.1343V31.0198C25.1343 31.6559 24.5078 31.9912 23.9629 31.9912C23.4043 31.9912 22.787 31.6586 22.787 31.0153Z" fill="#243B98"/>
<path d="M26.202 31.9616V28.8086L26.5561 28.8131L28.1044 31.0312V28.8104H28.5631V31.9616H28.1962L26.6607 29.7627V31.9616H26.202Z" fill="#243B98"/>
<path d="M30.4196 31.973V29.2698H29.4574V28.8154H31.8368V29.2698H30.8782V31.973H30.4196Z" fill="#243B98"/>
<path d="M34.1657 31.0331H33.0264C32.9035 31.3202 32.7448 31.6982 32.6449 31.959H32.1495L33.4255 28.7705H33.7612L35.0371 31.9617H34.5473L34.1657 31.0331ZM33.1961 30.6051H33.9859L33.5951 29.4947L33.1961 30.6051Z" fill="#243B98"/>
<path d="M35.8369 31.9616V28.8086L36.191 28.8131L37.7393 31.0312V28.8104H38.198V31.9616H37.8311L36.2965 29.7627V31.9616H35.8369Z" fill="#243B98"/>
<path d="M40.0545 31.973V29.2698H39.0923V28.8154H41.4717V29.2698H40.5131V31.973H40.0545Z" fill="#243B98"/>
</g>
<defs>
<clipPath id="clip0_138_92521">
<rect width="34.4717" height="21" fill="white" transform="translate(7 11)"/>
</clipPath>
</defs>
</svg>
