<svg width="48" height="62" viewBox="0 0 48 62" fill="none" xmlns="http://www.w3.org/2000/svg">
<path d="M18.4 28.7998C13.9817 28.7998 10.4 32.3814 10.4 36.7998C10.4 41.2182 13.9817 44.7998 18.4 44.7998C22.8184 44.7998 26.4 41.2182 26.4 36.7998C26.3953 32.3834 22.8164 28.8045 18.4 28.7998ZM18.4 43.1998C14.8653 43.1998 12 40.3346 12 36.7998C12 33.265 14.8653 30.3998 18.4 30.3998C21.9348 30.3998 24.8 33.265 24.8 36.7998C24.7961 40.3326 21.9328 43.1959 18.4 43.1998Z" fill="#243B98"/>
<path d="M18.4 34.4C19.3769 34.4 19.9999 34.8734 19.9999 35.2H21.5999C21.5999 34.0633 20.5929 33.1426 19.1999 32.8801V32H17.6V32.8801C16.207 33.1406 15.2 34.0617 15.2 35.2C15.2 36.5465 16.6054 37.6 18.4 37.6C19.3769 37.6 19.9999 38.0734 19.9999 38.4C19.9999 38.7266 19.3769 39.2 18.4 39.2C17.423 39.2 16.8 38.7266 16.8 38.4H15.2C15.2 39.5367 16.207 40.4574 17.6 40.7199V41.6H19.1999V40.7199C20.5929 40.4594 21.5999 39.5383 21.5999 38.4C21.5999 37.0535 20.1945 36 18.4 36C17.423 36 16.8 35.5266 16.8 35.2C16.8 34.8734 17.423 34.4 18.4 34.4Z" fill="#243B98"/>
<path d="M40.8 46.4H7.2V27.2H20C21.3254 27.2 22.4 26.1254 22.4 24.8V4.8H31.2V14.4H40.8V25.6H42.4V13.2688L32.3312 3.2H22.4V2.4C22.4 1.07461 21.3254 0 20 0H2.4C1.07461 0 0 1.07461 0 2.4V24.8C0 26.1254 1.07461 27.2 2.4 27.2H5.6V48H42.4V36.8H40.8V46.4ZM32.8 5.93125L39.6688 12.8H32.8V5.93125ZM1.6 24.8V2.4C1.6 1.9582 1.9582 1.6 2.4 1.6H20C20.4418 1.6 20.8 1.9582 20.8 2.4V24.8C20.8 25.2418 20.4418 25.6 20 25.6H2.4C1.9582 25.6 1.6 25.2418 1.6 24.8Z" fill="#243B98"/>
<path d="M25.6 20H27.2V21.6H25.6V20Z" fill="#243B98"/>
<path d="M28.8 20H38.4V21.6H28.8V20Z" fill="#243B98"/>
<path d="M25.6 16.7998H27.2V18.3998H25.6V16.7998Z" fill="#243B98"/>
<path d="M28.8 16.7998H38.4V18.3998H28.8V16.7998Z" fill="#243B98"/>
<path d="M25.6 23.2002H27.2V24.8002H25.6V23.2002Z" fill="#243B98"/>
<path d="M28.8 23.2002H38.4V24.8002H28.8V23.2002Z" fill="#243B98"/>
<path d="M25.6 26.3999H27.2V27.9999H25.6V26.3999Z" fill="#243B98"/>
<path d="M28.8 26.3999H38.4V27.9999H28.8V26.3999Z" fill="#243B98"/>
<path d="M20 2.3999H2.40002V7.9999H20V2.3999ZM18.4 6.3999H4.00002V3.9999H18.4V6.3999Z" fill="#243B98"/>
<path d="M6.39995 8.7998H4.79995C3.91636 8.7998 3.19995 9.51621 3.19995 10.3998V11.9998C3.19995 12.8834 3.91636 13.5998 4.79995 13.5998H6.39995C7.28354 13.5998 7.99995 12.8834 7.99995 11.9998V10.3998C7.99995 9.51621 7.28354 8.7998 6.39995 8.7998ZM4.79995 11.9998V10.3998H6.39995V11.9998H4.79995Z" fill="#243B98"/>
<path d="M12 8.7998H10.4C9.51646 8.7998 8.80005 9.51621 8.80005 10.3998V11.9998C8.80005 12.8834 9.51646 13.5998 10.4 13.5998H12C12.8836 13.5998 13.6 12.8834 13.6 11.9998V10.3998C13.6 9.51621 12.8836 8.7998 12 8.7998ZM10.4 11.9998V10.3998H12V11.9998H10.4Z" fill="#243B98"/>
<path d="M17.6 8.7998H16C15.1164 8.7998 14.4 9.51621 14.4 10.3998V11.9998C14.4 12.8834 15.1164 13.5998 16 13.5998H17.6C18.4836 13.5998 19.2 12.8834 19.2 11.9998V10.3998C19.2 9.51621 18.4836 8.7998 17.6 8.7998ZM16 11.9998V10.3998H17.6V11.9998H16Z" fill="#243B98"/>
<path d="M6.39995 14.3999H4.79995C3.91636 14.3999 3.19995 15.1163 3.19995 15.9999V17.5999C3.19995 18.4835 3.91636 19.1999 4.79995 19.1999H6.39995C7.28354 19.1999 7.99995 18.4835 7.99995 17.5999V15.9999C7.99995 15.1163 7.28354 14.3999 6.39995 14.3999ZM4.79995 17.5999V15.9999H6.39995V17.5999H4.79995Z" fill="#243B98"/>
<path d="M12 14.3999H10.4C9.51646 14.3999 8.80005 15.1163 8.80005 15.9999V17.5999C8.80005 18.4835 9.51646 19.1999 10.4 19.1999H12C12.8836 19.1999 13.6 18.4835 13.6 17.5999V15.9999C13.6 15.1163 12.8836 14.3999 12 14.3999ZM10.4 17.5999V15.9999H12V17.5999H10.4Z" fill="#243B98"/>
<path d="M17.6 14.3999H16C15.1164 14.3999 14.4 15.1163 14.4 15.9999V17.5999C14.4 18.4835 15.1164 19.1999 16 19.1999H17.6C18.4836 19.1999 19.2 18.4835 19.2 17.5999V15.9999C19.2 15.1163 18.4836 14.3999 17.6 14.3999ZM16 17.5999V15.9999H17.6V17.5999H16Z" fill="#243B98"/>
<path d="M6.39995 20H4.79995C3.91636 20 3.19995 20.7164 3.19995 21.6V23.2C3.19995 24.0836 3.91636 24.8 4.79995 24.8H6.39995C7.28354 24.8 7.99995 24.0836 7.99995 23.2V21.6C7.99995 20.7164 7.28354 20 6.39995 20ZM4.79995 23.2V21.6H6.39995V23.2H4.79995Z" fill="#243B98"/>
<path d="M12 20H10.4C9.51646 20 8.80005 20.7164 8.80005 21.6V23.2C8.80005 24.0836 9.51646 24.8 10.4 24.8H12C12.8836 24.8 13.6 24.0836 13.6 23.2V21.6C13.6 20.7164 12.8836 20 12 20ZM10.4 23.2V21.6H12V23.2H10.4Z" fill="#243B98"/>
<path d="M17.6 20H16C15.1164 20 14.4 20.7164 14.4 21.6V23.2C14.4 24.0836 15.1164 24.8 16 24.8H17.6C18.4836 24.8 19.2 24.0836 19.2 23.2V21.6C19.2 20.7164 18.4836 20 17.6 20ZM16 23.2V21.6H17.6V23.2H16Z" fill="#243B98"/>
<path d="M47.2735 25.5267C46.3239 24.62 44.8298 24.62 43.8802 25.5267L30.1657 39.2407C30.0993 39.3079 30.045 39.386 30.0056 39.472L28.0743 43.6657C27.9349 43.9696 27.9993 44.3286 28.236 44.5649C28.4724 44.8017 28.8313 44.8661 29.1353 44.7267L33.329 42.7954C33.4149 42.756 33.4931 42.7021 33.5603 42.6353L47.2735 28.9208C48.211 27.9837 48.211 26.4638 47.2735 25.5267ZM32.529 41.4017L30.4329 42.3673L31.3985 40.2712L41.6239 30.045L42.7552 31.1763L32.529 41.4017ZM43.8888 30.0415L42.7575 28.9106L43.3177 28.3505L44.4489 29.4817L43.8888 30.0415ZM46.145 27.7856L45.5794 28.3513L44.4481 27.22L45.0145 26.6544C45.3306 26.3521 45.8286 26.3521 46.145 26.6544C46.4571 26.9669 46.4571 27.4731 46.145 27.7856Z" fill="#243B98"/>
</svg>
