<svg width="48" height="62" viewBox="0 0 48 62" fill="none" xmlns="http://www.w3.org/2000/svg">
<path d="M24.0023 32.7972C21.8345 32.7972 20.0027 31.6981 20.0027 30.3974H18.4028C18.4028 32.4453 20.4554 34.0834 23.2024 34.3537V36.7968H24.8022V34.3537C27.5492 34.0834 29.6017 32.4453 29.6017 30.3974C29.6017 28.1578 27.1422 26.3978 24.0023 26.3978C21.8345 26.3978 20.0027 25.2987 20.0027 23.998C20.0027 22.6974 21.8345 21.5982 24.0023 21.5982C26.17 21.5982 28.0019 22.6974 28.0019 23.998H29.6017C29.6017 21.9502 27.5492 20.312 24.8022 20.0418V17.5986H23.2024V20.0418C20.4554 20.312 18.4028 21.9502 18.4028 23.998C18.4028 26.2376 20.8627 27.9976 24.0023 27.9976C26.17 27.9976 28.0019 29.0967 28.0019 30.3974C28.0019 31.6981 26.17 32.7972 24.0023 32.7972Z" fill="#243B98"/>
<path d="M24.0025 39.996C31.0713 39.996 36.8012 34.2657 36.8012 27.1972C36.8012 20.1288 31.0713 14.3984 24.0025 14.3984C16.934 14.3984 11.2037 20.1288 11.2037 27.1972C11.2123 34.2622 16.9376 39.9878 24.0025 39.996ZM24.0025 15.9983C30.1874 15.9983 35.2014 21.0123 35.2014 27.1972C35.2014 33.3822 30.1874 38.3962 24.0025 38.3962C17.8175 38.3962 12.8036 33.3822 12.8036 27.1972C12.8102 21.015 17.8203 16.0049 24.0025 15.9983Z" fill="#243B98"/>
<path d="M24.8023 6.41931V4.79954H28.002C29.3277 4.79954 30.4018 3.72503 30.4018 2.39977C30.4018 1.07451 29.3277 0 28.002 0H20.0028C18.6775 0 17.603 1.07451 17.603 2.39977C17.603 3.72503 18.6775 4.79954 20.0028 4.79954H23.2025V10.399H24.8023V8.01915C29.337 8.20507 33.6577 9.99787 36.9925 13.0765L35.3126 14.756L36.4438 15.8871L38.1237 14.2076C41.2023 17.5421 42.9947 21.8627 43.1806 26.3975H40.8008V27.9973H43.1806C42.9947 32.532 41.2023 36.8527 38.1237 40.1872L36.4438 38.5076L35.3126 39.6388L36.9925 41.3183C33.6577 44.3969 29.337 46.1897 24.8023 46.3756V43.9958H23.2025V46.3756C18.6681 46.1897 14.3471 44.3969 11.0126 41.3183L12.6925 39.6388L11.5614 38.5076L9.88148 40.1872C6.80287 36.8527 5.01046 32.532 4.82455 27.9973H7.204V26.3975H4.82767C5.02101 21.2152 7.3247 16.3371 11.2036 12.8956V17.5983H12.8035V10.399H5.60416V11.9988H9.80805C5.57643 15.9176 3.18134 21.4304 3.20439 27.1974C3.20204 38.5803 12.3508 47.8505 23.7329 47.9981C35.1146 48.1458 44.5008 39.1162 44.7938 27.7368C45.0863 16.3578 36.177 6.85715 24.8023 6.41931ZM19.2029 2.39977C19.2029 1.95802 19.561 1.59985 20.0028 1.59985H28.002C28.4438 1.59985 28.8019 1.95802 28.8019 2.39977C28.8019 2.84152 28.4438 3.19969 28.002 3.19969H20.0028C19.561 3.19969 19.2029 2.84152 19.2029 2.39977Z" fill="#243B98"/>
<defs>
<rect width="48" height="48" fill="white"/>
</defs>
</svg>
