<svg width="48" height="48" viewBox="0 0 48 48" fill="none" xmlns="http://www.w3.org/2000/svg">
<g clip-path="url(#clip0_1409_253)">
<path d="M20 27.2001H16.6258C20.7977 25.3872 23.125 20.8954 22.1992 16.4415C21.2734 11.988 17.3488 8.79541 12.8 8.79541C8.25117 8.79541 4.32656 11.988 3.40078 16.4415C2.475 20.8954 4.80234 25.3872 8.97422 27.2001H5.6C4.27461 27.2001 3.2 28.2747 3.2 29.6001V31.2001C3.20273 31.4731 3.25234 31.7438 3.34727 32.0001H2.4C1.07461 32.0001 0 33.0747 0 34.4001V36.0001C0 37.3255 1.07461 38.4001 2.4 38.4001H3.34727C3.25234 38.6563 3.20273 38.9271 3.2 39.2001V40.8001C3.20078 41.1063 3.26055 41.4095 3.37617 41.6931C2.33164 41.9739 1.60469 42.9188 1.6 44.0001V45.6001C1.6 46.9255 2.67461 48.0001 4 48.0001H18.4C19.7254 48.0001 20.8 46.9255 20.8 45.6001V44.0001C20.7992 43.6938 20.7395 43.3907 20.6238 43.1071C21.6684 42.8263 22.3953 41.8813 22.4 40.8001V39.2001C22.4 37.8747 21.3254 36.8001 20 36.8001H19.0527C19.1477 36.5438 19.1973 36.2731 19.2 36.0001V34.4001C19.1973 34.1271 19.1477 33.8563 19.0527 33.6001H20C21.3254 33.6001 22.4 32.5255 22.4 31.2001V29.6001C22.4 28.2747 21.3254 27.2001 20 27.2001ZM4.8 18.4001C4.8 13.9817 8.38164 10.4001 12.8 10.4001C17.2184 10.4001 20.8 13.9817 20.8 18.4001C20.8 22.8185 17.2184 26.4001 12.8 26.4001C8.38359 26.3954 4.80469 22.8165 4.8 18.4001ZM19.2 45.6001C19.2 46.0419 18.8418 46.4001 18.4 46.4001V44.8001H16.8V46.4001H15.2V44.8001H13.6V46.4001H12V44.8001H10.4V46.4001H8.8V44.8001H7.2V46.4001H5.6V44.8001H4V46.4001C3.5582 46.4001 3.2 46.0419 3.2 45.6001V44.0001C3.2 43.5583 3.5582 43.2001 4 43.2001H18.4C18.8418 43.2001 19.2 43.5583 19.2 44.0001V45.6001ZM20.8 39.2001V40.8001C20.8 41.2419 20.4418 41.6001 20 41.6001V40.0001H18.4V41.6001H16.8V40.0001H15.2V41.6001H13.6V40.0001H12V41.6001H10.4V40.0001H8.8V41.6001H7.2V40.0001H5.6V41.6001C5.1582 41.6001 4.8 41.2419 4.8 40.8001V39.2001C4.8 38.7583 5.1582 38.4001 5.6 38.4001H20C20.4418 38.4001 20.8 38.7583 20.8 39.2001ZM17.6 34.4001V36.0001C17.6 36.4419 17.2418 36.8001 16.8 36.8001V35.2001H15.2V36.8001H13.6V35.2001H12V36.8001H10.4V35.2001H8.8V36.8001H7.2V35.2001H5.6V36.8001H4V35.2001H2.4V36.8001C1.9582 36.8001 1.6 36.4419 1.6 36.0001V34.4001C1.6 33.9583 1.9582 33.6001 2.4 33.6001H16.8C17.2418 33.6001 17.6 33.9583 17.6 34.4001ZM20.8 31.2001C20.8 31.6419 20.4418 32.0001 20 32.0001V30.4001H18.4V32.0001H16.8V30.4001H15.2V32.0001H13.6V30.4001H12V32.0001H10.4V30.4001H8.8V32.0001H7.2V30.4001H5.6V32.0001C5.1582 32.0001 4.8 31.6419 4.8 31.2001V29.6001C4.8 29.1583 5.1582 28.8001 5.6 28.8001H20C20.4418 28.8001 20.8 29.1583 20.8 29.6001V31.2001Z" fill="#243B98"/>
<path d="M13.6 23.9998V22.3197C14.9929 22.0592 16 21.1381 16 19.9998C16 18.6533 14.5945 17.5998 12.8 17.5998C11.823 17.5998 11.2 17.1264 11.2 16.7998C11.2 16.4732 11.823 15.9998 12.8 15.9998C13.7769 15.9998 14.4 16.4732 14.4 16.7998H16C16 15.6631 14.9929 14.7424 13.6 14.4799V12.7998H12V14.4799C10.607 14.7404 9.59998 15.6615 9.59998 16.7998C9.59998 18.1463 11.0054 19.1998 12.8 19.1998C13.7769 19.1998 14.4 19.6732 14.4 19.9998C14.4 20.3264 13.7769 20.7998 12.8 20.7998C11.823 20.7998 11.2 20.3264 11.2 19.9998H9.59998C9.59998 21.1365 10.607 22.0572 12 22.3197V23.9998H13.6Z" fill="#243B98"/>
<path d="M38.4 25.5999C43.6996 25.594 47.9942 21.2995 48 15.9999V15.1999H45.6C42.3801 15.2015 39.3754 16.8183 37.6 19.5046V9.5999H37.5602C42.0879 9.18271 45.5539 5.38779 45.5602 0.840527V0.0405273H44.7602C41.3145 0.0459961 38.1883 2.06045 36.7602 5.196C35.3328 2.05928 32.2059 0.0444335 28.7602 0.0405273H27.9602V0.840527C27.966 5.38779 31.4321 9.18271 35.9602 9.5999V9.64053H36V16.08C34.102 13.0472 30.7778 11.2038 27.2 11.1999H26.4V11.9999C26.4086 17.428 30.5879 21.9382 36 22.3593V27.1999H29.6C28.2746 27.1999 27.2 28.2745 27.2 29.5999V31.1999C27.2047 32.2812 27.9317 33.2261 28.9762 33.5069C28.8606 33.7905 28.8008 34.0937 28.8 34.3999V35.9999C28.8028 36.2729 28.8524 36.5437 28.9473 36.7999H28.8C27.4746 36.7999 26.4 37.8745 26.4 39.1999V40.7999C26.4 42.1253 27.4746 43.1999 28.8 43.1999H28.9473C28.8524 43.4562 28.8028 43.7269 28.8 43.9999V45.5999C28.8 46.9253 29.8746 47.9999 31.2 47.9999H45.6C46.9254 47.9999 48 46.9253 48 45.5999V43.9999C48 42.6745 46.9254 41.5999 45.6 41.5999H45.4528C45.5477 41.3437 45.5973 41.0729 45.6 40.7999V39.1999C45.5973 38.9269 45.5477 38.6562 45.4528 38.3999H45.6C46.9254 38.3999 48 37.3253 48 35.9999V34.3999C47.9953 33.3186 47.2684 32.3737 46.2239 32.0929C46.3395 31.8093 46.3992 31.5062 46.4 31.1999V29.5999C46.4 28.2745 45.3254 27.1999 44 27.1999H37.6V25.5999H38.4ZM45.6 16.7999H46.3602C45.9446 20.8854 42.5067 23.9952 38.4 23.9999H37.6399C38.0555 19.9144 41.4934 16.8046 45.6 16.7999ZM43.9106 1.68936C43.5133 4.99053 40.9114 7.59248 37.6106 7.98936C38.0074 4.68857 40.6094 2.08662 43.9106 1.68936ZM29.6106 1.68936C32.9114 2.08701 35.5129 4.68857 35.9106 7.98936C32.609 7.59326 30.0067 4.99092 29.6106 1.68936ZM28.0399 12.8397C32.2336 13.2479 35.552 16.5663 35.9602 20.7601C31.7664 20.3519 28.4481 17.0335 28.0399 12.8397ZM28.8 39.9999V41.5999C28.3582 41.5999 28 41.2417 28 40.7999V39.1999C28 38.7581 28.3582 38.3999 28.8 38.3999H43.2C43.6418 38.3999 44 38.7581 44 39.1999V40.7999C44 41.2417 43.6418 41.5999 43.2 41.5999V39.9999H41.6V41.5999H40V39.9999H38.4V41.5999H36.8V39.9999H35.2V41.5999H33.6V39.9999H32V41.5999H30.4V39.9999H28.8ZM45.6 43.1999C46.0418 43.1999 46.4 43.5581 46.4 43.9999V45.5999C46.4 46.0417 46.0418 46.3999 45.6 46.3999V44.7999H44V46.3999H42.4V44.7999H40.8V46.3999H39.2V44.7999H37.6V46.3999H36V44.7999H34.4V46.3999H32.8V44.7999H31.2V46.3999C30.7582 46.3999 30.4 46.0417 30.4 45.5999V43.9999C30.4 43.5581 30.7582 43.1999 31.2 43.1999H45.6ZM46.4 34.3999V35.9999C46.4 36.4417 46.0418 36.7999 45.6 36.7999V35.1999H44V36.7999H42.4V35.1999H40.8V36.7999H39.2V35.1999H37.6V36.7999H36V35.1999H34.4V36.7999H32.8V35.1999H31.2V36.7999C30.7582 36.7999 30.4 36.4417 30.4 35.9999V34.3999C30.4 33.9581 30.7582 33.5999 31.2 33.5999H45.6C46.0418 33.5999 46.4 33.9581 46.4 34.3999ZM44.8 29.5999V31.1999C44.8 31.6417 44.4418 31.9999 44 31.9999V30.3999H42.4V31.9999H40.8V30.3999H39.2V31.9999H37.6V30.3999H36V31.9999H34.4V30.3999H32.8V31.9999H31.2V30.3999H29.6V31.9999C29.1582 31.9999 28.8 31.6417 28.8 31.1999V29.5999C28.8 29.1581 29.1582 28.7999 29.6 28.7999H44C44.4418 28.7999 44.8 29.1581 44.8 29.5999Z" fill="#243B98"/>
<path d="M12 0H13.6V1.6H12V0Z" fill="#243B98"/>
<path d="M10.4 1.6001H12V3.2001H10.4V1.6001Z" fill="#243B98"/>
<path d="M13.6 1.6001H15.2V3.2001H13.6V1.6001Z" fill="#243B98"/>
<path d="M12 3.2002H13.6V4.80019H12V3.2002Z" fill="#243B98"/>
<path d="M21.6 3.2002H23.2V4.80019H21.6V3.2002Z" fill="#243B98"/>
<path d="M20 4.7998H21.6V6.39981H20V4.7998Z" fill="#243B98"/>
<path d="M23.2 4.7998H24.8V6.39981H23.2V4.7998Z" fill="#243B98"/>
<path d="M21.6 6.3999H23.2V7.9999H21.6V6.3999Z" fill="#243B98"/>
<path d="M1.59998 4.7998H3.19998V6.39981H1.59998V4.7998Z" fill="#243B98"/>
<path d="M0 6.3999H1.6V7.9999H0V6.3999Z" fill="#243B98"/>
<path d="M3.19995 6.3999H4.79995V7.9999H3.19995V6.3999Z" fill="#243B98"/>
<path d="M1.59998 8H3.19998V9.6H1.59998V8Z" fill="#243B98"/>
</g>
<defs>
<clipPath id="clip0_1409_253">
<rect width="48" height="48" fill="white"/>
</clipPath>
</defs>
</svg>
