<svg width="48" height="62" viewBox="0 0 48 62" fill="none" xmlns="http://www.w3.org/2000/svg">
<path d="M40.0002 34.5887L37.9627 33.368C37.3416 32.9965 36.631 32.8004 35.9072 32.8H32.8408C32.2131 32.7988 31.5881 32.8797 30.981 33.0398L21.742 35.5199C20.7318 35.7988 19.9205 36.5512 19.5666 37.5375L11.44 33.141C10.781 32.766 10.0096 32.6387 9.26503 32.7816C8.98417 32.8313 8.71191 32.9207 8.45605 33.0473C7.87831 33.3238 7.39902 33.7707 7.08183 34.3273C6.80449 34.8121 6.65878 35.3609 6.65878 35.9191C6.65019 37.059 7.25409 38.1152 8.24003 38.6863L22.8049 47.4008C23.4377 47.7926 24.1666 48 24.9107 48H36.1826C36.6861 48.0004 37.185 47.9051 37.6529 47.72L40.0002 46.793V48H48.0002V32H40.0002V34.5887ZM37.065 46.2321C36.785 46.3426 36.4861 46.3996 36.185 46.4H24.9107C24.46 46.3996 24.0182 46.2727 23.6361 46.0336L9.05136 37.309C8.55566 37.0227 8.25214 36.4922 8.25605 35.9199C8.25722 35.6395 8.33105 35.3637 8.4705 35.1199C8.62988 34.8438 8.86972 34.6223 9.15761 34.4856C9.28456 34.4238 9.41894 34.3801 9.55761 34.3559C9.65878 34.3371 9.76152 34.3273 9.86425 34.3273C10.1393 34.3266 10.4096 34.3984 10.6482 34.5352L19.4603 39.2969C19.4705 39.3457 19.4705 39.3938 19.4834 39.4426C19.8623 40.8391 21.1291 41.809 22.5764 41.8106C23.0217 41.7699 23.4627 41.691 23.8947 41.5754L32.2064 39.3512L31.7939 37.8055L23.5092 40.0199C23.1443 40.1039 22.6736 40.2 22.5764 40.2082C21.8537 40.2094 21.2201 39.7266 21.0299 39.0297C21.0041 38.9328 20.9889 38.8336 20.9834 38.7336C20.9834 38.7336 20.9771 38.5399 20.9834 38.4719C21.0443 37.8027 21.5131 37.241 22.1603 37.0609L31.3955 34.5902C31.867 34.4641 32.3529 34.4 32.8408 34.4H35.9072C36.3416 34.4 36.7678 34.518 37.14 34.741L40.0002 36.4535V45.0719L37.065 46.2321ZM41.6002 33.6H46.4002V46.4H41.6002V33.6Z" fill="#243B98"/>
<path d="M32.9953 6.39978L28.7039 2.10877C27.3566 0.753691 25.5234 -0.00568356 23.6129 -0.000214806H13.5551C12.9344 0.000566444 12.3223 0.145488 11.7664 0.422051L9.97344 1.31893C9.61406 1.49979 9.21484 1.58611 8.81289 1.5701L8 1.54158V-0.000214806H0V17.5998H8V15.1998H9.36016L9.84414 15.5197C11.1984 16.4189 12.7754 16.9267 14.4 16.9861V27.1998H48V6.39978H32.9953ZM6.4 15.9998H1.6V1.59978H6.4V15.9998ZM10.7297 14.1885L9.83984 13.5998H8V3.14236L8.7543 3.16932C9.42422 3.19314 10.0891 3.049 10.6887 2.75018L12.4801 1.8533C12.8137 1.6865 13.182 1.59978 13.5551 1.59978H23.6129C25.0988 1.59549 26.525 2.18611 27.5727 3.23963L30.7328 6.39978H24.1313L22.1895 4.45838L21.0586 5.58924L26.7098 11.2408C27.3375 11.8658 27.3395 12.8814 26.7145 13.5095C26.0891 14.1373 25.0734 14.1392 24.4457 13.5142L19.7258 8.79432L19.1656 9.27439C17.6191 10.5877 15.3586 10.6213 13.7734 9.35408L13.3098 8.9783L12.3016 10.2213L12.7703 10.6013C13.2605 10.9931 13.8109 11.3033 14.4 11.5197V15.3853C13.0906 15.3271 11.8215 14.9135 10.7297 14.1885ZM22.1098 13.4396L23.3168 14.647C24.5699 15.8814 26.5816 15.8834 27.8367 14.651C26.6625 16.4693 27.1258 18.8892 28.8887 20.1451C30.6516 21.401 33.0902 21.0482 34.425 19.3447C35.7598 17.6408 35.5187 15.1885 33.8773 13.7775C32.2363 12.3666 29.7754 12.4959 28.2914 14.0709C28.8379 13.2127 28.9355 12.1431 28.5535 11.1998H39.2664C39.6105 13.2127 41.1871 14.7892 43.2 15.1334V18.4662C41.1871 18.8103 39.6105 20.3869 39.2664 22.3998H23.1336C22.7895 20.3869 21.2129 18.8103 19.2 18.4662V15.1334C20.3434 14.9408 21.3773 14.3388 22.1098 13.4396ZM28.8 16.7998C28.8 15.4744 29.8746 14.3998 31.2 14.3998C32.5254 14.3998 33.6 15.4744 33.6 16.7998C33.6 18.1252 32.5254 19.1998 31.2 19.1998C29.8746 19.1998 28.8 18.1252 28.8 16.7998ZM46.4 25.5998H16V11.8549C17.2684 11.9502 18.5328 11.6267 19.6 10.9349L20.9648 12.2998C20.3645 13.1154 19.4129 13.5978 18.4 13.5998H17.6V19.9998H18.4C20.1672 19.9998 21.6 21.4326 21.6 23.1998V23.9998H40.8V23.1998C40.8 21.4326 42.2328 19.9998 44 19.9998H44.8V13.5998H44C42.2328 13.5998 40.8 12.167 40.8 10.3998V9.59978H27.3313L25.7313 7.99978H46.4V25.5998Z" fill="#243B98"/>
<defs>
<rect width="48" height="48" fill="white"/>
</defs>
</svg>
