<svg width="48" height="62" viewBox="0 0 48 62" fill="none" xmlns="http://www.w3.org/2000/svg">
<path d="M19.024 36.893C19.1396 36.6094 19.1994 36.3062 19.2002 36V34.4C19.1982 33.8078 18.9756 33.2375 18.5764 32.8C18.9756 32.3625 19.1982 31.7922 19.2002 31.2V29.6C19.2002 28.2746 18.1256 27.2 16.8002 27.2H13.4248C17.5975 25.3875 19.9248 20.8957 18.9994 16.4414C18.0736 11.9875 14.1494 8.79492 9.60019 8.79492C5.05097 8.79492 1.12675 11.9875 0.200971 16.4414C-0.72442 20.8957 1.60292 25.3875 5.77558 27.2H2.40019C1.0748 27.2 0.000189397 28.2746 0.000189397 29.6V31.2C0.00214252 31.7922 0.224799 32.3625 0.624017 32.8C0.224799 33.2375 0.00214252 33.8078 0.000189397 34.4V36C0.0048769 37.0813 0.73183 38.0262 1.77636 38.307C1.66074 38.5906 1.60097 38.8938 1.60019 39.2V40.8C1.60097 41.1063 1.66074 41.4094 1.77636 41.693C0.73183 41.9738 0.0048769 42.9188 0.000189397 44V45.6C0.000189397 46.9254 1.0748 48 2.40019 48H16.8002C18.1256 48 19.2002 46.9254 19.2002 45.6V44C19.1994 43.6938 19.1396 43.3906 19.024 43.107C20.0685 42.8262 20.7955 41.8813 20.8002 40.8V39.2C20.7955 38.1187 20.0685 37.1738 19.024 36.893ZM1.60019 18.4C1.60019 13.9816 5.18183 10.4 9.60019 10.4C14.0185 10.4 17.6002 13.9816 17.6002 18.4C17.6002 22.8184 14.0185 26.4 9.60019 26.4C5.18378 26.3953 1.60488 22.8164 1.60019 18.4ZM1.60019 29.6C1.60019 29.1582 1.95839 28.8 2.40019 28.8H16.8002C17.242 28.8 17.6002 29.1582 17.6002 29.6V31.2C17.6002 31.6418 17.242 32 16.8002 32V30.4H15.2002V32H13.6002V30.4H12.0002V32H10.4002V30.4H8.80019V32H7.20019V30.4H5.60019V32H4.00019V30.4H2.40019V32C1.95839 32 1.60019 31.6418 1.60019 31.2V29.6ZM1.60019 36V34.4C1.60019 33.9582 1.95839 33.6 2.40019 33.6H16.8002C17.242 33.6 17.6002 33.9582 17.6002 34.4V36C17.6002 36.4418 17.242 36.8 16.8002 36.8V35.2H15.2002V36.8H13.6002V35.2H12.0002V36.8H10.4002V35.2H8.80019V36.8H7.20019V35.2H5.60019V36.8H4.00019V35.2H2.40019V36.8C1.95839 36.8 1.60019 36.4418 1.60019 36ZM17.6002 45.6C17.6002 46.0418 17.242 46.4 16.8002 46.4V44.8H15.2002V46.4H13.6002V44.8H12.0002V46.4H10.4002V44.8H8.80019V46.4H7.20019V44.8H5.60019V46.4H4.00019V44.8H2.40019V46.4C1.95839 46.4 1.60019 46.0418 1.60019 45.6V44C1.60019 43.5582 1.95839 43.2 2.40019 43.2H16.8002C17.242 43.2 17.6002 43.5582 17.6002 44V45.6ZM19.2002 40.8C19.2002 41.2418 18.842 41.6 18.4002 41.6V40H16.8002V41.6H15.2002V40H13.6002V41.6H12.0002V40H10.4002V41.6H8.80019V40H7.20019V41.6H5.60019V40H4.00019V41.6C3.55839 41.6 3.20019 41.2418 3.20019 40.8V39.2C3.20019 38.7582 3.55839 38.4 4.00019 38.4H18.4002C18.842 38.4 19.2002 38.7582 19.2002 39.2V40.8Z" fill="#243B98"/>
<path d="M10.3999 23.9998V22.3197C11.7929 22.0584 12.7999 21.1381 12.7999 19.9998C12.7999 18.6541 11.3944 17.5998 9.5999 17.5998C8.62295 17.5998 7.9999 17.1264 7.9999 16.7998C7.9999 16.4732 8.62295 15.9998 9.5999 15.9998C10.5769 15.9998 11.1999 16.4732 11.1999 16.7998H12.7999C12.7999 15.6631 11.7929 14.7432 10.3999 14.4799V12.7998H8.7999V14.4799C7.40693 14.7412 6.3999 15.6615 6.3999 16.7998C6.3999 18.1455 7.80537 19.1998 9.5999 19.1998C10.5769 19.1998 11.1999 19.6732 11.1999 19.9998C11.1999 20.3264 10.5769 20.7998 9.5999 20.7998C8.62295 20.7998 7.9999 20.3264 7.9999 19.9998H6.3999C6.3999 21.1365 7.40693 22.0564 8.7999 22.3197V23.9998H10.3999Z" fill="#243B98"/>
<path d="M37.9312 0H11.2V8H12.8V1.6H36.7999V11.2H46.3999V46.4H20.7999V48H47.9999V10.0688L37.9312 0ZM38.3999 2.73125L45.2687 9.6H38.3999V2.73125Z" fill="#243B98"/>
<path d="M42.4 39.9999V26.3999H37.6V39.9999H36V29.5999H31.2V39.9999H29.6V32.7999H24.8V39.9999H23.2V41.5999H44V39.9999H42.4ZM26.4 39.9999V34.3999H28V39.9999H26.4ZM39.2 27.9999H40.8V39.9999H39.2V27.9999ZM32.8 31.1999H34.4V39.9999H32.8V31.1999Z" fill="#243B98"/>
<path d="M36 18.3999V19.9999H38.8688L34.4 24.4687L31.2 21.2687L25.0344 27.4343L26.1657 28.5655L31.2 23.5312L34.4 26.7312L40 21.1312V23.9999H41.6V18.3999H36Z" fill="#243B98"/>
<path d="M20.8 6.3999H22.4V7.9999H20.8V6.3999Z" fill="#243B98"/>
<path d="M24 6.3999H33.6V7.9999H24V6.3999Z" fill="#243B98"/>
<path d="M20.8 9.6001H22.4V11.2001H20.8V9.6001Z" fill="#243B98"/>
<path d="M24 9.6001H33.6V11.2001H24V9.6001Z" fill="#243B98"/>
<path d="M20.8 12.7998H22.4V14.3998H20.8V12.7998Z" fill="#243B98"/>
<path d="M24 12.7998H33.6V14.3998H24V12.7998Z" fill="#243B98"/>
<defs>
<rect width="48" height="48" fill="white"/>
</defs>
</svg>
