<svg width="48" height="62" viewBox="0 0 48 62" fill="none" xmlns="http://www.w3.org/2000/svg">
<path d="M27.6433 25.5176H25.9676C25.579 25.5176 25.2639 25.8326 25.2639 26.2213C25.2639 26.6099 25.5789 26.925 25.9676 26.925H27.6433C28.0319 26.925 28.347 26.61 28.347 26.2213C28.347 25.8326 28.032 25.5176 27.6433 25.5176Z" fill="#243B98"/>
<path d="M32.4151 25.5176H30.7395C30.3509 25.5176 30.0358 25.8326 30.0358 26.2213C30.0358 26.6099 30.3508 26.925 30.7395 26.925H32.4151C32.8037 26.925 33.1188 26.61 33.1188 26.2213C33.1187 25.8326 32.8037 25.5176 32.4151 25.5176Z" fill="#243B98"/>
<path d="M37.1869 25.5176H35.5112C35.1226 25.5176 34.8075 25.8326 34.8075 26.2213C34.8075 26.6099 35.1225 26.925 35.5112 26.925H37.1869C37.5755 26.925 37.8906 26.61 37.8906 26.2213C37.8906 25.8326 37.5756 25.5176 37.1869 25.5176Z" fill="#243B98"/>
<path d="M41.9587 25.5176H40.283C39.8944 25.5176 39.5793 25.8326 39.5793 26.2213C39.5793 26.6099 39.8943 26.925 40.283 26.925H41.9587C42.3473 26.925 42.6624 26.61 42.6624 26.2213C42.6623 25.8326 42.3473 25.5176 41.9587 25.5176Z" fill="#243B98"/>
<path d="M27.6433 28.769H25.9676C25.579 28.769 25.2639 29.084 25.2639 29.4727C25.2639 29.8613 25.5789 30.1764 25.9676 30.1764H27.6433C28.0319 30.1764 28.347 29.8614 28.347 29.4727C28.347 29.084 28.032 28.769 27.6433 28.769Z" fill="#243B98"/>
<path d="M32.4151 28.769H30.7395C30.3509 28.769 30.0358 29.084 30.0358 29.4727C30.0358 29.8613 30.3508 30.1764 30.7395 30.1764H32.4151C32.8037 30.1764 33.1188 29.8614 33.1188 29.4727C33.1187 29.084 32.8037 28.769 32.4151 28.769Z" fill="#243B98"/>
<path d="M37.1869 28.769H35.5112C35.1226 28.769 34.8075 29.084 34.8075 29.4727C34.8075 29.8613 35.1225 30.1764 35.5112 30.1764H37.1869C37.5755 30.1764 37.8906 29.8614 37.8906 29.4727C37.8906 29.084 37.5756 28.769 37.1869 28.769Z" fill="#243B98"/>
<path d="M41.9587 28.769H40.283C39.8944 28.769 39.5793 29.084 39.5793 29.4727C39.5793 29.8613 39.8943 30.1764 40.283 30.1764H41.9587C42.3473 30.1764 42.6624 29.8614 42.6624 29.4727C42.6623 29.084 42.3473 28.769 41.9587 28.769Z" fill="#243B98"/>
<path d="M45.2642 2.95947C43.5697 2.95947 7.78791 2.95947 6.34791 2.95947C6.11672 2.95947 5.88684 2.98844 5.66475 3.04563C4.47825 3.35069 3.61209 4.42629 3.61209 5.69529V27.2227C3.21928 26.9832 2.76469 26.863 2.292 26.8802C1.00678 26.9259 0 27.9875 0 29.2969V35.0005C0 35.3891 0.315 36.1161 0.703687 36.1161C1.09238 36.1161 1.40737 35.8011 1.40737 35.4124V29.2969C1.40737 28.7582 1.82672 28.305 2.34206 28.2866C2.6085 28.2777 2.86087 28.3735 3.05212 28.5581C3.24347 28.7428 3.34884 28.9908 3.34884 29.2567C3.34884 29.6453 3.66384 29.9604 4.05253 29.9604C4.44122 29.9604 4.75622 29.6454 4.75622 29.2567V28.3292C4.75622 28.1364 4.8105 27.9474 4.91316 27.7823C5.08688 27.5032 5.37759 27.33 5.691 27.3188C5.95744 27.3094 6.20981 27.4058 6.40106 27.5903C6.59241 27.775 6.69778 28.0232 6.69778 28.2889C6.69778 28.6775 7.01278 28.9926 7.40147 28.9926C7.79016 28.9926 8.10516 28.6776 8.10516 28.2889V26.6753C8.10516 26.1365 8.5245 25.6833 9.03984 25.6651C9.30713 25.6563 9.55875 25.752 9.75 25.9366C9.94134 26.1213 10.0467 26.3693 10.0467 26.6352C10.0467 27.0238 10.3617 27.3389 10.7504 27.3389C11.139 27.3389 11.4541 27.0239 11.4541 26.6352V18.5216C11.4541 18.2557 11.5595 18.0077 11.7508 17.823C11.9421 17.6384 12.1948 17.5424 12.4609 17.5515C12.9763 17.5698 13.3957 18.023 13.3957 18.5617V28.0022C13.3957 28.3656 13.5634 28.6975 13.8558 28.9124C14.1476 29.1269 14.5296 29.1902 14.8772 29.0813C15.5295 28.8773 16.1373 29.4261 16.1373 30.049C16.1279 35.1458 16.1589 34.9839 16.1084 35.5098C15.8679 38.0091 14.4961 38.8101 13.6114 40.4414H3.31031L1.89375 37.0929C1.57097 36.3404 1.40737 35.5436 1.40737 34.7247C1.40737 34.3361 1.09238 34.021 0.703687 34.021C0.315 34.021 0 34.3362 0 34.7248C0 35.7355 0.201937 36.7188 0.598969 37.6445L1.90669 40.7358C1.434 41.0496 1.12397 41.5849 1.12397 42.1924V43.2902C1.12397 44.2556 1.90941 45.0411 2.87494 45.0411H13.8077C14.7731 45.0411 15.5586 44.2557 15.5586 43.2902V42.1924C15.5586 41.6845 15.3346 41.2146 14.9736 40.8899C15.67 39.7263 16.9746 38.6914 17.419 36.281H45.2642C46.7727 36.281 48 35.0538 48 33.5452V5.69538C48 4.18675 46.7727 2.95947 45.2642 2.95947ZM14.1513 43.2901C14.1513 43.4795 13.9972 43.6337 13.8077 43.6337H2.87494C2.68547 43.6337 2.53134 43.4795 2.53134 43.2901V42.1923C2.53134 42.0094 2.67478 41.8593 2.85834 41.8504L2.88675 41.8487H13.8076C13.9956 41.8487 14.1512 42.0033 14.1512 42.1923L14.1513 43.2901ZM12.5107 16.1453C11.8587 16.1214 11.2419 16.3584 10.7734 16.8106C10.3047 17.2628 10.0466 17.8706 10.0466 18.5219V20.9235C9.34519 20.6128 8.86172 19.9128 8.86172 19.0975V14.5975C8.86172 13.4956 9.75825 12.599 10.8602 12.599H14.0024C15.1043 12.599 16.0009 13.4956 16.0009 14.5975V19.0975C16.0009 19.9192 15.5116 20.6219 14.8029 20.9292V18.5621C14.8029 17.2525 13.7962 16.191 12.5107 16.1453ZM20.0307 34.8737H17.5445V30.0491C17.5445 28.5973 16.2678 27.4331 14.8028 27.658V22.4086C16.308 22.0504 17.4082 20.7068 17.4082 19.0973V14.5973C17.4082 12.7193 15.8803 11.1915 14.0023 11.1915H10.8601C8.98219 11.1915 7.45434 12.7193 7.45434 14.5973V19.0973C7.45434 20.6993 8.54897 22.0418 10.0466 22.4054V24.4627C9.71944 24.3163 9.35991 24.2456 8.98978 24.2588C7.88428 24.2981 6.98475 25.0891 6.75478 26.1429C6.41259 25.9786 6.03319 25.8987 5.64094 25.9126C5.42728 25.9202 5.21878 25.958 5.01937 26.0215V5.69538C5.01937 5.07316 5.44631 4.555 6.01528 4.40866C6.32241 4.32963 5.57644 4.38147 20.0306 4.36685L20.0307 34.8737ZM46.5927 33.5451C46.5927 34.2777 45.9967 34.8737 45.2642 34.8737H21.4381V4.36685H45.2642C45.9967 4.36685 46.5927 4.96282 46.5927 5.69538V33.5451Z" fill="#243B98"/>
<path d="M43.6194 15.0975C43.2308 15.0975 42.9157 15.4125 42.9157 15.8012V20.3041C42.9157 20.5121 42.7464 20.6814 42.5382 20.6814H40.8057C40.1618 18.7928 38.7623 17.2584 36.9617 16.4377C37.4541 15.7911 37.7314 14.995 37.7314 14.1578C37.7314 12.0801 36.041 10.3896 33.9632 10.3896C31.8854 10.3896 30.195 12.0801 30.195 14.1578C30.195 14.995 30.4723 15.7911 30.9647 16.4377C29.1642 17.2584 27.7648 18.7928 27.1208 20.6814H25.3881C25.1801 20.6814 25.0108 20.5121 25.0108 20.3041V11.8027C25.0108 11.4141 24.6958 11.099 24.3071 11.099C23.9185 11.099 23.6034 11.414 23.6034 11.8027V20.3041C23.6034 21.2882 24.404 22.0888 25.3881 22.0888H42.5383C43.5224 22.0888 44.3231 21.2882 44.3231 20.3041V15.8012C44.323 15.4125 44.008 15.0975 43.6194 15.0975ZM33.9632 11.7969C35.2649 11.7969 36.3241 12.856 36.3241 14.1578C36.3241 14.9512 35.9283 15.6874 35.2654 16.1269C34.8789 16.3832 34.4286 16.5186 33.9633 16.5186C33.498 16.5186 33.0478 16.3832 32.6612 16.1269C31.9983 15.6873 31.6025 14.9512 31.6025 14.1578C31.6023 12.856 32.6614 11.7969 33.9632 11.7969ZM28.6289 20.6814C29.2932 19.1643 30.5836 17.9876 32.179 17.4749C32.7258 17.7697 33.3357 17.9259 33.9631 17.9259C34.5906 17.9259 35.2004 17.7697 35.7473 17.4749C37.3426 17.9875 38.6331 19.1643 39.2973 20.6814H28.6289Z" fill="#243B98"/>
<path d="M42.5384 6.66699H25.3881C24.404 6.66699 23.6034 7.46762 23.6034 8.45162V12.5137C23.6034 12.9023 23.9184 13.2174 24.3071 13.2174C24.6957 13.2174 25.0108 12.9024 25.0108 12.5137V8.45171C25.0108 8.24368 25.1801 8.07437 25.3881 8.07437H42.5384C42.7464 8.07437 42.9158 8.24368 42.9158 8.45171V16.5074C42.9158 16.896 43.2308 17.2111 43.6195 17.2111C44.0081 17.2111 44.3232 16.8961 44.3232 16.5074V8.45171C44.323 7.46762 43.5225 6.66699 42.5384 6.66699Z" fill="#243B98"/>
<defs>
<rect width="48" height="48" fill="white"/>
</defs>
</svg>
