<svg width="48" height="62" viewBox="0 0 48 62" fill="none" xmlns="http://www.w3.org/2000/svg">
<path d="M48 0H9.6V16.0121C9.33281 16.0039 9.06563 16 8.8 16C4.56016 16 0 17.0016 0 19.2V22.4C0.0117188 22.8512 0.202734 23.2793 0.530469 23.5895C0.199219 23.9062 0.00859375 24.3418 0 24.8V28C0.0117188 28.4512 0.202734 28.8793 0.530469 29.1895C0.199219 29.5063 0.00859375 29.9418 0 30.4V33.6C0.0117188 34.0512 0.202734 34.4793 0.530469 34.7895C0.199219 35.1063 0.00859375 35.5418 0 36V39.2C0.0117188 39.6512 0.202734 40.0793 0.530469 40.3895C0.199219 40.7062 0.00859375 41.1418 0 41.6V44.8C0 46.9984 4.56016 48 8.8 48C13.0398 48 17.6 46.9984 17.6 44.8V41.6C17.5914 41.1418 17.4008 40.7062 17.0695 40.3895C17.3973 40.0793 17.5883 39.6512 17.6 39.2V36C17.5914 35.5418 17.4008 35.1063 17.0695 34.7895C17.3973 34.4793 17.5883 34.0512 17.6 33.6V30.4C17.5914 29.9418 17.4008 29.5063 17.0695 29.1895C17.3973 28.8793 17.5883 28.4512 17.6 28V24.8C17.5914 24.3418 17.4008 23.9062 17.0695 23.5895C17.3973 23.2793 17.5883 22.8512 17.6 22.4V20.8H20.8V44C20.8027 46.2082 22.5918 47.9973 24.8 48H40.8C43.0082 47.9973 44.7973 46.2082 44.8 44V20.8H48V0ZM8.8 17.6C13.4398 17.6 15.8398 18.7465 16 19.2C15.9383 19.348 15.3719 19.9 13.4207 20.3336C12.4113 20.5574 11.3852 20.6984 10.3527 20.7543C9.32031 20.8176 8.28516 20.8176 7.25273 20.7543C6.21758 20.698 5.18867 20.5566 4.17695 20.3313C2.18633 19.8887 1.64062 19.323 1.6 19.2145V19.209C1.72969 18.7633 4.12461 17.6 8.8 17.6ZM14.4 23.2703V21.7328C14.9508 21.5906 15.4867 21.3961 16 21.1512V22.391C15.9406 22.5945 15.4047 22.9473 14.4 23.2703ZM1.6 22.3902V21.152C2.11328 21.3965 2.64922 21.5906 3.2 21.732V23.2703C2.19531 22.9473 1.65938 22.5945 1.6 22.391V22.3902ZM4.8 22.0832C5.30703 22.1695 5.84063 22.2387 6.4 22.2902V23.8902C5.81055 23.8328 5.28008 23.7543 4.8 23.6656V22.0832ZM8 22.3754C8.26719 22.3832 9.33281 22.3832 9.6 22.3754V23.9863C9.34062 23.9945 8.25938 23.9945 8 23.9863V22.3754ZM11.2 22.2902C11.7609 22.2371 12.2945 22.168 12.8 22.0832V23.6641C12.3199 23.7527 11.7895 23.8313 11.2 23.8887V22.2902ZM14.4 28.8695V27.3328C14.9508 27.1906 15.4867 26.9961 16 26.7512V27.991C15.9406 28.1945 15.4047 28.5473 14.4 28.8703V28.8695ZM12.8 29.2633C12.3199 29.352 11.7895 29.4305 11.2 29.4879V27.8879C11.7609 27.8348 12.2945 27.7656 12.8 27.6809V29.2633ZM9.6 29.5832C9.34062 29.591 8.25938 29.591 8 29.5832V27.9762C8.26719 27.984 9.33281 27.984 9.6 27.9762V29.5832ZM6.4 29.4848C5.81055 29.4273 5.28008 29.3488 4.8 29.2602V27.6801C5.30703 27.7664 5.84063 27.8355 6.4 27.8871V29.4848ZM3.2 28.8664C2.19531 28.5465 1.65938 28.1902 1.6 27.9863V26.752C2.11328 26.9965 2.64922 27.1906 3.2 27.332V28.8664ZM14.4 34.4664V32.9328C14.9508 32.7906 15.4867 32.5961 16 32.3512V33.591C15.9406 33.7945 15.4047 34.1473 14.4 34.4703V34.4664ZM12.8 34.8602C12.3199 34.9488 11.7895 35.0273 11.2 35.0848V33.4848C11.7609 33.4316 12.2945 33.3625 12.8 33.2777V34.8602ZM9.6 35.1801C9.34062 35.1879 8.25938 35.1879 8 35.1801V33.5762C8.26719 33.584 9.33281 33.584 9.6 33.5762V35.1801ZM6.4 35.0816C5.81055 35.0238 5.28008 34.9457 4.8 34.8566V33.284C5.30703 33.3703 5.84063 33.4395 6.4 33.491V35.0816ZM3.2 34.4633C2.19531 34.1434 1.65938 33.7871 1.6 33.5832V32.352C2.11328 32.5965 2.64922 32.7906 3.2 32.932V34.4633ZM14.4 40.0633V38.5273C14.9512 38.3813 15.4867 38.1832 16 37.9352V39.184C15.9406 39.3945 15.4047 39.7473 14.4 40.0703V40.0633ZM12.8 40.4566C12.3199 40.5457 11.7895 40.6238 11.2 40.6816V39.0816C11.748 39.032 12.284 38.9625 12.8 38.8762V40.4566ZM9.6 40.777C9.34062 40.7848 8.25938 40.7848 8 40.777V39.177C8.26719 39.1848 9.33281 39.1848 9.6 39.177V40.777ZM6.4 40.6785C5.81055 40.6207 5.28008 40.5426 4.8 40.4535V38.8855C5.31602 38.9719 5.85195 39.0457 6.4 39.091V40.6785ZM3.2 40.0602C2.19531 39.7398 1.65938 39.384 1.6 39.1801V37.9426C2.11328 38.1902 2.64883 38.3887 3.2 38.5344V40.0602ZM1.6 44.7801V43.5426C2.11328 43.7902 2.64883 43.9887 3.2 44.1344V45.6703C2.19531 45.3473 1.65938 44.9945 1.6 44.791V44.7801ZM6.4 44.6801V46.2801C5.81055 46.2223 5.28008 46.1441 4.8 46.0551V44.4855C5.31602 44.5719 5.85195 44.6398 6.4 44.691V44.6801ZM8 46.3762V44.7762C8.26719 44.784 9.33281 44.784 9.6 44.7762V46.3762C9.34062 46.3953 8.25938 46.3953 8 46.3871V46.3762ZM12.8 44.4742V46.0641C12.3199 46.1527 11.7895 46.2313 11.2 46.2887V44.6887C11.748 44.6398 12.284 44.5719 12.8 44.4855V44.4742ZM14.4 45.6594V44.123C14.9512 43.9773 15.4867 43.7789 16 43.5312V44.7801C15.9406 44.9945 15.4047 45.3473 14.4 45.6703V45.6594ZM16 41.5793C15.8809 42.032 13.484 43.2 8.8 43.2C4.11602 43.2 1.72969 42.0367 1.6 41.6145V41.609C1.68047 41.4754 1.79453 41.3652 1.93047 41.2887C4.13047 42.0863 6.46055 42.4633 8.8 42.4C11.1391 42.4645 13.4691 42.0891 15.6695 41.293C15.7977 41.3688 15.9098 41.4691 16 41.5879V41.5793ZM16 35.9793C15.8809 36.432 13.484 37.6 8.8 37.6C4.11602 37.6 1.72969 36.4367 1.6 36.0145V36.009C1.68047 35.8754 1.79453 35.7652 1.93047 35.6887C4.13047 36.4863 6.46055 36.8633 8.8 36.8C11.1391 36.8645 13.4691 36.4891 15.6695 35.693C15.7977 35.7687 15.9098 35.8691 16 35.9879V35.9793ZM16 30.3793C15.9641 30.509 15.4215 31.0785 13.416 31.5246C12.4066 31.7488 11.3805 31.8895 10.348 31.9457C9.31563 32.009 8.28047 32.009 7.24805 31.9457C6.21289 31.8891 5.18398 31.7477 4.17188 31.5223C2.18633 31.0887 1.64062 30.523 1.6 30.4145V30.409C1.68047 30.2754 1.79453 30.1652 1.93047 30.0887C4.13047 30.8863 6.46055 31.2633 8.8 31.2C11.1391 31.2645 13.4691 30.8891 15.6695 30.093C15.7977 30.1688 15.9098 30.2688 16 30.3871V30.3793ZM16 24.7793C15.9641 24.909 15.4215 25.4785 13.416 25.9246C12.4066 26.1488 11.3805 26.2895 10.348 26.3457C9.31563 26.409 8.28047 26.409 7.24805 26.3457C6.21289 26.2891 5.18398 26.1477 4.17188 25.9223C2.18633 25.4887 1.64062 24.923 1.6 24.8145V24.809C1.68047 24.6754 1.79453 24.5652 1.93047 24.4887C4.13047 25.2863 6.46055 25.6633 8.8 25.6C11.1391 25.6645 13.4691 25.2891 15.6695 24.493C15.7977 24.5688 15.9098 24.6688 16 24.7871V24.7793ZM16.577 17.6H21.6207C21.257 18.0711 21.0043 18.618 20.8809 19.2H17.6C17.5523 18.5277 17.1672 17.925 16.577 17.6ZM40.0801 16H17.5199C17.1969 14.4301 15.9699 13.2031 14.4 12.8801V7.91992C15.9699 7.59688 17.1969 6.36992 17.5199 4.8H40.0801C40.4031 6.36992 41.6301 7.59688 43.2 7.91992V12.8801C41.6301 13.2031 40.4031 14.4301 40.0801 16ZM43.2 44C43.2 45.3254 42.1254 46.4 40.8 46.4H24.8C23.4746 46.4 22.4 45.3254 22.4 44V20C22.4 18.6746 23.4746 17.6 24.8 17.6H40.8C42.1254 17.6 43.2 18.6746 43.2 20V44ZM46.4 19.2H44.7199C44.4027 17.6742 43.2301 16.4707 41.7129 16.1145C42.0129 15.1008 42.9426 14.4039 44 14.4H44.8V6.4H44C42.6746 6.4 41.6 5.32539 41.6 4V3.2H16V4C16 5.32539 14.9254 6.4 13.6 6.4H12.8V14.4H13.6C14.9254 14.4 16 15.4746 16 16.8V17.2574C14.4793 16.5977 12.8547 16.209 11.2 16.109V1.6H46.4V19.2Z" fill="#243B98"/>
<path d="M28.8 6.3999C26.5911 6.3999 24.8 8.19092 24.8 10.3999C24.8 12.6089 26.5911 14.3999 28.8 14.3999C31.009 14.3999 32.8 12.6089 32.8 10.3999C32.7973 8.1917 31.0083 6.40264 28.8 6.3999ZM28.8 12.7999C27.4747 12.7999 26.4 11.7253 26.4 10.3999C26.4 9.07451 27.4747 7.9999 28.8 7.9999C30.1254 7.9999 31.2 9.07451 31.2 10.3999C31.2 11.7253 30.1254 12.7999 28.8 12.7999Z" fill="#243B98"/>
<path d="M34.4 9.6001H37.6V11.2001H34.4V9.6001Z" fill="#243B98"/>
<path d="M20 9.6001H23.2V11.2001H20V9.6001Z" fill="#243B98"/>
<path d="M24 25.6002H41.6V19.2002H24V25.6002ZM25.6 20.8002H40V24.0002H25.6V20.8002Z" fill="#243B98"/>
<path d="M24 44.8002H41.6V27.2002H24V44.8002ZM33.6 28.8002H40V35.2002H33.6V28.8002ZM33.6 36.8002H40V43.2002H33.6V36.8002ZM25.6 28.8002H32V35.2002H25.6V28.8002ZM25.6 36.8002H32V43.2002H25.6V36.8002Z" fill="#243B98"/>
<path d="M29.6 29.6001H28V31.2001H26.4V32.8001H28V34.4001H29.6V32.8001H31.2V31.2001H29.6V29.6001Z" fill="#243B98"/>
<path d="M29.9312 37.7373L28.8 38.8686L27.6687 37.7373L26.5375 38.8686L27.6687 39.9998L26.5375 41.1311L27.6687 42.2623L28.8 41.1311L29.9312 42.2623L31.0625 41.1311L29.9312 39.9998L31.0625 38.8686L29.9312 37.7373Z" fill="#243B98"/>
<path d="M35.2 31.2002H38.4V32.8002H35.2V31.2002Z" fill="#243B98"/>
<path d="M35.2 38.3999H38.4V39.9999H35.2V38.3999Z" fill="#243B98"/>
<path d="M35.2 40.7998H38.4V42.3998H35.2V40.7998Z" fill="#243B98"/>
</svg>
