<svg width="24" height="16" viewBox="0 0 24 16" fill="none" xmlns="http://www.w3.org/2000/svg"><path d="M22.203 0H1.797C.805 0 0 .806 0 1.799v12.13c0 .992.805 1.797 1.797 1.797h20.406c.992 0 1.797-.805 1.797-1.797V1.797c0-.993-.805-1.797-1.797-1.797z" fill="#F5F5F5"></path><path d="M.099 1.21H23.9A1.798 1.798 0 0 0 22.202 0H1.797C1.01 0 .342.506.1 1.21zM24 4.838H0v1.21h24v-1.21zM24 2.419H0v1.21h24v-1.21zM0 8.053c0 .229.185.414.414.414H24v-1.21H0v.796zM24 12.096H0v1.21h24v-1.21zM23.9 14.514H.1c.243.704.911 1.21 1.698 1.21h20.405c.787 0 1.455-.506 1.699-1.21zM24 9.677H0v1.21h24v-1.21z" fill="#FF4B55"></path><path d="M.414 8.467h10.345a.414.414 0 0 0 .413-.414V.413A.414.414 0 0 0 10.76 0H1.797C.805 0 0 .805 0 1.797v6.256c0 .229.185.414.414.414z" fill="#41479B"></path><path d="M1.162.95l.091.275.29.002c.038 0 .053.048.023.07l-.233.172.087.276a.039.039 0 0 1-.06.044l-.235-.169-.236.169a.039.039 0 0 1-.06-.044l.088-.276-.233-.172a.039.039 0 0 1 .023-.07l.29-.002.09-.275a.039.039 0 0 1 .075 0zM1.162 2.387l.091.274.29.003c.038 0 .053.048.023.07l-.233.172.087.276a.039.039 0 0 1-.06.044l-.235-.169-.236.169a.039.039 0 0 1-.06-.044l.088-.276-.233-.172a.039.039 0 0 1 .023-.07l.29-.003.09-.274a.039.039 0 0 1 .075 0zM1.162 3.824l.091.274.29.003c.038 0 .053.048.023.07l-.233.172.087.276a.039.039 0 0 1-.06.044l-.235-.169-.236.169a.039.039 0 0 1-.06-.044l.088-.276-.233-.172a.039.039 0 0 1 .023-.07l.29-.003.09-.274a.039.039 0 0 1 .075 0zM1.162 5.26l.091.275.29.002c.038 0 .053.049.023.07l-.233.173.087.276a.039.039 0 0 1-.06.043l-.235-.168-.236.168a.039.039 0 0 1-.06-.043l.088-.276-.233-.172a.039.039 0 0 1 .023-.07l.29-.003.09-.274a.039.039 0 0 1 .075 0zM1.162 6.697l.091.275.29.002c.038 0 .053.048.023.07l-.233.173.087.276a.039.039 0 0 1-.06.043l-.235-.168-.236.168a.039.039 0 0 1-.06-.043l.088-.276-.233-.172a.039.039 0 0 1 .023-.07l.29-.003.09-.275a.039.039 0 0 1 .075 0zM2.277 1.654l.092.275.29.002c.037 0 .052.048.022.07l-.233.173.088.276a.039.039 0 0 1-.06.043l-.236-.168-.235.168a.039.039 0 0 1-.06-.043l.087-.276-.233-.172a.039.039 0 0 1 .023-.07l.29-.003.091-.275a.039.039 0 0 1 .074 0zM2.277 3.091l.092.275.29.002c.037 0 .052.048.022.07l-.233.173.088.276a.039.039 0 0 1-.06.043l-.236-.168-.235.168a.039.039 0 0 1-.06-.043l.087-.276-.233-.172a.039.039 0 0 1 .023-.07l.29-.003.091-.275a.039.039 0 0 1 .074 0zM2.277 4.528l.092.275.29.002c.037 0 .052.048.022.07l-.233.172.088.277a.039.039 0 0 1-.06.043l-.236-.168-.235.168a.039.039 0 0 1-.06-.043l.087-.277-.233-.172a.039.039 0 0 1 .023-.07l.29-.002.091-.275a.039.039 0 0 1 .074 0zM2.277 5.965l.092.275.29.002c.037 0 .052.048.022.07l-.233.172.088.276a.039.039 0 0 1-.06.044l-.236-.168-.235.168a.039.039 0 0 1-.06-.044l.087-.276-.233-.172a.039.039 0 0 1 .023-.07l.29-.002.091-.275a.039.039 0 0 1 .074 0zM3.393.95l.091.274.29.003c.037 0 .053.048.023.07l-.233.172.087.276a.039.039 0 0 1-.06.044l-.235-.169-.236.169a.039.039 0 0 1-.06-.044l.088-.276-.233-.172a.039.039 0 0 1 .023-.07l.29-.003.09-.274a.039.039 0 0 1 .075 0zM3.393 2.387l.091.274.29.003c.037 0 .053.048.023.07l-.233.172.087.276a.039.039 0 0 1-.06.044l-.235-.169-.236.169a.039.039 0 0 1-.06-.044l.088-.276-.233-.172a.039.039 0 0 1 .023-.07l.29-.003.09-.274a.039.039 0 0 1 .075 0zM3.393 3.824l.091.274.29.003c.037 0 .053.048.023.07l-.233.172.087.276a.039.039 0 0 1-.06.044l-.235-.169-.236.169a.039.039 0 0 1-.06-.044l.088-.276-.233-.172a.039.039 0 0 1 .023-.07l.29-.003.09-.274a.039.039 0 0 1 .075 0zM3.393 5.26l.091.275.29.002c.037 0 .053.049.023.07l-.233.173.087.276a.039.039 0 0 1-.06.043l-.235-.168-.236.168a.039.039 0 0 1-.06-.043l.088-.276-.233-.172a.039.039 0 0 1 .023-.07l.29-.003.09-.274a.039.039 0 0 1 .075 0zM3.393 6.697l.091.275.29.002c.037 0 .053.048.023.07l-.233.173.087.276a.039.039 0 0 1-.06.043l-.235-.168-.236.168a.039.039 0 0 1-.06-.043l.088-.276-.233-.172a.039.039 0 0 1 .023-.07l.29-.003.09-.275a.039.039 0 0 1 .075 0zM4.508 1.654l.092.275.29.002c.037 0 .052.048.022.07l-.233.173.088.276a.039.039 0 0 1-.06.043l-.236-.168-.235.168a.039.039 0 0 1-.06-.043l.087-.276-.233-.172a.039.039 0 0 1 .023-.07l.29-.003.091-.275a.039.039 0 0 1 .074 0zM4.508 3.091l.092.275.29.002c.037 0 .052.048.022.07l-.233.173.088.276a.039.039 0 0 1-.06.043l-.236-.168-.235.168a.039.039 0 0 1-.06-.043l.087-.276-.233-.172a.039.039 0 0 1 .023-.07l.29-.003.091-.275a.039.039 0 0 1 .074 0zM4.508 4.528l.092.275.29.002c.037 0 .052.048.022.07l-.233.172.088.277a.039.039 0 0 1-.06.043l-.236-.168-.235.168a.039.039 0 0 1-.06-.043l.087-.277-.233-.172a.039.039 0 0 1 .023-.07l.29-.002.091-.275a.039.039 0 0 1 .074 0zM4.508 5.965l.092.275.29.002c.037 0 .052.048.022.07l-.233.172.088.276a.039.039 0 0 1-.06.044l-.236-.168-.235.168a.039.039 0 0 1-.06-.044l.087-.276-.233-.172a.039.039 0 0 1 .023-.07l.29-.002.091-.275a.039.039 0 0 1 .074 0zM5.623.95l.092.274.29.003c.037 0 .052.048.022.07l-.233.172.088.276a.039.039 0 0 1-.06.044l-.236-.169-.235.169a.039.039 0 0 1-.06-.044l.087-.276-.233-.172a.039.039 0 0 1 .023-.07l.29-.002.091-.275a.039.039 0 0 1 .074 0zM5.623 2.387l.092.274.29.003c.037 0 .052.048.022.07l-.233.172.088.276a.039.039 0 0 1-.06.044l-.236-.169-.235.169a.039.039 0 0 1-.06-.044l.087-.276-.233-.172a.039.039 0 0 1 .023-.07l.29-.003.091-.274a.039.039 0 0 1 .074 0zM5.623 3.824l.092.274.29.003c.037 0 .052.048.022.07l-.233.172.088.276a.039.039 0 0 1-.06.044l-.236-.169-.235.169a.039.039 0 0 1-.06-.044l.087-.276-.233-.172a.039.039 0 0 1 .023-.07l.29-.003.091-.274a.039.039 0 0 1 .074 0zM5.623 5.26l.092.275.29.002c.037 0 .052.049.022.07l-.233.173.088.276a.039.039 0 0 1-.06.043l-.236-.168-.235.168a.039.039 0 0 1-.06-.043l.087-.276-.233-.172a.039.039 0 0 1 .023-.07l.29-.003.091-.274a.039.039 0 0 1 .074 0zM5.623 6.697l.092.275.29.002c.037 0 .052.048.022.07l-.233.173.088.276a.039.039 0 0 1-.06.043l-.236-.168-.235.168a.039.039 0 0 1-.06-.043l.087-.276-.233-.172a.039.039 0 0 1 .023-.07l.29-.003.091-.275a.039.039 0 0 1 .074 0zM6.739 1.654l.091.275.29.002c.037 0 .053.048.023.07l-.233.173.087.276a.039.039 0 0 1-.06.043l-.235-.168-.236.168a.039.039 0 0 1-.06-.043l.087-.276-.232-.172a.039.039 0 0 1 .022-.07l.29-.003.092-.275a.039.039 0 0 1 .074 0zM6.739 3.091l.091.275.29.002c.037 0 .053.048.023.07l-.233.173.087.276a.039.039 0 0 1-.06.043l-.235-.168-.236.168a.039.039 0 0 1-.06-.043l.087-.276-.232-.172a.039.039 0 0 1 .022-.07l.29-.003.092-.275a.039.039 0 0 1 .074 0zM6.739 4.528l.091.275.29.002c.037 0 .053.048.023.07l-.233.172.087.277a.039.039 0 0 1-.06.043l-.235-.168-.236.168a.039.039 0 0 1-.06-.043l.087-.277-.232-.172a.039.039 0 0 1 .022-.07l.29-.002.092-.275a.039.039 0 0 1 .074 0zM6.739 5.965l.091.275.29.002c.037 0 .053.048.023.07l-.233.172.087.276a.039.039 0 0 1-.06.044l-.235-.168-.236.168a.039.039 0 0 1-.06-.044l.087-.276-.232-.172a.039.039 0 0 1 .022-.07l.29-.002.092-.275a.039.039 0 0 1 .074 0zM7.854.95l.091.274.29.003c.037 0 .053.048.023.07l-.233.172.087.276a.039.039 0 0 1-.06.044l-.235-.169-.236.169a.039.039 0 0 1-.06-.044l.088-.276-.233-.172a.039.039 0 0 1 .023-.07l.29-.003.09-.274a.039.039 0 0 1 .075 0zM7.854 2.387l.091.274.29.003c.037 0 .053.048.023.07l-.233.172.087.276a.039.039 0 0 1-.06.044l-.235-.169-.236.169a.039.039 0 0 1-.06-.044l.088-.276-.233-.172a.039.039 0 0 1 .023-.07l.29-.003.09-.274a.039.039 0 0 1 .075 0zM7.854 3.824l.091.274.29.003c.037 0 .053.048.023.07l-.233.172.087.276a.039.039 0 0 1-.06.044l-.235-.169-.236.169a.039.039 0 0 1-.06-.044l.088-.276-.233-.172a.039.039 0 0 1 .023-.07l.29-.003.09-.274a.039.039 0 0 1 .075 0zM7.854 5.26l.091.275.29.002c.037 0 .053.049.023.07l-.233.173.087.276a.039.039 0 0 1-.06.043l-.235-.168-.236.168a.039.039 0 0 1-.06-.043l.088-.276-.233-.172a.039.039 0 0 1 .023-.07l.29-.003.09-.274a.039.039 0 0 1 .075 0zM7.854 6.697l.091.275.29.002c.037 0 .053.048.023.07l-.233.173.087.276a.039.039 0 0 1-.06.043l-.235-.168-.236.168a.039.039 0 0 1-.06-.043l.088-.276-.233-.172a.039.039 0 0 1 .023-.07l.29-.003.09-.275a.039.039 0 0 1 .075 0zM8.969 1.654l.092.275.29.002c.037 0 .052.048.022.07l-.233.173.087.276a.039.039 0 0 1-.06.043l-.235-.168-.236.168a.039.039 0 0 1-.06-.043l.088-.276-.233-.172a.039.039 0 0 1 .023-.07l.29-.003.091-.275a.039.039 0 0 1 .074 0zM8.969 3.091l.092.275.29.002c.037 0 .052.048.022.07l-.233.173.087.276a.039.039 0 0 1-.06.043l-.235-.168-.236.168a.039.039 0 0 1-.06-.043l.088-.276-.233-.172a.039.039 0 0 1 .023-.07l.29-.003.091-.275a.039.039 0 0 1 .074 0zM8.969 4.528l.092.275.29.002c.037 0 .052.048.022.07l-.233.172.087.277a.039.039 0 0 1-.06.043l-.235-.168-.236.168a.039.039 0 0 1-.06-.043l.088-.277-.233-.172a.039.039 0 0 1 .023-.07l.29-.002.091-.275a.039.039 0 0 1 .074 0zM8.969 5.965l.092.275.29.002c.037 0 .052.048.022.07l-.233.172.087.276a.039.039 0 0 1-.06.044l-.235-.168-.236.168a.039.039 0 0 1-.06-.044l.088-.276-.233-.172a.039.039 0 0 1 .023-.07l.29-.002.091-.275a.039.039 0 0 1 .074 0zM10.085.95l.091.274.29.003c.037 0 .053.048.023.07l-.233.172.087.276a.039.039 0 0 1-.06.044l-.235-.169-.236.169a.039.039 0 0 1-.06-.044l.088-.276-.233-.172a.039.039 0 0 1 .023-.07l.29-.003.09-.274a.039.039 0 0 1 .075 0zM10.085 2.387l.091.274.29.003c.037 0 .053.048.023.07l-.233.172.087.276a.039.039 0 0 1-.06.044l-.235-.169-.236.169a.039.039 0 0 1-.06-.044l.088-.276-.233-.172a.039.039 0 0 1 .023-.07l.29-.003.09-.274a.039.039 0 0 1 .075 0zM10.085 3.824l.091.274.29.003c.037 0 .053.048.023.07l-.233.172.087.276a.039.039 0 0 1-.06.044l-.235-.169-.236.169a.039.039 0 0 1-.06-.044l.088-.276-.233-.172a.039.039 0 0 1 .023-.07l.29-.003.09-.274a.039.039 0 0 1 .075 0zM10.085 5.26l.091.275.29.002c.037 0 .053.049.023.07l-.233.173.087.276a.039.039 0 0 1-.06.043l-.235-.168-.236.168a.039.039 0 0 1-.06-.043l.088-.276-.233-.172a.039.039 0 0 1 .023-.07l.29-.003.09-.274a.039.039 0 0 1 .075 0zM10.085 6.697l.091.275.29.002c.037 0 .053.048.023.07l-.233.173.087.276a.039.039 0 0 1-.06.043l-.235-.168-.236.168a.039.039 0 0 1-.06-.043l.088-.276-.233-.172a.039.039 0 0 1 .023-.07l.29-.003.09-.275a.039.039 0 0 1 .075 0z" fill="#F5F5F5"></path></svg>