<svg width="48" height="48" viewBox="0 0 48 48" fill="none" xmlns="http://www.w3.org/2000/svg">
<g clip-path="url(#clip0_713_3606)">
<path d="M18.6887 23.0778C19.0824 23.0778 19.4014 22.7588 19.4014 22.3651V20.8724C19.4014 20.4791 19.0824 20.1602 18.6887 20.1602C18.2954 20.1602 17.9764 20.4791 17.9764 20.8724V22.3651C17.9764 22.7588 18.2954 23.0778 18.6887 23.0778Z" fill="#243B98"/>
<path d="M11.7589 22.3651V20.8724C11.7589 20.4791 11.4399 20.1602 11.0466 20.1602C10.653 20.1602 10.334 20.4791 10.334 20.8724V22.3651C10.334 22.7588 10.653 23.0778 11.0466 23.0778C11.4399 23.0778 11.7589 22.7588 11.7589 22.3651Z" fill="#243B98"/>
<path d="M18.0062 27.4877C18.2845 27.2094 18.2845 26.7582 18.0062 26.4802C17.7279 26.2019 17.2767 26.2019 16.9984 26.4802C15.8232 27.6554 13.9109 27.6554 12.7357 26.4802C12.4574 26.2019 12.0066 26.2019 11.7283 26.4802C11.45 26.7585 11.45 27.2097 11.7283 27.4877C12.5936 28.353 13.7303 28.7859 14.8674 28.7859C16.0038 28.7859 17.1409 28.353 18.0062 27.4877Z" fill="#243B98"/>
<path d="M47.0822 26.1762C47.4759 26.1762 47.7949 25.8572 47.7949 25.4635V21.5308C47.7949 21.1371 47.4759 20.8182 47.0822 20.8182H41.191V20.0451C41.191 18.833 40.2048 17.8464 38.9923 17.8464H33.7097C32.4972 17.8464 31.5106 18.833 31.5106 20.0451V20.8182H29.4379C29.0779 19.4357 27.8533 18.3748 26.3207 18.1203V14.3645C27.5197 13.4372 28.4213 12.284 29.0138 10.9129C31.0477 6.20349 28.689 0.662371 28.5879 0.42873C28.4912 0.206441 28.2887 0.0486043 28.0496 0.00941987C27.8104 -0.0297645 27.568 0.0548299 27.4058 0.234639C25.0152 2.87867 20.9568 2.46266 16.6605 2.02247C15.6105 1.91481 14.5251 1.80385 13.4609 1.73903C10.3228 1.54823 7.46421 3.2599 6.1572 6.04785C5.00401 5.86438 3.83287 6.13977 2.86535 6.83813C1.72131 7.66357 1.05005 8.94493 1.02295 10.3541C0.96362 13.4526 2.29479 16.6668 3.03307 18.2034C1.39172 18.6378 0.187622 20.0231 0.187622 21.6616C0.187622 23.4816 1.67297 24.9893 3.59301 25.2281C4.00023 27.514 5.09227 29.6182 6.76841 31.2943C7.91428 32.4406 9.26083 33.3136 10.7282 33.8816V36.0122H9.19198C9.18649 36.0122 9.18063 36.0122 9.17477 36.0122H6.46409C4.78575 36.0122 3.18541 36.8171 2.1831 38.1655C1.94836 38.4812 2.01391 38.9276 2.32958 39.1623C2.45739 39.2572 2.60644 39.303 2.75439 39.303C2.97191 39.303 3.18688 39.2037 3.3264 39.0155C3.94823 38.1794 4.84654 37.6418 5.85105 37.4858L5.60203 43.7993C5.58848 44.1366 5.8137 44.4369 6.14109 44.5189L7.90622 44.9602L6.29856 46.5675H2.55736V41.3439C2.55736 40.9505 2.2384 40.6312 1.84509 40.6312C1.45141 40.6312 1.13244 40.9505 1.13244 41.3439V47.2801C1.13244 47.6734 1.45141 47.9928 1.84509 47.9928L47.0822 48.0001C47.4759 48.0001 47.7949 47.6807 47.7949 47.2874V28.3138C47.7949 27.9201 47.4759 27.6011 47.0822 27.6011C46.6885 27.6011 46.3699 27.9201 46.3699 28.3138V46.5748H28.3539L30.6387 44.2896C30.9683 43.9601 31.1495 43.5221 31.1495 43.0566C31.1495 42.5908 30.9683 42.1528 30.6387 41.8236L27.7185 38.9034C27.6413 38.8262 27.5581 38.7591 27.4713 38.6995L29.3258 36.845C29.6041 36.5667 29.6041 36.1155 29.3258 35.8375C29.0475 35.5592 28.5967 35.5592 28.3184 35.8375L26.331 37.8246V22.2431H31.5106V23.1817C31.5106 24.3942 32.4972 25.3804 33.7097 25.3804H38.9923C40.2048 25.3804 41.191 24.3942 41.191 23.1817V22.2431H46.3699V25.4635C46.3699 25.8572 46.6889 26.1762 47.0822 26.1762ZM23.9795 40.176L23.8733 37.4873C24.2307 37.5441 24.5786 37.6499 24.906 37.8022V39.2495L23.9795 40.176ZM11.2537 37.4368L13.6949 38.8122L11.2135 41.2941L10.1145 37.4368H11.2537ZM18.4714 37.4368H19.6106L18.5117 41.2937L16.0302 38.8122L18.4714 37.4368ZM22.4455 37.4368L22.6077 41.5482L18.85 45.3066L21.0923 37.4368H22.4455ZM14.8624 39.66L16.2225 41.0201L14.8001 42.7772L13.4583 41.0641L14.8624 39.66ZM12.4432 42.0792L13.9417 43.9916L12.4919 45.7823L11.6599 42.8622L12.4432 42.0792ZM17.2358 42.0331L18.0649 42.8622L17.2453 45.7391L15.7651 43.8498L17.2358 42.0331ZM14.9063 45.0645L16.0837 46.5675H13.6898L14.9063 45.0645ZM22.1082 44.0637L24.6112 46.5675H19.6044L22.1082 44.0637ZM24.906 36.273C24.3769 36.1012 23.821 36.0118 23.2596 36.0118H20.5492C20.5437 36.0118 20.5383 36.0118 20.5331 36.0118H18.9969V33.8783C21.5197 32.8994 23.6126 31.0515 24.906 28.7038V36.273ZM2.44787 10.3812C2.46618 9.42467 2.92211 8.55419 3.69921 7.99352C4.22472 7.61449 4.83812 7.41857 5.46324 7.41857C5.76573 7.41857 6.07078 7.46435 6.36997 7.55736C6.73106 7.66979 7.11704 7.48009 7.24924 7.1256C8.19333 4.58887 10.6532 2.99549 13.3745 3.16102C14.409 3.22401 15.4798 3.33387 16.5151 3.44007C20.5687 3.85535 24.7471 4.28345 27.6336 1.9723C28.1781 3.67151 29.0296 7.28307 27.7057 10.3479C26.8396 12.354 25.1569 13.8188 22.7048 14.7021C15.8321 17.1781 9.23593 13.4786 9.17074 13.4416C8.97262 13.3277 8.73202 13.3156 8.52365 13.409C8.31528 13.5028 8.1644 13.6906 8.11789 13.914C8.10983 13.9539 7.30088 17.6896 4.54222 18.0357C3.96837 16.906 2.38818 13.5024 2.44787 10.3812ZM1.61291 21.6616C1.61291 20.6761 2.37389 19.8422 3.41393 19.5756V23.1945C3.41393 23.3805 3.41832 23.5662 3.42711 23.7508C2.38049 23.4878 1.61291 22.6511 1.61291 21.6616ZM4.83885 23.1945V19.4335C6.30845 19.2149 7.55466 18.3104 8.47275 16.7833C8.84225 16.1684 9.0953 15.5561 9.25937 15.0819C10.0339 15.4441 11.3306 15.9787 12.9771 16.3907C17.4855 17.519 21.018 16.8243 23.1878 16.0424C23.7979 15.8227 24.3673 15.57 24.8958 15.2855V23.1941C24.8958 28.7246 20.3969 33.2235 14.8671 33.2235C12.1887 33.2235 9.67025 32.1806 7.77622 30.2865C5.88181 28.3925 4.83885 25.8737 4.83885 23.1945ZM14.8671 34.6488C15.7988 34.6488 16.7044 34.5364 17.5716 34.3255V36.3081L14.8624 37.8345L12.1532 36.3081V34.3265C13.0313 34.5389 13.9406 34.6488 14.8671 34.6488ZM9.98629 44.3838C9.91781 44.1362 9.72152 43.945 9.4725 43.8828L7.04856 43.2767L7.2789 37.4371H8.63278L11.234 46.5675H8.31381L9.80355 45.0777C9.98519 44.8961 10.0548 44.631 9.98629 44.3838ZM29.6312 42.831C29.7125 42.9123 29.7246 43.0072 29.7246 43.0566C29.7246 43.1057 29.7125 43.2005 29.6312 43.2822L26.4862 46.4272L23.116 43.0563L25.9347 40.2364C26.0742 40.1669 26.1874 40.0537 26.2566 39.9145L26.2592 39.9116C26.3841 39.7871 26.5869 39.7867 26.7107 39.9109L29.6312 42.831ZM26.3207 20.8182V19.5738C27.0476 19.7584 27.6372 20.218 27.9269 20.8182H26.3207ZM39.7661 23.1817C39.7661 23.6083 39.4189 23.9555 38.9923 23.9555H33.7097C33.2831 23.9555 32.9359 23.6083 32.9359 23.1817V20.0451C32.9359 19.6185 33.2831 19.2713 33.7097 19.2713H38.9923C39.4189 19.2713 39.7661 19.6185 39.7661 20.0451V23.1817Z" fill="#243B98"/>
<path d="M42.6648 28.5557H30.2261C29.8328 28.5557 29.5138 28.8746 29.5138 29.2679C29.5138 29.6616 29.8328 29.9806 30.2261 29.9806H42.6648C43.0585 29.9806 43.3774 29.6616 43.3774 29.2679C43.3774 28.8746 43.0585 28.5557 42.6648 28.5557Z" fill="#243B98"/>
<path d="M42.6648 32.7012H30.2261C29.8328 32.7012 29.5138 33.0201 29.5138 33.4138C29.5138 33.8071 29.8328 34.1261 30.2261 34.1261H42.6648C43.0585 34.1261 43.3774 33.8071 43.3774 33.4138C43.3774 33.0201 43.0585 32.7012 42.6648 32.7012Z" fill="#243B98"/>
<path d="M43.3774 37.5603C43.3774 37.1666 43.0585 36.8477 42.6648 36.8477H30.2261C29.8328 36.8477 29.5138 37.1666 29.5138 37.5603C29.5138 37.9536 29.8328 38.2726 30.2261 38.2726H42.6648C43.0585 38.2726 43.3774 37.9536 43.3774 37.5603Z" fill="#243B98"/>
<path d="M32.1079 40.9941C31.7142 40.9941 31.3953 41.3131 31.3953 41.7068C31.3953 42.1001 31.7142 42.4191 32.1079 42.4191H40.7845C41.1779 42.4191 41.4968 42.1001 41.4968 41.7068C41.4968 41.3131 41.1779 40.9941 40.7845 40.9941H32.1079Z" fill="#243B98"/>
</g>
<defs>
<clipPath id="clip0_713_3606">
<rect width="48" height="48" fill="white"/>
</clipPath>
</defs>
</svg>
