<svg width="48" height="48" viewBox="0 0 48 48" fill="none" xmlns="http://www.w3.org/2000/svg">
<path d="M47.6556 42.55L43.531 38.425C43.2527 38.1467 42.8015 38.1467 42.5228 38.425C42.2445 38.7034 42.2445 39.1549 42.5228 39.4332L46.1439 43.054L42.9183 46.2792L34.4629 37.8237L37.6885 34.5985L40.4321 37.3422C40.7104 37.6208 41.1616 37.6208 41.4403 37.3422C41.7186 37.0638 41.7186 36.6127 41.4403 36.3344L38.1924 33.0864C38.0587 32.9528 37.8774 32.8777 37.6881 32.8777C37.4991 32.8777 37.3179 32.9528 37.1842 33.0864L36.9637 33.3069L33.2819 29.6243C38.8043 22.3997 38.2653 11.9956 31.6628 5.39319C24.4719 -1.79773 12.7715 -1.79773 5.58093 5.39319C-1.60999 12.5837 -1.60999 24.2842 5.58093 31.4751C9.17639 35.0706 13.899 36.8683 18.6217 36.8683C22.4244 36.8683 26.2268 35.7015 29.4414 33.3706L33.1713 37.0997L32.9508 37.3198C32.8171 37.4535 32.7421 37.6348 32.7421 37.8241C32.7421 38.0131 32.8171 38.1943 32.9508 38.328L42.4141 47.7913C42.5532 47.9304 42.736 48 42.9183 48C43.1007 48 43.2831 47.9304 43.4222 47.7913L47.6556 43.5579C47.7893 43.4242 47.8644 43.2429 47.8644 43.054C47.8644 42.865 47.7893 42.6833 47.6556 42.55ZM6.58875 30.4669C-0.0458984 23.8319 -0.0458984 13.036 6.58875 6.401C9.90625 3.0835 14.2642 1.42493 18.6217 1.42493C22.9796 1.42493 27.3372 3.0835 30.6547 6.401C37.2897 13.036 37.2897 23.8319 30.6547 30.4669C24.0197 37.1019 13.2241 37.1019 6.58875 30.4669ZM30.5701 32.4829C30.9443 32.1643 31.3091 31.8285 31.6628 31.4751C31.9067 31.2308 32.1418 30.9814 32.3693 30.7273L35.9559 34.3151L34.1791 36.0916L30.5701 32.4829Z" fill="#243B98"/>
<path d="M20.4626 23.0338C20.8563 23.0338 21.1753 22.7145 21.1753 22.3208V21.3914C21.1753 20.9977 20.8563 20.6787 20.4626 20.6787C20.069 20.6787 19.75 20.9977 19.75 21.3914V22.3208C19.75 22.7145 20.069 23.0338 20.4626 23.0338Z" fill="#243B98"/>
<path d="M16.4161 22.3208V21.3914C16.4161 20.9977 16.0972 20.6787 15.7035 20.6787C15.3098 20.6787 14.9905 20.9977 14.9905 21.3914V22.3208C14.9905 22.7145 15.3098 23.0338 15.7035 23.0338C16.0972 23.0338 16.4161 22.7145 16.4161 22.3208Z" fill="#243B98"/>
<path d="M20.2284 25.7011C20.5067 25.4227 20.5067 24.9716 20.2284 24.6933C19.9501 24.4146 19.4985 24.4149 19.2202 24.6933C18.9166 24.9968 18.5127 25.1642 18.0831 25.1642C17.6536 25.1642 17.25 24.9968 16.946 24.6933C16.6677 24.4149 16.2166 24.4149 15.9382 24.6933C15.6599 24.9716 15.6599 25.4227 15.9382 25.7011C16.511 26.2742 17.2731 26.5899 18.0831 26.5899C18.8936 26.5899 19.6553 26.2742 20.2284 25.7011Z" fill="#243B98"/>
<path d="M28.9014 8.15381C26.1556 5.40759 22.5044 3.89551 18.6211 3.89551C14.7382 3.89551 11.0871 5.40759 8.34122 8.15381C7.06791 9.42676 6.05533 10.8997 5.33097 12.5319C5.1713 12.8915 5.33353 13.3126 5.69315 13.4723C6.05277 13.632 6.47428 13.4701 6.63395 13.1101C7.2869 11.639 8.2006 10.3108 9.34903 9.16199C11.8261 6.6853 15.1187 5.32117 18.6211 5.32117C22.1236 5.32117 25.4165 6.6853 27.8932 9.16199C30.3699 11.6387 31.7337 14.9313 31.7337 18.4341C31.7337 21.9365 30.3699 25.2291 27.8932 27.7058C25.9681 29.631 23.55 30.8834 20.9235 31.3459V29.6716C23.1508 28.7422 24.8306 26.7548 25.3305 24.3403C26.5642 24.1016 27.4933 23.0905 27.4933 21.8823C27.4933 20.7255 26.6404 19.7488 25.4843 19.4591V17.4684C26.2149 16.8781 26.769 16.1526 27.1392 15.2953C28.4521 12.2565 26.9389 8.70203 26.8741 8.55225C26.7774 8.32996 26.5749 8.17212 26.3357 8.13257C26.0966 8.09338 25.8538 8.17834 25.6916 8.35815C24.2937 9.90356 21.8324 9.65125 19.2265 9.38428C18.5702 9.31689 17.8913 9.24731 17.2229 9.20667C15.2234 9.08508 13.3975 10.1365 12.5014 11.8679C11.7788 11.8009 11.0563 11.9957 10.4506 12.433C9.66874 12.9969 9.21024 13.8726 9.19156 14.8353C9.15714 16.6459 9.8599 18.5103 10.3404 19.5668C9.36112 19.9476 8.67154 20.8423 8.67154 21.8827C8.67154 23.0901 9.60025 24.1012 10.8333 24.34C11.1215 25.7444 11.8118 27.0349 12.8485 28.0717C13.544 28.7671 14.354 29.3069 15.2355 29.6742V31.1068C13.0291 30.5212 11.0061 29.3633 9.34903 27.7058C6.23368 24.5905 4.89554 20.1487 5.76932 15.8237C5.84732 15.4381 5.59794 15.062 5.21195 14.984C4.82633 14.9064 4.45023 15.1558 4.37223 15.5414C3.40323 20.3358 4.88712 25.2599 8.34122 28.714C11.0871 31.4598 14.7378 32.9719 18.6211 32.9719C22.5044 32.9719 26.1556 31.4598 28.9014 28.714C31.6473 25.9681 33.1593 22.317 33.1593 18.4341C33.1593 14.5504 31.6473 10.8997 28.9014 8.15381ZM26.068 21.8823C26.068 22.2606 25.8355 22.5939 25.4843 22.7883V20.9763C25.8355 21.1708 26.068 21.504 26.068 21.8823ZM10.6172 14.8624C10.6271 14.3519 10.8703 13.8879 11.2848 13.5887C11.5653 13.3862 11.8931 13.2815 12.2267 13.2815C12.3882 13.2815 12.5512 13.306 12.7108 13.3558C13.0723 13.4683 13.4583 13.2786 13.5905 12.9237C14.1369 11.4556 15.5618 10.5338 17.1365 10.6294C17.7752 10.6686 18.4391 10.7363 19.0815 10.8022C21.5208 11.0524 24.0319 11.3094 25.8842 10.0647C26.198 11.1846 26.536 13.1035 25.8282 14.7361C25.3188 15.9113 24.3241 16.7722 22.8721 17.2952C18.7152 18.7926 14.7078 16.5521 14.669 16.5298C14.4709 16.4159 14.2303 16.4038 14.0215 16.4976C13.8131 16.5913 13.6623 16.7792 13.6158 17.0029C13.6114 17.0245 13.1862 18.9907 11.8026 19.3236C11.4042 18.5084 10.5835 16.6111 10.6172 14.8624ZM10.0972 21.8823C10.0972 21.5044 10.3297 21.1708 10.6806 20.9763V22.7883C10.3297 22.5939 10.0972 22.2606 10.0972 21.8823ZM12.1062 22.837V20.7211C13.6066 20.3922 14.3815 19.0559 14.7419 18.1506C16.2441 18.8102 19.6916 19.9564 23.3555 18.6362C23.6001 18.548 23.8341 18.4513 24.059 18.3466V22.837C24.059 26.1326 21.378 28.814 18.0824 28.814C16.4861 28.814 14.9854 28.1921 13.8567 27.0635C12.7281 25.9344 12.1062 24.4337 12.1062 22.837ZM16.6612 31.4016V30.103C17.1244 30.1927 17.6001 30.2393 18.0828 30.2393C18.5666 30.2393 19.0397 30.1913 19.4978 30.1019V31.517C19.2074 31.536 18.9152 31.5463 18.6215 31.5463C17.959 31.5463 17.3042 31.4976 16.6612 31.4016Z" fill="#243B98"/>
<defs>
<rect width="48" height="48" fill="white"/>
</defs>
</svg>
