<svg width="48" height="48" viewBox="0 0 48 48" fill="none" xmlns="http://www.w3.org/2000/svg">
<g clip-path="url(#clip0_713_3736)">
<path d="M33.8737 13.0625H37.7266C38.1202 13.0625 38.4392 12.7435 38.4392 12.3502C38.4392 11.9565 38.1202 11.6376 37.7266 11.6376H34.5859V6.42163C34.5859 6.02832 34.267 5.70898 33.8737 5.70898C33.48 5.70898 33.161 6.02832 33.161 6.42163V12.3502C33.161 12.7435 33.48 13.0625 33.8737 13.0625Z" fill="#243B98"/>
<path d="M20.5457 24.6183C20.9393 24.6183 21.2579 24.2993 21.2579 23.906V22.5906C21.2579 22.1969 20.9393 21.8779 20.5457 21.8779C20.152 21.8779 19.833 22.1969 19.833 22.5906V23.906C19.833 24.2993 20.152 24.6183 20.5457 24.6183Z" fill="#243B98"/>
<path d="M13.8104 21.8779C13.4167 21.8779 13.0978 22.1969 13.0978 22.5906V23.906C13.0978 24.2993 13.4167 24.6183 13.8104 24.6183C14.2037 24.6183 14.5227 24.2993 14.5227 23.906V22.5906C14.5227 22.1969 14.2037 21.8779 13.8104 21.8779Z" fill="#243B98"/>
<path d="M24.981 26.0613V20.9179C27.2903 23.314 30.4899 24.6997 33.8733 24.6997C40.6829 24.6997 46.223 19.1593 46.223 12.3497C46.223 9.73531 45.4162 7.23703 43.8895 5.12437C43.6591 4.8054 43.2138 4.73362 42.8949 4.96397C42.5759 5.19468 42.5041 5.63999 42.7345 5.95896C44.0847 7.82699 44.798 10.0371 44.798 12.3497C44.798 18.3738 39.8971 23.2744 33.8733 23.2744C30.3401 23.2744 27.0329 21.5664 24.981 18.6957V18.3207C25.3245 18.0523 25.6402 17.7626 25.928 17.4524C26.667 18.602 27.6481 19.5827 28.8104 20.3221C30.3222 21.2841 32.073 21.7928 33.8733 21.7928C39.0797 21.7928 43.3153 17.5568 43.3153 12.35C43.3153 7.14365 39.0797 2.90807 33.8733 2.90807C31.2315 2.90807 28.7277 4.01805 26.953 5.92783C26.8509 5.72568 26.659 5.58213 26.4337 5.54551C26.1946 5.50596 25.9522 5.59092 25.7899 5.77073C25.3959 6.20652 24.948 6.54599 24.4566 6.80857C25.2567 5.4481 26.3448 4.27366 27.6624 3.36107C29.492 2.09435 31.6394 1.42492 33.8733 1.42492C36.5016 1.42492 39.0416 2.37194 41.025 4.09129C41.3224 4.3491 41.7724 4.31688 42.0302 4.01952C42.288 3.72215 42.2558 3.27245 41.9585 3.01464C39.7158 1.0708 36.8443 0 33.8733 0C31.3483 0 28.9199 0.756955 26.8512 2.18957C24.94 3.51305 23.4561 5.32359 22.5387 7.44247C20.7315 7.76254 18.5976 7.54465 16.3915 7.3187C15.4654 7.22385 14.5078 7.1257 13.5684 7.06857C10.7904 6.89939 8.25547 8.40231 7.07737 10.8574C6.05931 10.7116 5.02989 10.9621 4.17589 11.5784C3.14611 12.3215 2.54187 13.4754 2.51733 14.7436C2.46606 17.4308 3.59252 20.2133 4.2539 21.6082C2.82128 22.029 1.78125 23.2602 1.78125 24.7103C1.78125 26.3385 3.09155 27.6913 4.79625 27.9304C5.06322 29.3729 5.6389 30.7396 6.50132 31.9529C6.64048 32.1484 6.85984 32.2528 7.08286 32.2528C7.22532 32.2528 7.36961 32.21 7.49485 32.121C7.81565 31.8928 7.89072 31.4482 7.66294 31.1274C6.60752 29.6425 6.04942 27.8905 6.04942 26.0613V22.8178C7.33848 22.6032 8.43198 21.7986 9.23984 20.455C9.54562 19.9463 9.76205 19.4388 9.90854 19.0301C11.8077 19.9104 16.8211 21.7635 22.1641 19.8383C22.6585 19.6603 23.1221 19.4571 23.5561 19.2311V26.0617C23.5561 30.8887 19.6292 34.8155 14.8029 34.8155C12.7251 34.8155 10.7109 34.0751 9.13144 32.7303C8.83188 32.4751 8.38218 32.5113 8.12693 32.8105C7.87205 33.1105 7.90793 33.5598 8.20786 33.815C9.06626 34.546 10.0356 35.1213 11.0705 35.5289V37.2724H7.39707C4.75963 37.2724 2.61401 39.4181 2.61401 42.0555V47.2875C2.61401 47.6808 2.93298 48.0002 3.32665 48.0002H33.8524C34.0414 48.0002 34.2226 47.8995 34.3563 47.7658L34.628 47.4941C34.628 47.4937 34.6284 47.4933 34.6288 47.4933L37.7763 44.3454C37.7789 44.3428 37.7807 44.3403 37.7833 44.3377L37.7877 44.3333C37.806 44.3154 37.8229 44.2963 37.8386 44.2766C38.3985 43.6481 38.3791 42.6817 37.7763 42.0789L35.2568 39.5594C35.2143 39.5169 35.1697 39.4777 35.1239 39.4411L36.7623 37.8027C37.0406 37.5247 37.0406 37.0736 36.7623 36.7953C36.484 36.5169 36.0328 36.5169 35.7545 36.7953L32.9904 39.559C32.99 39.5598 32.9893 39.5609 32.9885 39.5612L32.2041 40.3457C32.2037 40.346 32.2034 40.3464 32.203 40.3468L29.845 42.7052C29.8435 42.7062 29.8424 42.7073 29.8413 42.7084L26.982 45.5674V42.0555C26.982 39.4181 24.8363 37.2724 22.1989 37.2724H18.5262V35.5351C22.3022 34.0454 24.981 30.3606 24.981 26.0613ZM33.8733 4.33299C38.2938 4.33299 41.8903 7.92917 41.8903 12.3497C41.8903 16.7709 38.2942 20.3675 33.8733 20.3675C30.9205 20.3675 28.2663 18.7895 26.8531 16.2242C27.0373 15.9206 27.2035 15.6042 27.3474 15.2713C28.5629 12.457 28.0139 9.31161 27.4968 7.49081C29.0108 5.50742 31.3691 4.33299 33.8733 4.33299ZM3.20617 24.7103C3.20617 23.9149 3.79906 23.2364 4.62413 22.9837V26.0613C4.62413 26.1876 4.62706 26.3136 4.63146 26.4392C3.80236 26.1884 3.20617 25.5083 3.20617 24.7103ZM21.6811 18.4976C15.6628 20.6656 9.88144 17.4253 9.82431 17.3928C9.62656 17.2792 9.38669 17.2675 9.17868 17.3605C8.97067 17.4535 8.81943 17.641 8.77182 17.8641C8.76486 17.8981 8.06284 21.0776 5.75096 21.4225C5.22728 20.3847 3.89062 17.4623 3.94225 14.7707C3.95763 13.9548 4.34691 13.2121 5.00975 12.7338C5.45836 12.4101 5.98167 12.2431 6.51524 12.2431C6.77342 12.2431 7.03379 12.2823 7.28904 12.3614C7.65012 12.4738 8.03611 12.2841 8.16831 11.9296C8.98715 9.72909 11.1233 8.34738 13.4816 8.49093C14.392 8.54623 15.3347 8.64291 16.2465 8.73629C19.7918 9.09957 23.4455 9.47384 26.0097 7.5007C26.4861 9.02999 27.1662 12.097 26.0393 14.7062C25.2853 16.4516 23.819 17.7271 21.6811 18.4976ZM18.0014 38.6974H18.8708L17.9725 41.8504L15.966 39.844L18.0014 38.6974ZM21.3998 38.6974L21.5968 43.6939L19.5274 44.2114C19.2784 44.2736 19.0821 44.4652 19.0136 44.7123C18.9451 44.9599 19.0151 45.225 19.1963 45.4063L20.3649 46.5749H18.108L20.3525 38.6974H21.3998ZM10.5827 44.7123C10.5142 44.4652 10.318 44.2736 10.0689 44.2114L7.99949 43.6939L8.19651 38.6974H9.24423L11.4887 46.5749H9.23142L10.4 45.4063C10.5813 45.225 10.6512 44.9599 10.5827 44.7123ZM14.7985 40.6917L15.8832 41.7768L14.7447 43.1834L13.6739 41.8164L14.7985 40.6917ZM17.5257 43.4189L16.8625 45.7465L15.702 44.2652L16.8965 42.7897L17.5257 43.4189ZM12.6588 42.8315L13.8786 44.3886L12.7463 45.7879L12.071 43.4189L12.6588 42.8315ZM14.8363 45.4708L15.7012 46.5749H13.9423L14.8363 45.4708ZM11.6242 41.8504L10.7259 38.6974H11.5953L13.6307 39.844L11.6242 41.8504ZM4.03893 42.0551C4.03893 40.4189 5.2163 39.0526 6.76792 38.757L6.55259 44.2165C6.53941 44.5538 6.76426 44.8541 7.09165 44.9361L8.50266 45.2884L7.21617 46.5749H4.03893V42.0551ZM36.7689 43.0867C36.837 43.1549 36.8377 43.2651 36.7715 43.3343L35.9819 44.1238C35.9387 44.1667 35.89 44.1758 35.8563 44.1758C35.823 44.1758 35.7739 44.1667 35.7311 44.1238L33.2115 41.6043C33.1683 41.5615 33.1595 41.5124 33.1595 41.4787C33.1595 41.4454 33.1683 41.3963 33.2112 41.3535L33.9978 40.5672C34.067 40.4976 34.1798 40.4976 34.249 40.5672L36.7689 43.0867ZM32.0858 42.4792C32.1228 42.525 32.1616 42.5697 32.2041 42.6121L34.7233 45.1313C34.7657 45.1738 34.8104 45.213 34.8566 45.2499L34.1241 45.9827L31.5687 43.428L31.353 43.2123L32.0858 42.4792ZM30.3452 44.2198L32.6747 46.5493H28.0154L30.3452 44.2198ZM25.557 42.0551V46.5749H22.3802L21.0937 45.2884L22.5043 44.9361C22.8317 44.8541 23.0569 44.5538 23.0437 44.2165L22.828 38.757C24.38 39.0526 25.557 40.4189 25.557 42.0551ZM17.1013 37.5687L14.7985 38.8662L12.4954 37.5687V35.9739C13.2473 36.1489 14.0211 36.2405 14.8026 36.2405C15.5928 36.2405 16.3626 36.15 17.1013 35.9786V37.5687Z" fill="#243B98"/>
<path d="M18.9958 27.4724C18.5102 27.9584 17.8646 28.2257 17.1776 28.2257C16.4906 28.2257 15.8446 27.9584 15.359 27.4724C15.0807 27.1945 14.6295 27.1941 14.3512 27.4724C14.0732 27.7507 14.0732 28.2019 14.3512 28.4799C15.1063 29.235 16.1101 29.6506 17.1776 29.6506C18.2451 29.6506 19.2489 29.235 20.0036 28.4799C20.282 28.2019 20.282 27.7507 20.0036 27.4724C19.7253 27.1941 19.2745 27.1941 18.9958 27.4724Z" fill="#243B98"/>
</g>
<defs>
<clipPath id="clip0_713_3736">
<rect width="48" height="48" fill="white"/>
</clipPath>
</defs>
</svg>
