<svg width="48" height="48" viewBox="0 0 48 48" fill="none" xmlns="http://www.w3.org/2000/svg">
<g clip-path="url(#clip0_713_20444)">
<path d="M16.4058 22.2354C16.0117 22.2354 15.6924 22.5547 15.6924 22.9484V24.2653C15.6924 24.6593 16.0117 24.9786 16.4058 24.9786C16.7998 24.9786 17.1188 24.6593 17.1188 24.2653V22.9484C17.1188 22.5547 16.7994 22.2354 16.4058 22.2354Z" fill="#243B98"/>
<path d="M10.3774 24.2653V22.9484C10.3774 22.5547 10.0581 22.2354 9.66406 22.2354C9.27039 22.2354 8.95105 22.5547 8.95105 22.9484V24.2653C8.95105 24.6593 9.27039 24.9786 9.66406 24.9786C10.0581 24.9786 10.3774 24.6593 10.3774 24.2653Z" fill="#243B98"/>
<path d="M14.8554 27.8347C13.8516 28.8389 12.2183 28.8385 11.2145 27.8347C10.9358 27.5564 10.4843 27.5564 10.206 27.8347C9.92728 28.1134 9.92728 28.5649 10.206 28.8436C10.986 29.6233 12.0103 30.0133 13.0349 30.0133C14.0596 30.0133 15.0843 29.6233 15.8639 28.8436C16.1426 28.5649 16.1426 28.1134 15.8639 27.8347C15.5856 27.5564 15.1341 27.5564 14.8554 27.8347Z" fill="#243B98"/>
<path d="M47.2866 28.2103H42.4127C42.0187 28.2103 41.6997 28.5297 41.6997 28.9237V31.6926H38.2526V28.4696C44.0189 26.6514 48 21.2578 48 15.1659C48 7.47546 41.7429 1.21875 34.0521 1.21875C32.1907 1.21875 30.3834 1.57947 28.6805 2.29102C28.3169 2.44299 28.1455 2.86047 28.2975 3.22412C28.4491 3.58777 28.8669 3.75879 29.2302 3.60718C30.5402 3.06006 31.9189 2.74475 33.3387 2.66565V15.1655C33.3387 15.5596 33.6581 15.8789 34.0521 15.8789H46.5527C46.2664 20.9011 42.9738 25.2854 38.2526 26.9648V23.0724C38.2526 22.6783 37.9332 22.359 37.5392 22.359H32.6656C32.2716 22.359 31.9523 22.6783 31.9523 23.0724V27.5094C29.703 27.1318 27.6288 26.1603 25.8915 24.6621C26.0068 24.3417 26.0702 23.9996 26.0702 23.644C26.0702 22.0693 24.8459 20.7521 23.224 20.4489V17.2474C24.2765 16.4253 25.0701 15.4058 25.593 14.1951C26.9235 11.1141 26.142 7.63733 25.5996 5.93115C26.0757 5.495 26.5858 5.09399 27.1212 4.73694C27.449 4.51868 27.5376 4.07593 27.3193 3.7478C27.1011 3.42004 26.658 3.33142 26.3306 3.55005C25.8585 3.86426 25.4044 4.20923 24.9727 4.5802C24.8859 4.51904 24.7863 4.4762 24.6782 4.45862C24.4387 4.41907 24.1963 4.50403 24.0337 4.68384C21.9532 6.98474 18.394 6.62 14.6254 6.23401C13.6985 6.13879 12.7401 6.04065 11.7993 5.98352C9.01831 5.8147 6.4812 7.31873 5.30164 9.77637C4.28247 9.63025 3.25195 9.8811 2.39722 10.4982C1.36633 11.2419 0.761353 12.397 0.736816 13.6666C0.685547 16.3564 1.81311 19.1422 2.47522 20.5382C1.04114 20.9597 0 22.1924 0 23.644C0 25.2733 1.31104 26.6276 3.01721 26.8674C3.38782 28.8768 4.35425 30.7262 5.83008 32.202C6.83569 33.2073 8.01453 33.9763 9.29883 34.4817V36.2194H5.6217C2.98132 36.2194 0.833496 38.3672 0.833496 41.0072V46.2448C0.833496 46.6388 1.15283 46.9581 1.54688 46.9581H24.5138C24.9078 46.9581 25.2272 46.6388 25.2272 46.2448V41.0072C25.2272 38.3672 23.0793 36.2194 20.439 36.2194H16.7626V34.4802C19.9812 33.2106 22.4026 30.3472 23.0511 26.8678C23.8579 26.7546 24.5757 26.3921 25.1093 25.8691C27.0758 27.5186 29.4177 28.5754 31.9523 28.9559V32.2654C31.9523 32.6591 32.2716 32.9784 32.6653 32.9784C33.0593 32.9784 33.3787 32.6591 33.3787 32.2654V23.7858H36.8258V45.5057H33.3787V35.1185C33.3787 34.7245 33.0593 34.4052 32.6653 34.4052C32.2716 34.4052 31.9523 34.7245 31.9523 35.1185V36.5607H27.7917C27.3977 36.5607 27.0784 36.88 27.0784 37.2737V46.2191C27.0784 46.6128 27.3977 46.9321 27.7917 46.9321H47.2863C47.6803 46.9321 47.9996 46.6128 47.9996 46.2191V28.9237C47.9996 28.5297 47.6803 28.2103 47.2866 28.2103ZM34.7651 2.66602C41.1028 3.0238 46.1949 8.11523 46.5527 14.4525H34.7651V2.66602ZM2.16321 13.6941C2.17859 12.8771 2.56824 12.134 3.23181 11.655C3.68079 11.3309 4.20483 11.1636 4.73914 11.1636C4.99731 11.1636 5.25769 11.2028 5.51331 11.2822C5.87512 11.395 6.26147 11.205 6.39368 10.8501C7.21362 8.64697 9.35339 7.26306 11.7125 7.40771C12.6237 7.46301 13.5674 7.55969 14.48 7.65308C18.0286 8.01672 21.6855 8.39136 24.2523 6.41748C24.7284 7.95264 25.4088 11.0314 24.2805 13.6359C23.525 15.3798 22.0583 16.6545 19.9204 17.4247C13.8962 19.5948 8.10864 16.3513 8.05151 16.3187C7.85376 16.2052 7.61353 16.1935 7.40515 16.2865C7.19678 16.3795 7.04553 16.5674 6.99792 16.7908C6.99097 16.8245 6.28821 20.0068 3.97449 20.3529C3.45044 19.3121 2.11157 16.3813 2.16321 13.6941ZM1.42639 23.644C1.42639 22.8479 2.01965 22.1686 2.84619 21.9155V24.9965C2.84619 25.1232 2.84912 25.2491 2.85352 25.3751C2.02332 25.1239 1.42639 24.4431 1.42639 23.644ZM16.2371 37.6458H17.1075L16.2081 40.8021L14.1995 38.7935L16.2371 37.6458ZM19.6388 37.6458L19.8362 42.6475L17.7645 43.1653C17.5155 43.2275 17.3188 43.4194 17.2504 43.667C17.1815 43.9146 17.2515 44.1801 17.4331 44.3617L18.6031 45.5314H16.344L18.5907 37.6458H19.6388ZM8.81067 43.667C8.74182 43.4194 8.54553 43.2275 8.29614 43.1653L6.22449 42.6475L6.42188 37.6458H7.4707L9.71741 45.5314H7.45789L8.62756 44.3617C8.8092 44.1801 8.87915 43.9146 8.81067 43.667ZM13.0305 39.642L14.1167 40.7281L12.9767 42.1362L11.9048 40.7677L13.0305 39.642ZM15.7606 42.3721L15.0967 44.7023L13.9351 43.2195L15.1311 41.7422L15.7606 42.3721ZM10.8889 41.7839L12.1099 43.3429L10.9761 44.7437L10.3008 42.3721L10.8889 41.7839ZM13.0686 44.4261L13.9343 45.5314H12.174L13.0686 44.4261ZM9.85327 40.8021L8.95422 37.6458H9.82434L11.8619 38.7935L9.85327 40.8021ZM2.26025 41.0072C2.26025 39.3688 3.43835 38.0013 4.99219 37.7054L4.77649 43.1708C4.76294 43.5081 4.98816 43.8087 5.31592 43.8907L6.72839 44.2438L5.4408 45.5314H2.26025V41.0072ZM23.8008 41.0072V45.5314H20.6202L19.3326 44.2438L20.7448 43.8907C21.0725 43.8087 21.2977 43.5081 21.2845 43.1708L21.0688 37.7054C22.6223 38.0013 23.8008 39.3688 23.8008 41.0072ZM15.3362 36.516L13.0309 37.8149L10.7252 36.516V34.9244C11.4741 35.0969 12.2476 35.1863 13.0349 35.1863C13.8263 35.1863 14.5964 35.0955 15.3362 34.9241V36.516ZM13.0349 33.7599C10.6945 33.7599 8.4939 32.8484 6.83899 31.1935C5.18408 29.5382 4.27258 27.3376 4.27258 24.9965V21.7493C5.56274 21.5343 6.65771 20.7294 7.46594 19.3843C7.77246 18.8749 7.98889 18.3669 8.13574 17.9579C10.0371 18.8394 15.0549 20.6938 20.4038 18.7668C20.8989 18.5885 21.3629 18.3853 21.7972 18.1589V24.9965C21.7972 29.8286 17.8667 33.7599 13.0349 33.7599ZM23.2159 25.3751C23.2207 25.2491 23.224 25.1232 23.224 24.9965V21.9155C24.0502 22.1686 24.6434 22.8475 24.6434 23.644C24.6434 24.4431 24.0465 25.1239 23.2159 25.3751ZM28.5051 37.9871H31.9523V45.5057H28.5051V37.9871ZM38.2526 33.119H41.6997V45.5057H38.2526V33.119ZM46.5732 45.5057H43.1261V29.6371H46.5732V45.5057Z" fill="#243B98"/>
</g>
<defs>
<clipPath id="clip0_713_20444">
<rect width="48" height="48" fill="white"/>
</clipPath>
</defs>
</svg>
